G04*
G04 #@! TF.GenerationSoftware,Altium Limited,Altium Designer,24.1.2 (44)*
G04*
G04 Layer_Color=16711935*
%FSLAX44Y44*%
%MOMM*%
G71*
G04*
G04 #@! TF.SameCoordinates,1AC9159D-62F3-4322-B3E1-BEE9EAD309C0*
G04*
G04*
G04 #@! TF.FilePolarity,Negative*
G04*
G01*
G75*
%ADD14C,1.0000*%
%ADD19C,0.8032*%
%ADD20C,4.7032*%
%ADD21C,1.1032*%
%ADD22C,5.7032*%
%ADD23C,1.4032*%
%ADD24C,6.2032*%
%ADD25C,1.2032*%
%ADD26C,1.8032*%
%ADD27R,1.8032X1.8032*%
%ADD59R,0.9000X0.9500*%
%ADD62R,3.1725X2.3455*%
%ADD63R,0.6325X2.3455*%
%ADD64R,0.9500X0.9000*%
%ADD79R,2.3622X1.8796*%
%ADD80R,1.8796X2.3622*%
%ADD82R,1.7018X0.8128*%
%ADD90R,1.2700X0.3810*%
%ADD92R,0.6032X1.7032*%
%ADD93R,1.1032X1.1532*%
%ADD94R,1.1032X0.8032*%
%ADD95R,1.0032X1.1032*%
%ADD96R,1.1532X1.1032*%
%ADD97R,1.1032X1.0032*%
%ADD98C,1.7032*%
%ADD99R,0.8032X1.1032*%
%ADD100R,0.5000X1.9000*%
%ADD101R,1.4732X0.6032*%
%ADD102R,1.4732X1.7532*%
%ADD103R,2.5032X3.0032*%
%ADD104O,2.0032X0.8032*%
%ADD105R,1.6032X1.6032*%
%ADD106R,2.5032X2.4892*%
%ADD107R,3.6000X2.3098*%
%ADD108O,1.3500X0.4500*%
%ADD109R,3.5032X3.3532*%
%ADD110R,1.5000X1.4000*%
%ADD111R,1.1132X1.4232*%
%ADD112R,3.3032X3.7982*%
%ADD113R,2.0660X6.9342*%
%ADD114R,2.9391X2.4948*%
%ADD115R,2.2352X2.8702*%
G36*
X744840Y50940D02*
Y47640D01*
X758840D01*
Y50940D01*
X744840D01*
D02*
G37*
D14*
X10000Y397390D02*
X7522Y396727D01*
X5707Y394914D01*
X5040Y392436D01*
X433300Y844960D02*
X430982Y844655D01*
X428823Y843761D01*
X426967Y842339D01*
X425543Y840485D01*
X424647Y838326D01*
X424340Y836009D01*
X742000Y816960D02*
X744485Y817123D01*
X746928Y817609D01*
X749286Y818409D01*
X751520Y819511D01*
X753591Y820895D01*
X755463Y822537D01*
X757105Y824409D01*
X758489Y826480D01*
X759591Y828714D01*
X760391Y831072D01*
X760877Y833515D01*
X761040Y836000D01*
X838011Y5040D02*
X840669Y5572D01*
X842923Y7080D01*
X844429Y9334D01*
X844960Y11992D01*
X840010Y775040D02*
X842476Y775702D01*
X844286Y777503D01*
X844961Y779965D01*
X770000Y844960D02*
X767682Y844655D01*
X765523Y843761D01*
X763667Y842339D01*
X762243Y840485D01*
X761347Y838326D01*
X761040Y836009D01*
X5040Y786130D02*
X5705Y783650D01*
X7520Y781834D01*
X10000Y781170D01*
X10000Y397390D02*
X12612Y397618D01*
X15144Y398297D01*
X17520Y399405D01*
X19668Y400909D01*
X21521Y402762D01*
X23025Y404910D01*
X24133Y407286D01*
X24812Y409818D01*
X25040Y412430D01*
X844960Y838000D02*
X844430Y840664D01*
X842922Y842922D01*
X840664Y844430D01*
X838000Y844960D01*
X11992D02*
X9331Y844428D01*
X7076Y842919D01*
X5569Y840662D01*
X5040Y838000D01*
Y11989D02*
X5572Y9331D01*
X7080Y7078D01*
X9334Y5571D01*
X11992Y5040D01*
X506260Y836000D02*
X506423Y833515D01*
X506909Y831072D01*
X507709Y828714D01*
X508811Y826480D01*
X510195Y824409D01*
X511837Y822537D01*
X513709Y820895D01*
X515780Y819511D01*
X518014Y818409D01*
X520372Y817609D01*
X522815Y817123D01*
X525300Y816960D01*
X88960Y836000D02*
X89123Y833515D01*
X89609Y831072D01*
X90409Y828714D01*
X91511Y826480D01*
X92895Y824409D01*
X94537Y822537D01*
X96409Y820895D01*
X98480Y819511D01*
X100714Y818409D01*
X103072Y817609D01*
X105515Y817123D01*
X108000Y816960D01*
X506260Y836009D02*
X505953Y838326D01*
X505057Y840485D01*
X503633Y842339D01*
X501777Y843761D01*
X499618Y844655D01*
X497300Y844960D01*
X839967Y775040D02*
X837364Y774807D01*
X834841Y774127D01*
X832474Y773021D01*
X830334Y771522D01*
X828485Y769674D01*
X826985Y767535D01*
X825877Y765168D01*
X825195Y762646D01*
X824961Y760043D01*
X88960Y836009D02*
X88653Y838324D01*
X87759Y840482D01*
X86337Y842335D01*
X84484Y843757D01*
X82327Y844653D01*
X80011Y844960D01*
X25040Y766130D02*
X24812Y768742D01*
X24133Y771274D01*
X23025Y773650D01*
X21521Y775798D01*
X19668Y777651D01*
X17520Y779155D01*
X15144Y780263D01*
X12612Y780941D01*
X10000Y781170D01*
X405300Y816960D02*
X407785Y817123D01*
X410228Y817609D01*
X412586Y818409D01*
X414820Y819511D01*
X416891Y820895D01*
X418763Y822537D01*
X420405Y824409D01*
X421789Y826480D01*
X422891Y828714D01*
X423691Y831072D01*
X424177Y833515D01*
X424340Y836000D01*
X844960Y400000D02*
X844296Y402480D01*
X842480Y404296D01*
X840000Y404960D01*
X824960Y420000D02*
X825189Y417388D01*
X825867Y414856D01*
X826975Y412480D01*
X828479Y410332D01*
X830332Y408479D01*
X832480Y406975D01*
X834856Y405867D01*
X837388Y405188D01*
X840000Y404960D01*
X433300Y844960D02*
X497300D01*
X770000D02*
X838000D01*
X108000Y816960D02*
X405300D01*
X824960Y420000D02*
Y759903D01*
X5040Y786130D02*
Y838000D01*
X25040Y412430D02*
Y766130D01*
X12016Y5040D02*
X837988Y5040D01*
X525300Y816960D02*
X742000D01*
X12004Y844960D02*
X79977Y844960D01*
X844960Y780099D02*
Y838000D01*
X5040Y12012D02*
X5040Y392427D01*
X844960Y12016D02*
X844960Y400000D01*
D19*
X443698Y845000D02*
D03*
X457698D02*
D03*
X471698D02*
D03*
X485698D02*
D03*
X499694Y844649D02*
D03*
X506867Y832626D02*
D03*
X514549Y820922D02*
D03*
X527989Y817000D02*
D03*
X541989D02*
D03*
X555989D02*
D03*
X569989D02*
D03*
X583989D02*
D03*
X597989D02*
D03*
X611989D02*
D03*
X625989D02*
D03*
X639989D02*
D03*
X653989D02*
D03*
X667989D02*
D03*
X681989D02*
D03*
X695989D02*
D03*
X709989D02*
D03*
X723989D02*
D03*
X737989D02*
D03*
X751625Y820170D02*
D03*
X760086Y831324D02*
D03*
X765980Y844023D02*
D03*
X779946Y845000D02*
D03*
X793945D02*
D03*
X807945D02*
D03*
X821945D02*
D03*
X835945D02*
D03*
X845000Y834322D02*
D03*
Y820322D02*
D03*
Y806322D02*
D03*
Y792322D02*
D03*
X844688Y778326D02*
D03*
X832680Y771128D02*
D03*
X825438Y759147D02*
D03*
X825000Y745153D02*
D03*
Y731153D02*
D03*
Y717153D02*
D03*
Y703154D02*
D03*
Y689154D02*
D03*
Y675154D02*
D03*
Y661153D02*
D03*
Y647153D02*
D03*
Y633153D02*
D03*
Y619154D02*
D03*
Y605154D02*
D03*
Y591153D02*
D03*
Y577154D02*
D03*
Y563153D02*
D03*
Y549154D02*
D03*
Y535154D02*
D03*
Y521153D02*
D03*
Y507154D02*
D03*
Y493153D02*
D03*
Y479154D02*
D03*
Y465154D02*
D03*
Y451153D02*
D03*
Y437154D02*
D03*
X825135Y423154D02*
D03*
X830854Y410376D02*
D03*
X843212Y403795D02*
D03*
X845000Y389910D02*
D03*
Y375910D02*
D03*
Y361910D02*
D03*
Y347910D02*
D03*
Y333910D02*
D03*
Y319910D02*
D03*
Y305910D02*
D03*
Y291910D02*
D03*
Y277910D02*
D03*
X845000Y263910D02*
D03*
Y249910D02*
D03*
Y235910D02*
D03*
Y221910D02*
D03*
Y207910D02*
D03*
Y193910D02*
D03*
Y179910D02*
D03*
Y165910D02*
D03*
Y151910D02*
D03*
X845000Y137910D02*
D03*
Y123910D02*
D03*
Y109910D02*
D03*
Y95910D02*
D03*
Y81910D02*
D03*
Y67910D02*
D03*
Y53910D02*
D03*
Y39910D02*
D03*
Y25910D02*
D03*
X844996Y11910D02*
D03*
X832820Y5000D02*
D03*
X818820D02*
D03*
X804820D02*
D03*
X790820D02*
D03*
X776820D02*
D03*
X762820D02*
D03*
X748820D02*
D03*
X734820D02*
D03*
X720820D02*
D03*
X706820D02*
D03*
X692820D02*
D03*
X678820D02*
D03*
X664820D02*
D03*
X650820D02*
D03*
X636820D02*
D03*
X622820D02*
D03*
X608820D02*
D03*
X594820D02*
D03*
X580820D02*
D03*
X566820D02*
D03*
X552820Y5000D02*
D03*
X538820D02*
D03*
X524820D02*
D03*
X510820D02*
D03*
X496820D02*
D03*
X482820D02*
D03*
X468820D02*
D03*
X454820D02*
D03*
X398820D02*
D03*
X384820D02*
D03*
X370820D02*
D03*
X356820D02*
D03*
X342820D02*
D03*
X328820D02*
D03*
X314820D02*
D03*
X300820D02*
D03*
X286820D02*
D03*
X272820Y5000D02*
D03*
X258820D02*
D03*
X244820D02*
D03*
X230820D02*
D03*
X216820D02*
D03*
X202820D02*
D03*
X188820D02*
D03*
X174820D02*
D03*
X160820D02*
D03*
X146820D02*
D03*
X132820D02*
D03*
X118820D02*
D03*
X104820D02*
D03*
X90820D02*
D03*
X76820D02*
D03*
X62820D02*
D03*
X48820D02*
D03*
X34820D02*
D03*
X20820D02*
D03*
X6982Y7125D02*
D03*
X5000Y20984D02*
D03*
Y34984D02*
D03*
Y48984D02*
D03*
Y62984D02*
D03*
Y76984D02*
D03*
Y90984D02*
D03*
Y104984D02*
D03*
Y118984D02*
D03*
Y132984D02*
D03*
Y146984D02*
D03*
Y160984D02*
D03*
Y174984D02*
D03*
Y188984D02*
D03*
Y202984D02*
D03*
Y216984D02*
D03*
Y230984D02*
D03*
Y244984D02*
D03*
Y258984D02*
D03*
Y272984D02*
D03*
Y286984D02*
D03*
Y300984D02*
D03*
Y314984D02*
D03*
Y328984D02*
D03*
Y342984D02*
D03*
Y356984D02*
D03*
Y370984D02*
D03*
Y384984D02*
D03*
X10583Y397822D02*
D03*
X21777Y406231D02*
D03*
X25000Y419855D02*
D03*
Y433855D02*
D03*
Y447855D02*
D03*
Y461855D02*
D03*
Y475855D02*
D03*
Y489855D02*
D03*
Y503855D02*
D03*
Y517855D02*
D03*
Y531855D02*
D03*
Y545855D02*
D03*
Y559855D02*
D03*
Y573855D02*
D03*
Y587855D02*
D03*
Y601855D02*
D03*
Y615855D02*
D03*
Y629855D02*
D03*
Y643855D02*
D03*
Y657855D02*
D03*
Y671855D02*
D03*
Y685855D02*
D03*
Y699855D02*
D03*
Y713855D02*
D03*
Y727855D02*
D03*
Y741855D02*
D03*
Y755855D02*
D03*
X23223Y769742D02*
D03*
X13392Y779709D02*
D03*
X5000Y790915D02*
D03*
Y804915D02*
D03*
Y818915D02*
D03*
Y832915D02*
D03*
X12067Y845000D02*
D03*
X26067D02*
D03*
X40067Y845000D02*
D03*
X54067D02*
D03*
X68067Y845000D02*
D03*
X82065Y844748D02*
D03*
X89513Y832894D02*
D03*
X97029Y821082D02*
D03*
X110421Y817000D02*
D03*
X124420D02*
D03*
X138420D02*
D03*
X152421D02*
D03*
X166420D02*
D03*
X180420D02*
D03*
X194421D02*
D03*
X208421D02*
D03*
X222421D02*
D03*
X236420D02*
D03*
X250420D02*
D03*
X264421D02*
D03*
X278421D02*
D03*
X292421D02*
D03*
X306420D02*
D03*
X320420D02*
D03*
X334421D02*
D03*
X348420D02*
D03*
X362421D02*
D03*
X376421D02*
D03*
X390420D02*
D03*
X404421Y817014D02*
D03*
X417475Y822071D02*
D03*
X424061Y834425D02*
D03*
X433227Y845007D02*
D03*
D20*
X425000Y21000D02*
D03*
D21*
X481465Y807835D02*
D03*
X449136D02*
D03*
Y840164D02*
D03*
X481465D02*
D03*
X488160Y824000D02*
D03*
X465300Y801140D02*
D03*
X442440Y824000D02*
D03*
X465300Y846860D02*
D03*
D22*
Y824000D02*
D03*
D23*
X52165Y19835D02*
D03*
X19835D02*
D03*
Y52165D02*
D03*
X52165D02*
D03*
X58860Y36000D02*
D03*
X36000Y13140D02*
D03*
X13140Y36000D02*
D03*
X36000Y58860D02*
D03*
X830164Y239835D02*
D03*
X797835D02*
D03*
Y272164D02*
D03*
X830164D02*
D03*
X836860Y256000D02*
D03*
X814000Y233140D02*
D03*
X791140Y256000D02*
D03*
X814000Y278860D02*
D03*
X36000Y836860D02*
D03*
X13140Y814000D02*
D03*
X36000Y791140D02*
D03*
X58860Y814000D02*
D03*
X52165Y830164D02*
D03*
X19835D02*
D03*
Y797835D02*
D03*
X52165D02*
D03*
X36000Y278860D02*
D03*
X13140Y256000D02*
D03*
X36000Y233140D02*
D03*
X58860Y256000D02*
D03*
X52165Y272164D02*
D03*
X19835D02*
D03*
Y239835D02*
D03*
X52165D02*
D03*
Y347836D02*
D03*
X19835D02*
D03*
Y380164D02*
D03*
X52165D02*
D03*
X58860Y364000D02*
D03*
X36000Y341140D02*
D03*
X13140Y364000D02*
D03*
X36000Y386860D02*
D03*
X830164Y797835D02*
D03*
X797835D02*
D03*
Y830164D02*
D03*
X830164D02*
D03*
X836860Y814000D02*
D03*
X814000Y791140D02*
D03*
X791140Y814000D02*
D03*
X814000Y836860D02*
D03*
Y386860D02*
D03*
X791140Y364000D02*
D03*
X814000Y341140D02*
D03*
X836860Y364000D02*
D03*
X830164Y380164D02*
D03*
X797835D02*
D03*
Y347836D02*
D03*
X830164D02*
D03*
Y19835D02*
D03*
X797835D02*
D03*
Y52165D02*
D03*
X830164D02*
D03*
X836860Y36000D02*
D03*
X814000Y13140D02*
D03*
X791140Y36000D02*
D03*
X814000Y58860D02*
D03*
D24*
X36000Y36000D02*
D03*
X814000Y256000D02*
D03*
X36000Y814000D02*
D03*
Y256000D02*
D03*
Y364000D02*
D03*
X814000Y814000D02*
D03*
Y364000D02*
D03*
Y36000D02*
D03*
D25*
X555400Y427000D02*
D03*
X568100Y439700D02*
D03*
Y414300D02*
D03*
X580800Y427000D02*
D03*
X555400Y355000D02*
D03*
X568100Y367700D02*
D03*
Y342300D02*
D03*
X580800Y355000D02*
D03*
X462060D02*
D03*
X474760Y367700D02*
D03*
Y342300D02*
D03*
X487460Y355000D02*
D03*
X368720Y427000D02*
D03*
X381420Y439700D02*
D03*
Y414300D02*
D03*
X394120Y427000D02*
D03*
X462060D02*
D03*
X474760Y439700D02*
D03*
Y414300D02*
D03*
X487460Y427000D02*
D03*
X368720Y355000D02*
D03*
X381420Y367700D02*
D03*
Y342300D02*
D03*
X394120Y355000D02*
D03*
X275380D02*
D03*
X288080Y367700D02*
D03*
Y342300D02*
D03*
X300780Y355000D02*
D03*
X275380Y427000D02*
D03*
X288080Y439700D02*
D03*
Y414300D02*
D03*
X300780Y427000D02*
D03*
X275380Y499000D02*
D03*
X288080Y511700D02*
D03*
Y486300D02*
D03*
X300780Y499000D02*
D03*
X368720D02*
D03*
X381420Y511700D02*
D03*
Y486300D02*
D03*
X394120Y499000D02*
D03*
X462060D02*
D03*
X474760Y511700D02*
D03*
Y486300D02*
D03*
X487460Y499000D02*
D03*
X555400D02*
D03*
X568100Y511700D02*
D03*
Y486300D02*
D03*
X580800Y499000D02*
D03*
X555400Y571000D02*
D03*
X568100Y583700D02*
D03*
Y558300D02*
D03*
X580800Y571000D02*
D03*
X462060D02*
D03*
X474760Y583700D02*
D03*
Y558300D02*
D03*
X487460Y571000D02*
D03*
X368720D02*
D03*
X381420Y583700D02*
D03*
Y558300D02*
D03*
X394120Y571000D02*
D03*
X275380D02*
D03*
X288080Y583700D02*
D03*
Y558300D02*
D03*
X300780Y571000D02*
D03*
X182040D02*
D03*
X194740Y583700D02*
D03*
Y558300D02*
D03*
X207440Y571000D02*
D03*
X182040Y499000D02*
D03*
X194740Y511700D02*
D03*
Y486300D02*
D03*
X207440Y499000D02*
D03*
X182040Y427000D02*
D03*
X194740Y439700D02*
D03*
Y414300D02*
D03*
X207440Y427000D02*
D03*
X182040Y355000D02*
D03*
X194740Y367700D02*
D03*
Y342300D02*
D03*
X207440Y355000D02*
D03*
X88700D02*
D03*
X101400Y367700D02*
D03*
Y342300D02*
D03*
X114100Y355000D02*
D03*
X88700Y427000D02*
D03*
X101400Y439700D02*
D03*
Y414300D02*
D03*
X114100Y427000D02*
D03*
X88700Y499000D02*
D03*
X101400Y511700D02*
D03*
Y486300D02*
D03*
X114100Y499000D02*
D03*
X88700Y571000D02*
D03*
X101400Y583700D02*
D03*
Y558300D02*
D03*
X114100Y571000D02*
D03*
X182040Y643000D02*
D03*
X194740Y655700D02*
D03*
Y630300D02*
D03*
X207440Y643000D02*
D03*
X275380D02*
D03*
X288080Y655700D02*
D03*
Y630300D02*
D03*
X300780Y643000D02*
D03*
X368720D02*
D03*
X381420Y655700D02*
D03*
Y630300D02*
D03*
X394120Y643000D02*
D03*
X462060D02*
D03*
X474760Y655700D02*
D03*
Y630300D02*
D03*
X487460Y643000D02*
D03*
X580800D02*
D03*
X568100Y630300D02*
D03*
Y655700D02*
D03*
X555400Y643000D02*
D03*
Y715000D02*
D03*
X568100Y727700D02*
D03*
Y702300D02*
D03*
X580800Y715000D02*
D03*
X462060D02*
D03*
X474760Y727700D02*
D03*
Y702300D02*
D03*
X487460Y715000D02*
D03*
X368720D02*
D03*
X381420Y727700D02*
D03*
Y702300D02*
D03*
X394120Y715000D02*
D03*
X275380D02*
D03*
X288080Y727700D02*
D03*
Y702300D02*
D03*
X300780Y715000D02*
D03*
X182040D02*
D03*
X194740Y727700D02*
D03*
Y702300D02*
D03*
X207440Y715000D02*
D03*
X88700D02*
D03*
X101400Y727700D02*
D03*
Y702300D02*
D03*
X114100Y715000D02*
D03*
X88700Y643000D02*
D03*
X101400Y655700D02*
D03*
Y630300D02*
D03*
X114100Y643000D02*
D03*
D26*
X762700Y113800D02*
D03*
Y139200D02*
D03*
Y164600D02*
D03*
Y190000D02*
D03*
Y215400D02*
D03*
Y240800D02*
D03*
Y266200D02*
D03*
X737300Y139200D02*
D03*
Y164600D02*
D03*
Y190000D02*
D03*
Y215400D02*
D03*
Y240800D02*
D03*
Y266200D02*
D03*
D27*
Y113800D02*
D03*
D59*
X653440Y271980D02*
D03*
X597320D02*
D03*
X539931Y227530D02*
D03*
X653440D02*
D03*
X539931Y271980D02*
D03*
D62*
X447040Y159643D02*
D03*
D63*
X421640Y99437D02*
D03*
X434340D02*
D03*
X447040D02*
D03*
X459740D02*
D03*
X472440D02*
D03*
D64*
X289346Y51140D02*
D03*
X265430Y298436D02*
D03*
X767280Y567030D02*
D03*
Y524697D02*
D03*
Y482363D02*
D03*
Y440030D02*
D03*
D79*
X392938Y98298D02*
D03*
Y143002D02*
D03*
X502920Y73152D02*
D03*
Y28448D02*
D03*
X553720Y73240D02*
D03*
Y28536D02*
D03*
D80*
X615370Y195580D02*
D03*
X660074D02*
D03*
D82*
X763435Y715980D02*
D03*
Y703480D02*
D03*
Y690980D02*
D03*
Y678480D02*
D03*
Y665980D02*
D03*
Y653480D02*
D03*
Y640980D02*
D03*
Y628480D02*
D03*
D90*
X328930Y35875D02*
D03*
Y286066D02*
D03*
Y300035D02*
D03*
Y21906D02*
D03*
D92*
X649515Y705564D02*
D03*
X656015D02*
D03*
X662515D02*
D03*
X669015D02*
D03*
X675515D02*
D03*
X682015D02*
D03*
X688515D02*
D03*
X695015D02*
D03*
X701515D02*
D03*
X708015D02*
D03*
X714515D02*
D03*
X721015D02*
D03*
Y649175D02*
D03*
X714515D02*
D03*
X708015D02*
D03*
X701515D02*
D03*
X695015D02*
D03*
X688515D02*
D03*
X682015D02*
D03*
X675515D02*
D03*
X669015D02*
D03*
X662515D02*
D03*
X656015D02*
D03*
X649515D02*
D03*
Y622581D02*
D03*
X656015D02*
D03*
X662515D02*
D03*
X669015D02*
D03*
X675515D02*
D03*
X682015D02*
D03*
X688515D02*
D03*
X695015D02*
D03*
X701515D02*
D03*
X708015D02*
D03*
X714515D02*
D03*
X721015D02*
D03*
Y566193D02*
D03*
X714515D02*
D03*
X708015D02*
D03*
X701515D02*
D03*
X695015D02*
D03*
X688515D02*
D03*
X682015D02*
D03*
X675515D02*
D03*
X669015D02*
D03*
X662515D02*
D03*
X656015D02*
D03*
X649515D02*
D03*
Y539599D02*
D03*
X656015D02*
D03*
X662515D02*
D03*
X669015D02*
D03*
X675515D02*
D03*
X682015D02*
D03*
X688515D02*
D03*
X695015D02*
D03*
X701515D02*
D03*
X708015D02*
D03*
X714515D02*
D03*
X721015D02*
D03*
Y483211D02*
D03*
X714515D02*
D03*
X708015D02*
D03*
X701515D02*
D03*
X695015D02*
D03*
X688515D02*
D03*
X682015D02*
D03*
X675515D02*
D03*
X669015D02*
D03*
X662515D02*
D03*
X656015D02*
D03*
X649515D02*
D03*
Y456616D02*
D03*
X656015D02*
D03*
X662515D02*
D03*
X669015D02*
D03*
X675515D02*
D03*
X682015D02*
D03*
X688515D02*
D03*
X695015D02*
D03*
X701515D02*
D03*
X708015D02*
D03*
X714515D02*
D03*
X721015D02*
D03*
Y400228D02*
D03*
X714515D02*
D03*
X708015D02*
D03*
X701515D02*
D03*
X695015D02*
D03*
X688515D02*
D03*
X682015D02*
D03*
X675515D02*
D03*
X669015D02*
D03*
X662515D02*
D03*
X656015D02*
D03*
X649515D02*
D03*
Y373634D02*
D03*
X656015D02*
D03*
X662515D02*
D03*
X669015D02*
D03*
X675515D02*
D03*
X682015D02*
D03*
X688515D02*
D03*
X695015D02*
D03*
X701515D02*
D03*
X708015D02*
D03*
X714515D02*
D03*
X721015D02*
D03*
Y317246D02*
D03*
X714515D02*
D03*
X708015D02*
D03*
X701515D02*
D03*
X695015D02*
D03*
X688515D02*
D03*
X682015D02*
D03*
X675515D02*
D03*
X669015D02*
D03*
X662515D02*
D03*
X656015D02*
D03*
X649515D02*
D03*
Y788546D02*
D03*
X656015D02*
D03*
X662515D02*
D03*
X669015D02*
D03*
X675515D02*
D03*
X682015D02*
D03*
X688515D02*
D03*
X695015D02*
D03*
X701515D02*
D03*
X708015D02*
D03*
X714515D02*
D03*
X721015D02*
D03*
Y732158D02*
D03*
X714515D02*
D03*
X708015D02*
D03*
X701515D02*
D03*
X695015D02*
D03*
X688515D02*
D03*
X682015D02*
D03*
X675515D02*
D03*
X669015D02*
D03*
X662515D02*
D03*
X656015D02*
D03*
X649515D02*
D03*
D93*
X672440Y271980D02*
D03*
X662940Y296980D02*
D03*
X616320Y271980D02*
D03*
X606820Y296980D02*
D03*
X558931Y227530D02*
D03*
X549431Y252530D02*
D03*
X672440Y227530D02*
D03*
X662940Y252530D02*
D03*
X549431Y296980D02*
D03*
X558931Y271980D02*
D03*
D94*
X616319Y313931D02*
D03*
X616320Y332090D02*
D03*
X633730Y415072D02*
D03*
X633729Y396914D02*
D03*
Y479896D02*
D03*
X633730Y498055D02*
D03*
Y581037D02*
D03*
X633729Y562878D02*
D03*
X633730Y664020D02*
D03*
X633729Y645861D02*
D03*
X633730Y332090D02*
D03*
X633729Y313931D02*
D03*
X265430Y149541D02*
D03*
X265429Y131383D02*
D03*
X265430Y174940D02*
D03*
X265431Y193099D02*
D03*
X364498Y68261D02*
D03*
X364497Y50103D02*
D03*
X364490Y204150D02*
D03*
X364491Y222309D02*
D03*
X570229Y102491D02*
D03*
X570230Y120650D02*
D03*
X570231Y164209D02*
D03*
X570230Y146050D02*
D03*
X633729Y358411D02*
D03*
X633730Y376570D02*
D03*
X633729Y441394D02*
D03*
X633730Y459552D02*
D03*
X633729Y524376D02*
D03*
X633730Y542535D02*
D03*
X633729Y607358D02*
D03*
X633730Y625517D02*
D03*
X633729Y690341D02*
D03*
X633730Y708500D02*
D03*
X633729Y751083D02*
D03*
X633730Y769242D02*
D03*
D95*
X736470Y417095D02*
D03*
Y399095D02*
D03*
Y439749D02*
D03*
Y457749D02*
D03*
Y500078D02*
D03*
Y482078D02*
D03*
Y540732D02*
D03*
Y522732D02*
D03*
Y583060D02*
D03*
Y565060D02*
D03*
Y623714D02*
D03*
Y605714D02*
D03*
Y666043D02*
D03*
Y648043D02*
D03*
Y706696D02*
D03*
Y688697D02*
D03*
Y334113D02*
D03*
Y316113D02*
D03*
Y374767D02*
D03*
Y356767D02*
D03*
X265430Y236010D02*
D03*
Y218011D02*
D03*
X288290D02*
D03*
Y236010D02*
D03*
X364490Y88470D02*
D03*
Y106470D02*
D03*
Y145841D02*
D03*
Y127840D02*
D03*
Y185210D02*
D03*
Y167211D02*
D03*
X488188Y163940D02*
D03*
Y145940D02*
D03*
X514858D02*
D03*
Y163940D02*
D03*
X488188Y120760D02*
D03*
Y102760D02*
D03*
X541528D02*
D03*
Y120760D02*
D03*
X514858Y102760D02*
D03*
Y120760D02*
D03*
X541528Y189247D02*
D03*
Y207247D02*
D03*
X570230D02*
D03*
Y189247D02*
D03*
X541528Y145940D02*
D03*
Y163940D02*
D03*
X736470Y731025D02*
D03*
Y749025D02*
D03*
Y771679D02*
D03*
Y789679D02*
D03*
D96*
X264346Y60641D02*
D03*
X289346Y70141D02*
D03*
X265430Y279436D02*
D03*
X290430Y288936D02*
D03*
X767280Y548030D02*
D03*
X792280Y557530D02*
D03*
X767280Y505697D02*
D03*
X792280Y515197D02*
D03*
X767280Y463363D02*
D03*
X792280Y472863D02*
D03*
X767280Y421030D02*
D03*
X792280Y430530D02*
D03*
D97*
X283963Y103820D02*
D03*
X265963D02*
D03*
X328398Y54290D02*
D03*
X310398D02*
D03*
X313580Y268920D02*
D03*
X331580D02*
D03*
X413910Y295888D02*
D03*
X431910D02*
D03*
Y269240D02*
D03*
X413910D02*
D03*
X413800Y191770D02*
D03*
X431800D02*
D03*
X453280D02*
D03*
X471280D02*
D03*
X622630Y102870D02*
D03*
X640630D02*
D03*
X451054Y295888D02*
D03*
X469054D02*
D03*
X488198D02*
D03*
X506198D02*
D03*
D98*
X265430Y258761D02*
D03*
X346710Y79690D02*
D03*
X364490Y242250D02*
D03*
Y267651D02*
D03*
X610870Y350520D02*
D03*
Y751840D02*
D03*
X528320D02*
D03*
X265430Y28725D02*
D03*
X610870Y717911D02*
D03*
Y469038D02*
D03*
X589280Y240030D02*
D03*
X626110D02*
D03*
X610870Y551995D02*
D03*
Y788546D02*
D03*
Y634953D02*
D03*
Y386080D02*
D03*
D99*
X328288Y79690D02*
D03*
X310129Y79692D02*
D03*
X328288Y103820D02*
D03*
X310129Y103822D02*
D03*
X312421Y218120D02*
D03*
X330580Y218119D02*
D03*
X330201Y239711D02*
D03*
X312042Y239712D02*
D03*
X447931Y214631D02*
D03*
X466090Y214630D02*
D03*
X489841Y214631D02*
D03*
X508000Y214630D02*
D03*
X489842Y191771D02*
D03*
X508001Y191770D02*
D03*
D100*
X337185Y134173D02*
D03*
X330835D02*
D03*
X324485D02*
D03*
X318135D02*
D03*
X311785D02*
D03*
X305435D02*
D03*
X299085D02*
D03*
X292735D02*
D03*
Y185228D02*
D03*
X299085D02*
D03*
X305435D02*
D03*
X311785D02*
D03*
X318135D02*
D03*
X324485D02*
D03*
X330835D02*
D03*
X337185D02*
D03*
D101*
X329049Y293155D02*
D03*
X329057Y28598D02*
D03*
D102*
X362069Y293155D02*
D03*
X362077Y28598D02*
D03*
D103*
X631630Y143510D02*
D03*
D104*
X659880Y162560D02*
D03*
Y149860D02*
D03*
Y137160D02*
D03*
Y124460D02*
D03*
X603380Y162560D02*
D03*
Y149860D02*
D03*
Y137160D02*
D03*
Y124460D02*
D03*
D105*
X751840Y40640D02*
D03*
Y57940D02*
D03*
D106*
X713170Y71700D02*
D03*
Y31060D02*
D03*
D107*
X792435Y741480D02*
D03*
Y602980D02*
D03*
D108*
X505770Y274770D02*
D03*
Y268270D02*
D03*
Y261770D02*
D03*
Y255270D02*
D03*
Y248770D02*
D03*
Y242270D02*
D03*
Y235770D02*
D03*
X449270Y274770D02*
D03*
Y268270D02*
D03*
Y261770D02*
D03*
Y255270D02*
D03*
Y248770D02*
D03*
Y242270D02*
D03*
Y235770D02*
D03*
D109*
X659130Y54610D02*
D03*
X604130D02*
D03*
D110*
X416167Y221870D02*
D03*
Y237870D02*
D03*
D111*
X458410Y391840D02*
D03*
X491110D02*
D03*
X551750D02*
D03*
X584450D02*
D03*
X551750Y463840D02*
D03*
X584450D02*
D03*
X458410D02*
D03*
X491110D02*
D03*
X458410Y535840D02*
D03*
X491110D02*
D03*
X551750D02*
D03*
X584450D02*
D03*
X551750Y607840D02*
D03*
X584450D02*
D03*
X458410D02*
D03*
X491110D02*
D03*
X365070D02*
D03*
X397770D02*
D03*
X365070Y535840D02*
D03*
X397770D02*
D03*
X365070Y463840D02*
D03*
X397770D02*
D03*
X365070Y391840D02*
D03*
X397770D02*
D03*
X271730D02*
D03*
X304430D02*
D03*
X271730Y463840D02*
D03*
X304430D02*
D03*
X271730Y535840D02*
D03*
X304430D02*
D03*
X178390Y607840D02*
D03*
X211090D02*
D03*
X271730D02*
D03*
X304430D02*
D03*
X178390Y535840D02*
D03*
X211090D02*
D03*
X178390Y463840D02*
D03*
X211090D02*
D03*
X178390Y391840D02*
D03*
X211090D02*
D03*
X85050D02*
D03*
X117750D02*
D03*
X85050Y463840D02*
D03*
X117750D02*
D03*
X85050Y535840D02*
D03*
X117750D02*
D03*
X85050Y607840D02*
D03*
X117750D02*
D03*
X85050Y679840D02*
D03*
X117750D02*
D03*
X178390D02*
D03*
X211090D02*
D03*
X271730D02*
D03*
X304430D02*
D03*
X365070D02*
D03*
X397770D02*
D03*
X458410D02*
D03*
X491110D02*
D03*
X551750D02*
D03*
X584450D02*
D03*
X551750Y751840D02*
D03*
X584450D02*
D03*
X458410D02*
D03*
X491110D02*
D03*
X365070D02*
D03*
X397770D02*
D03*
X271730D02*
D03*
X304430D02*
D03*
X178390D02*
D03*
X211090D02*
D03*
X85050D02*
D03*
X117750D02*
D03*
D112*
X829500Y827025D02*
D03*
D113*
X16934Y810895D02*
D03*
D114*
X18679Y16482D02*
D03*
D115*
X833120Y20955D02*
D03*
M02*
