G04*
G04 #@! TF.GenerationSoftware,Altium Limited,Altium Designer,24.1.2 (44)*
G04*
G04 Layer_Physical_Order=3*
G04 Layer_Color=16440176*
%FSLAX44Y44*%
%MOMM*%
G71*
G04*
G04 #@! TF.SameCoordinates,E5F7653D-5FC0-4154-B66B-F321A2D7D9BC*
G04*
G04*
G04 #@! TF.FilePolarity,Positive*
G04*
G01*
G75*
%ADD11C,0.4000*%
%ADD14C,1.0000*%
%ADD28C,0.3000*%
%ADD29C,0.6000*%
%ADD34C,0.6000*%
%ADD35C,4.5000*%
%ADD36C,0.9000*%
%ADD37C,5.5000*%
%ADD38C,1.2000*%
%ADD39C,6.0000*%
%ADD40C,1.0000*%
%ADD41C,1.6000*%
%ADD42R,1.6000X1.6000*%
%ADD43C,0.4000*%
%ADD45R,3.5136X1.6025*%
%ADD50C,0.5000*%
%ADD51C,0.3500*%
%ADD52R,18.8456X1.6510*%
%ADD53R,1.9050X6.8234*%
%ADD54R,2.5851X2.1590*%
%ADD55R,2.4130X2.1590*%
%ADD56R,2.7335X2.7293*%
%ADD57R,1.5240X0.7620*%
G36*
X792586Y837134D02*
X789973Y834521D01*
X787059Y830510D01*
X784808Y826092D01*
X783276Y821376D01*
X782500Y816479D01*
Y811521D01*
X783276Y806624D01*
X784808Y801908D01*
X787059Y797490D01*
X789973Y793479D01*
X793479Y789973D01*
X797490Y787059D01*
X801908Y784808D01*
X806624Y783276D01*
X811521Y782500D01*
X816479D01*
X821376Y783276D01*
X826092Y784808D01*
X830510Y787059D01*
X834521Y789973D01*
X837134Y792586D01*
X838404Y792060D01*
Y781487D01*
X835778Y781228D01*
X831718Y779997D01*
X827976Y777997D01*
X824696Y775305D01*
X822004Y772025D01*
X820004Y768283D01*
X818773Y764223D01*
X818363Y760062D01*
X818363D01*
X818404Y758810D01*
Y420000D01*
X818356D01*
X818772Y415777D01*
X820003Y411717D01*
X822003Y407975D01*
X824695Y404695D01*
X827975Y402004D01*
X831717Y400003D01*
X835777Y398772D01*
X838404Y398513D01*
Y385940D01*
X837134Y385414D01*
X834521Y388027D01*
X830510Y390941D01*
X826092Y393192D01*
X821376Y394724D01*
X816479Y395500D01*
X811521D01*
X806624Y394724D01*
X801908Y393192D01*
X797490Y390941D01*
X793479Y388027D01*
X789973Y384521D01*
X787059Y380510D01*
X784808Y376092D01*
X783276Y371376D01*
X782500Y366479D01*
Y361521D01*
X783276Y356624D01*
X784808Y351908D01*
X787059Y347490D01*
X789973Y343479D01*
X793479Y339973D01*
X797490Y337059D01*
X801908Y334808D01*
X806624Y333276D01*
X811521Y332500D01*
X816479D01*
X821376Y333276D01*
X826092Y334808D01*
X830510Y337059D01*
X834521Y339973D01*
X837134Y342586D01*
X838404Y342060D01*
X838404Y277940D01*
X837134Y277414D01*
X834521Y280027D01*
X830510Y282941D01*
X826092Y285192D01*
X821376Y286724D01*
X816479Y287500D01*
X811521D01*
X806624Y286724D01*
X801908Y285192D01*
X797490Y282941D01*
X793479Y280027D01*
X789973Y276521D01*
X789416Y275754D01*
X762700D01*
X762569Y275700D01*
X761449D01*
X759033Y275053D01*
X756867Y273802D01*
X755098Y272033D01*
X754625Y271213D01*
X753355Y271553D01*
Y272897D01*
X753355Y272897D01*
X753122Y274068D01*
X752459Y275060D01*
X752459Y275061D01*
X744686Y282833D01*
X743694Y283496D01*
X742523Y283729D01*
X742523Y283729D01*
X642620D01*
X642620Y283729D01*
X641450Y283496D01*
X640457Y282833D01*
X640457Y282833D01*
X632813Y275188D01*
X632584Y275094D01*
X600303D01*
X599297Y275294D01*
X565200D01*
X563932Y275041D01*
X562857Y274323D01*
X553618Y265084D01*
X519306D01*
X518856Y265270D01*
X517464D01*
X516177Y264737D01*
X515193Y263753D01*
X514660Y262466D01*
Y261074D01*
X515193Y259787D01*
X516177Y258803D01*
X517464Y258270D01*
X518856D01*
X519306Y258456D01*
X554990D01*
X556258Y258709D01*
X557333Y259427D01*
X566573Y268666D01*
X598492D01*
X599497Y268466D01*
X632584D01*
X633034Y268280D01*
X634426D01*
X635713Y268813D01*
X636697Y269797D01*
X637138Y270863D01*
X643887Y277611D01*
X741256D01*
X747143Y271724D01*
X747040Y270869D01*
X745739Y270583D01*
X744902Y272033D01*
X743133Y273802D01*
X740967Y275053D01*
X738551Y275700D01*
X736049D01*
X733633Y275053D01*
X731467Y273802D01*
X729698Y272033D01*
X728447Y269867D01*
X727800Y267451D01*
Y264949D01*
X728447Y262533D01*
X728630Y262216D01*
X724997Y258584D01*
X620030D01*
X619707Y259042D01*
X619377Y259854D01*
X619422Y259962D01*
X619617Y260254D01*
X619686Y260599D01*
X619820Y260924D01*
Y261275D01*
X619889Y261620D01*
X619820Y261965D01*
Y262316D01*
X619686Y262641D01*
X619617Y262986D01*
X619422Y263278D01*
X619287Y263603D01*
X619039Y263851D01*
X618844Y264143D01*
X618551Y264339D01*
X618303Y264587D01*
X617978Y264722D01*
X617686Y264917D01*
X617341Y264986D01*
X617016Y265120D01*
X616665D01*
X616320Y265189D01*
X566720D01*
X565354Y264917D01*
X564197Y264143D01*
X552392Y252339D01*
X517040D01*
X516695Y252270D01*
X516344D01*
X516019Y252136D01*
X515674Y252067D01*
X515382Y251872D01*
X515057Y251737D01*
X514809Y251489D01*
X514517Y251293D01*
X514321Y251001D01*
X514073Y250753D01*
X513938Y250428D01*
X513743Y250136D01*
X513675Y249791D01*
X513540Y249466D01*
Y249115D01*
X513471Y248770D01*
X513540Y248425D01*
Y248074D01*
X513675Y247749D01*
X513743Y247404D01*
X513938Y247112D01*
X514073Y246787D01*
X513728Y245879D01*
X513445Y245564D01*
X441690D01*
X441117Y246787D01*
X441650Y248074D01*
Y249466D01*
X441117Y250753D01*
X440133Y251737D01*
X438846Y252270D01*
X437454D01*
X436167Y251737D01*
X435183Y250753D01*
X434650Y249466D01*
Y248074D01*
X435183Y246787D01*
X434610Y245564D01*
X365636D01*
X365186Y245751D01*
X363794D01*
X362508Y245218D01*
X361523Y244233D01*
X360990Y242947D01*
Y241554D01*
X361523Y240268D01*
X362508Y239283D01*
X363794Y238750D01*
X365186D01*
X365636Y238937D01*
X556305D01*
X556831Y237667D01*
X553672Y234509D01*
X450416D01*
X449966Y234695D01*
X448574D01*
X447287Y234162D01*
X446303Y233178D01*
X445770Y231891D01*
Y230499D01*
X446303Y229212D01*
X447287Y228228D01*
X448574Y227695D01*
X449966D01*
X450416Y227881D01*
X553779D01*
X554305Y226611D01*
X491546Y163853D01*
X279092D01*
X277726Y163581D01*
X276569Y162808D01*
X247667Y133906D01*
X247472Y133614D01*
X247223Y133365D01*
X247089Y133040D01*
X246893Y132748D01*
X246825Y132403D01*
X246690Y132079D01*
Y131727D01*
X246622Y131383D01*
X246690Y131038D01*
Y130686D01*
X246825Y130362D01*
X246893Y130017D01*
X247089Y129725D01*
X247223Y129400D01*
X247472Y129151D01*
X247667Y128859D01*
X247959Y128664D01*
X248208Y128415D01*
X248532Y128281D01*
X248825Y128086D01*
X249169Y128017D01*
X249494Y127882D01*
X249845D01*
X250190Y127814D01*
X250535Y127882D01*
X250886D01*
X251211Y128017D01*
X251556Y128086D01*
X251848Y128281D01*
X252173Y128415D01*
X252421Y128664D01*
X252714Y128859D01*
X280570Y156716D01*
X493024D01*
X494390Y156987D01*
X495547Y157761D01*
X576788Y239001D01*
X585374D01*
X585548Y238853D01*
X585949Y238232D01*
X586081Y237731D01*
X585983Y237586D01*
X585914Y237241D01*
X585780Y236916D01*
Y236565D01*
X585711Y236220D01*
Y190500D01*
X585983Y189134D01*
X586757Y187977D01*
X612657Y162077D01*
X613814Y161303D01*
X615180Y161031D01*
X728421D01*
X728447Y160933D01*
X729698Y158767D01*
X731467Y156998D01*
X733633Y155747D01*
X736049Y155100D01*
X738551D01*
X740967Y155747D01*
X743133Y156998D01*
X744902Y158767D01*
X746153Y160933D01*
X746800Y163349D01*
Y165851D01*
X746153Y168267D01*
X744902Y170433D01*
X743133Y172202D01*
X740967Y173453D01*
X738551Y174100D01*
X736049D01*
X733633Y173453D01*
X731467Y172202D01*
X729698Y170433D01*
X728447Y168267D01*
X728421Y168169D01*
X616658D01*
X592849Y191978D01*
Y236220D01*
X592780Y236565D01*
Y236916D01*
X592645Y237241D01*
X592577Y237586D01*
X592480Y237731D01*
X592611Y238232D01*
X593012Y238853D01*
X593186Y239001D01*
X622204D01*
X622378Y238853D01*
X622779Y238232D01*
X622910Y237731D01*
X622813Y237586D01*
X622744Y237241D01*
X622610Y236916D01*
Y236565D01*
X622541Y236220D01*
Y207010D01*
X622813Y205644D01*
X623587Y204487D01*
X640597Y187477D01*
X641754Y186703D01*
X643120Y186431D01*
X728421D01*
X728447Y186333D01*
X729698Y184167D01*
X731467Y182398D01*
X733633Y181147D01*
X736049Y180500D01*
X738551D01*
X740967Y181147D01*
X743133Y182398D01*
X744902Y184167D01*
X746153Y186333D01*
X746800Y188749D01*
Y191251D01*
X746153Y193667D01*
X744902Y195833D01*
X743133Y197602D01*
X740967Y198853D01*
X738551Y199500D01*
X736049D01*
X733633Y198853D01*
X731467Y197602D01*
X729698Y195833D01*
X728447Y193667D01*
X728421Y193569D01*
X644598D01*
X629679Y208488D01*
Y236220D01*
X629610Y236565D01*
Y236916D01*
X629476Y237241D01*
X629407Y237586D01*
X629310Y237731D01*
X629441Y238232D01*
X629842Y238853D01*
X630016Y239001D01*
X727947D01*
X728447Y237133D01*
X729698Y234967D01*
X731467Y233198D01*
X733633Y231947D01*
X736049Y231300D01*
X738551D01*
X740967Y231947D01*
X743133Y233198D01*
X744902Y234967D01*
X745967Y236812D01*
X747237Y236472D01*
Y227804D01*
X747237Y227804D01*
X747470Y226634D01*
X748133Y225641D01*
X754162Y219612D01*
X753847Y219067D01*
X753200Y216651D01*
Y214149D01*
X753847Y211733D01*
X755098Y209567D01*
X756867Y207798D01*
X759033Y206547D01*
X761449Y205900D01*
X763951D01*
X766367Y206547D01*
X768533Y207798D01*
X770302Y209567D01*
X771553Y211733D01*
X772200Y214149D01*
Y216651D01*
X771553Y219067D01*
X770302Y221233D01*
X768533Y223002D01*
X766367Y224253D01*
X763951Y224900D01*
X761449D01*
X759033Y224253D01*
X758488Y223938D01*
X753355Y229071D01*
Y235447D01*
X754625Y235787D01*
X755098Y234967D01*
X756867Y233198D01*
X759033Y231947D01*
X761449Y231300D01*
X763951D01*
X766367Y231947D01*
X768533Y233198D01*
X770302Y234967D01*
X771553Y237133D01*
X772200Y239549D01*
Y242051D01*
X771553Y244467D01*
X770302Y246633D01*
X768533Y248402D01*
X766367Y249653D01*
X763951Y250300D01*
X761449D01*
X759033Y249653D01*
X756867Y248402D01*
X755098Y246633D01*
X754625Y245813D01*
X753355Y246153D01*
Y260847D01*
X754625Y261187D01*
X755098Y260367D01*
X756867Y258598D01*
X759033Y257347D01*
X761449Y256700D01*
X762173D01*
X762700Y256482D01*
X782500D01*
Y253521D01*
X783276Y248624D01*
X784808Y243908D01*
X787059Y239490D01*
X789973Y235479D01*
X793479Y231973D01*
X797490Y229059D01*
X801908Y226808D01*
X806624Y225276D01*
X811521Y224500D01*
X816479D01*
X821376Y225276D01*
X826092Y226808D01*
X830510Y229059D01*
X834521Y231973D01*
X837134Y234586D01*
X838404Y234060D01*
X838404Y57940D01*
X837134Y57414D01*
X834521Y60027D01*
X830510Y62941D01*
X826092Y65192D01*
X821376Y66724D01*
X816479Y67500D01*
X811521D01*
X806624Y66724D01*
X801908Y65192D01*
X797490Y62941D01*
X793479Y60027D01*
X789973Y56521D01*
X787059Y52510D01*
X784808Y48092D01*
X783276Y43376D01*
X782500Y38479D01*
Y33521D01*
X783276Y28624D01*
X784808Y23908D01*
X787059Y19490D01*
X789973Y15479D01*
X792586Y12866D01*
X792060Y11596D01*
X456997Y11596D01*
X456224Y12604D01*
X456780Y14678D01*
X457333Y18881D01*
Y23119D01*
X456780Y27322D01*
X455683Y31416D01*
X454061Y35331D01*
X451942Y39002D01*
X449362Y42365D01*
X446365Y45362D01*
X443002Y47942D01*
X439331Y50061D01*
X435416Y51683D01*
X431321Y52780D01*
X427119Y53334D01*
X422881D01*
X418679Y52780D01*
X414584Y51683D01*
X410668Y50061D01*
X406998Y47942D01*
X403635Y45362D01*
X400638Y42365D01*
X398058Y39002D01*
X395939Y35331D01*
X394317Y31416D01*
X393220Y27322D01*
X392666Y23119D01*
Y18881D01*
X393220Y14678D01*
X393776Y12604D01*
X393003Y11596D01*
X57940Y11596D01*
X57414Y12866D01*
X60027Y15479D01*
X62941Y19490D01*
X65192Y23908D01*
X66724Y28624D01*
X67500Y33521D01*
Y38479D01*
X66724Y43376D01*
X65192Y48092D01*
X62941Y52510D01*
X60027Y56521D01*
X56521Y60027D01*
X52510Y62941D01*
X48092Y65192D01*
X43376Y66724D01*
X38479Y67500D01*
X33521D01*
X28624Y66724D01*
X23908Y65192D01*
X19490Y62941D01*
X15479Y60027D01*
X12866Y57414D01*
X11596Y57940D01*
X11596Y234060D01*
X12866Y234586D01*
X15479Y231973D01*
X19490Y229059D01*
X23908Y226808D01*
X28624Y225276D01*
X33521Y224500D01*
X38479D01*
X43376Y225276D01*
X48092Y226808D01*
X52510Y229059D01*
X56521Y231973D01*
X60027Y235479D01*
X62941Y239490D01*
X65192Y243908D01*
X66724Y248624D01*
X67500Y253521D01*
Y258479D01*
X66724Y263376D01*
X65192Y268092D01*
X62941Y272510D01*
X60027Y276521D01*
X56521Y280027D01*
X52510Y282941D01*
X48092Y285192D01*
X43376Y286724D01*
X38479Y287500D01*
X33521D01*
X28624Y286724D01*
X23908Y285192D01*
X19490Y282941D01*
X15479Y280027D01*
X12866Y277414D01*
X11596Y277940D01*
Y342060D01*
X12866Y342586D01*
X15479Y339973D01*
X19490Y337059D01*
X23908Y334808D01*
X28624Y333276D01*
X33521Y332500D01*
X38479D01*
X43376Y333276D01*
X48092Y334808D01*
X52510Y337059D01*
X56521Y339973D01*
X60027Y343479D01*
X62941Y347490D01*
X65192Y351908D01*
X66724Y356624D01*
X67500Y361521D01*
Y366479D01*
X66724Y371376D01*
X65192Y376092D01*
X62941Y380510D01*
X60027Y384521D01*
X56521Y388027D01*
X52510Y390941D01*
X48092Y393192D01*
X43376Y394724D01*
X38479Y395500D01*
X33521D01*
X28624Y394724D01*
X23908Y393192D01*
X19490Y390941D01*
X15479Y388027D01*
X12866Y385414D01*
X11596Y385940D01*
Y390943D01*
X14223Y391202D01*
X18283Y392433D01*
X22025Y394434D01*
X25305Y397125D01*
X27997Y400405D01*
X29997Y404147D01*
X31228Y408207D01*
X31644Y412430D01*
X31596D01*
Y766130D01*
X31644D01*
X31228Y770353D01*
X29997Y774413D01*
X28294Y777599D01*
Y782102D01*
X29564Y783127D01*
X33521Y782500D01*
X38479D01*
X43376Y783276D01*
X48092Y784808D01*
X52510Y787059D01*
X56521Y789973D01*
X60027Y793479D01*
X62941Y797490D01*
X65192Y801908D01*
X66724Y806624D01*
X67500Y811521D01*
Y816479D01*
X66724Y821376D01*
X65192Y826092D01*
X62941Y830510D01*
X60027Y834521D01*
X57414Y837134D01*
X57940Y838404D01*
X78733Y838404D01*
X80003Y838378D01*
X80003Y838378D01*
X80910Y838198D01*
X81682Y837682D01*
X82039Y837147D01*
X82336Y836000D01*
X82337Y836000D01*
X82830Y830993D01*
X84290Y826179D01*
X86662Y821742D01*
X89853Y817853D01*
X93742Y814661D01*
X98179Y812290D01*
X102993Y810830D01*
X108000Y810337D01*
Y810404D01*
X405300D01*
Y810337D01*
X410307Y810830D01*
X415121Y812290D01*
X419558Y814661D01*
X423447Y817853D01*
X426638Y821742D01*
X429010Y826179D01*
X430470Y830993D01*
X430964Y836000D01*
X430964D01*
X431261Y837147D01*
X431618Y837682D01*
X432390Y838198D01*
X433300Y838379D01*
Y838404D01*
X434894D01*
X435743Y837134D01*
X434617Y834416D01*
X433520Y830322D01*
X432966Y826119D01*
Y821881D01*
X433520Y817679D01*
X434617Y813584D01*
X436239Y809669D01*
X438358Y805998D01*
X440938Y802635D01*
X443935Y799638D01*
X447298Y797058D01*
X450969Y794939D01*
X454884Y793317D01*
X458979Y792220D01*
X463181Y791666D01*
X467419D01*
X471622Y792220D01*
X475716Y793317D01*
X479632Y794939D01*
X483302Y797058D01*
X486665Y799638D01*
X489662Y802635D01*
X492242Y805998D01*
X494361Y809669D01*
X495983Y813584D01*
X497080Y817679D01*
X497634Y821881D01*
Y826119D01*
X497080Y830322D01*
X495983Y834416D01*
X494857Y837134D01*
X495706Y838404D01*
X497300D01*
Y838379D01*
X498210Y838198D01*
X498982Y837682D01*
X499339Y837147D01*
X499636Y836000D01*
X499636Y836000D01*
X500130Y830993D01*
X501590Y826179D01*
X503961Y821742D01*
X507153Y817853D01*
X511042Y814661D01*
X515479Y812290D01*
X520293Y810830D01*
X525300Y810337D01*
Y810404D01*
X742000D01*
Y810337D01*
X747007Y810830D01*
X751821Y812290D01*
X756258Y814661D01*
X760147Y817853D01*
X763338Y821742D01*
X765710Y826179D01*
X767170Y830993D01*
X767663Y836000D01*
X767664D01*
X767961Y837147D01*
X768318Y837682D01*
X769090Y838198D01*
X770000Y838379D01*
Y838404D01*
X792060D01*
X792586Y837134D01*
D02*
G37*
G36*
X747237Y261872D02*
Y245128D01*
X745967Y244788D01*
X744902Y246633D01*
X743133Y248402D01*
X740967Y249653D01*
X738551Y250300D01*
X736049D01*
X733633Y249653D01*
X731467Y248402D01*
X729698Y246633D01*
X729413Y246139D01*
X722648D01*
X721982Y247409D01*
X722320Y248224D01*
Y249616D01*
X721877Y250686D01*
X722206Y251498D01*
X722530Y251956D01*
X726370D01*
X727638Y252209D01*
X728713Y252927D01*
X733316Y257530D01*
X733633Y257347D01*
X736049Y256700D01*
X738551D01*
X740967Y257347D01*
X743133Y258598D01*
X744902Y260367D01*
X745967Y262212D01*
X747237Y261872D01*
D02*
G37*
%LPC*%
G36*
X715211Y807014D02*
X713819D01*
X712532Y806481D01*
X711548Y805497D01*
X711015Y804211D01*
Y802818D01*
X711548Y801532D01*
X712532Y800547D01*
X713819Y800014D01*
X715211D01*
X716498Y800547D01*
X717482Y801532D01*
X718015Y802818D01*
Y804211D01*
X717482Y805497D01*
X716498Y806481D01*
X715211Y807014D01*
D02*
G37*
G36*
X702211Y801489D02*
X700819D01*
X699532Y800956D01*
X698548Y799972D01*
X698015Y798685D01*
Y797293D01*
X698548Y796006D01*
X699532Y795022D01*
X700819Y794489D01*
X702211D01*
X703498Y795022D01*
X704482Y796006D01*
X705015Y797293D01*
Y798685D01*
X704482Y799972D01*
X703498Y800956D01*
X702211Y801489D01*
D02*
G37*
G36*
X663211Y784550D02*
X661819D01*
X660532Y784017D01*
X659548Y783033D01*
X659015Y781746D01*
Y780354D01*
X659548Y779067D01*
X660532Y778083D01*
X661819Y777550D01*
X663211D01*
X664498Y778083D01*
X665482Y779067D01*
X666015Y780354D01*
Y781746D01*
X665482Y783033D01*
X664498Y784017D01*
X663211Y784550D01*
D02*
G37*
G36*
X689211Y777148D02*
X687819D01*
X686532Y776616D01*
X685548Y775631D01*
X685015Y774344D01*
Y772952D01*
X685548Y771666D01*
X686532Y770681D01*
X687819Y770148D01*
X689211D01*
X690498Y770681D01*
X691482Y771666D01*
X692015Y772952D01*
Y774344D01*
X691482Y775631D01*
X690498Y776616D01*
X689211Y777148D01*
D02*
G37*
G36*
X676211Y771581D02*
X674819D01*
X673532Y771049D01*
X672548Y770064D01*
X672015Y768778D01*
Y767385D01*
X672548Y766099D01*
X673532Y765114D01*
X674819Y764582D01*
X676211D01*
X677498Y765114D01*
X678482Y766099D01*
X679015Y767385D01*
Y768778D01*
X678482Y770064D01*
X677498Y771049D01*
X676211Y771581D01*
D02*
G37*
G36*
X715211Y743910D02*
X713819D01*
X712532Y743377D01*
X711548Y742393D01*
X711015Y741106D01*
Y739714D01*
X711548Y738427D01*
X712532Y737443D01*
X713819Y736910D01*
X715211D01*
X716498Y737443D01*
X717482Y738427D01*
X718015Y739714D01*
Y741106D01*
X717482Y742393D01*
X716498Y743377D01*
X715211Y743910D01*
D02*
G37*
G36*
X702211D02*
X700819D01*
X699532Y743377D01*
X698548Y742393D01*
X698015Y741106D01*
Y739714D01*
X698548Y738427D01*
X699532Y737443D01*
X700819Y736910D01*
X702211D01*
X703498Y737443D01*
X704482Y738427D01*
X705015Y739714D01*
Y741106D01*
X704482Y742393D01*
X703498Y743377D01*
X702211Y743910D01*
D02*
G37*
G36*
X568956Y734200D02*
X567244D01*
X565591Y733757D01*
X564109Y732901D01*
X562899Y731691D01*
X562043Y730209D01*
X561600Y728556D01*
Y726844D01*
X562043Y725191D01*
X562899Y723709D01*
X564109Y722499D01*
X565591Y721643D01*
X567244Y721200D01*
X568956D01*
X570609Y721643D01*
X572091Y722499D01*
X573301Y723709D01*
X574157Y725191D01*
X574600Y726844D01*
Y728556D01*
X574157Y730209D01*
X573301Y731691D01*
X572091Y732901D01*
X570609Y733757D01*
X568956Y734200D01*
D02*
G37*
G36*
X475616D02*
X473904D01*
X472251Y733757D01*
X470769Y732901D01*
X469559Y731691D01*
X468703Y730209D01*
X468260Y728556D01*
Y726844D01*
X468703Y725191D01*
X469559Y723709D01*
X470769Y722499D01*
X472251Y721643D01*
X473904Y721200D01*
X475616D01*
X477269Y721643D01*
X478751Y722499D01*
X479961Y723709D01*
X480817Y725191D01*
X481260Y726844D01*
Y728556D01*
X480817Y730209D01*
X479961Y731691D01*
X478751Y732901D01*
X477269Y733757D01*
X475616Y734200D01*
D02*
G37*
G36*
X382276D02*
X380564D01*
X378911Y733757D01*
X377429Y732901D01*
X376219Y731691D01*
X375363Y730209D01*
X374920Y728556D01*
Y726844D01*
X375363Y725191D01*
X376219Y723709D01*
X377429Y722499D01*
X378911Y721643D01*
X380564Y721200D01*
X382276D01*
X383929Y721643D01*
X385411Y722499D01*
X386621Y723709D01*
X387477Y725191D01*
X387920Y726844D01*
Y728556D01*
X387477Y730209D01*
X386621Y731691D01*
X385411Y732901D01*
X383929Y733757D01*
X382276Y734200D01*
D02*
G37*
G36*
X288936D02*
X287224D01*
X285571Y733757D01*
X284089Y732901D01*
X282879Y731691D01*
X282023Y730209D01*
X281580Y728556D01*
Y726844D01*
X282023Y725191D01*
X282879Y723709D01*
X284089Y722499D01*
X285571Y721643D01*
X287224Y721200D01*
X288936D01*
X290589Y721643D01*
X292071Y722499D01*
X293281Y723709D01*
X294137Y725191D01*
X294580Y726844D01*
Y728556D01*
X294137Y730209D01*
X293281Y731691D01*
X292071Y732901D01*
X290589Y733757D01*
X288936Y734200D01*
D02*
G37*
G36*
X195596D02*
X193884D01*
X192231Y733757D01*
X190749Y732901D01*
X189539Y731691D01*
X188683Y730209D01*
X188240Y728556D01*
Y726844D01*
X188683Y725191D01*
X189539Y723709D01*
X190749Y722499D01*
X192231Y721643D01*
X193884Y721200D01*
X195596D01*
X197249Y721643D01*
X198731Y722499D01*
X199941Y723709D01*
X200797Y725191D01*
X201240Y726844D01*
Y728556D01*
X200797Y730209D01*
X199941Y731691D01*
X198731Y732901D01*
X197249Y733757D01*
X195596Y734200D01*
D02*
G37*
G36*
X102256D02*
X100544D01*
X98891Y733757D01*
X97409Y732901D01*
X96199Y731691D01*
X95343Y730209D01*
X94900Y728556D01*
Y726844D01*
X95343Y725191D01*
X96199Y723709D01*
X97409Y722499D01*
X98891Y721643D01*
X100544Y721200D01*
X102256D01*
X103909Y721643D01*
X105391Y722499D01*
X106601Y723709D01*
X107457Y725191D01*
X107900Y726844D01*
Y728556D01*
X107457Y730209D01*
X106601Y731691D01*
X105391Y732901D01*
X103909Y733757D01*
X102256Y734200D01*
D02*
G37*
G36*
X715298Y723085D02*
X713906D01*
X712620Y722552D01*
X711635Y721567D01*
X711102Y720281D01*
Y718889D01*
X711635Y717602D01*
X712620Y716618D01*
X713906Y716085D01*
X715298D01*
X716585Y716618D01*
X717569Y717602D01*
X718102Y718889D01*
Y720281D01*
X717569Y721567D01*
X716585Y722552D01*
X715298Y723085D01*
D02*
G37*
G36*
X702312Y717450D02*
X700920D01*
X699633Y716917D01*
X698649Y715932D01*
X698116Y714646D01*
Y713253D01*
X698649Y711967D01*
X699633Y710983D01*
X700920Y710450D01*
X702312D01*
X703599Y710983D01*
X704583Y711967D01*
X705116Y713253D01*
Y714646D01*
X704583Y715932D01*
X703599Y716917D01*
X702312Y717450D01*
D02*
G37*
G36*
X581656Y721500D02*
X579944D01*
X578291Y721057D01*
X576809Y720201D01*
X575599Y718991D01*
X574743Y717509D01*
X574300Y715856D01*
Y714144D01*
X574743Y712491D01*
X575599Y711009D01*
X576809Y709799D01*
X578291Y708943D01*
X579944Y708500D01*
X581656D01*
X583309Y708943D01*
X584791Y709799D01*
X586001Y711009D01*
X586857Y712491D01*
X587300Y714144D01*
Y715856D01*
X586857Y717509D01*
X586001Y718991D01*
X584791Y720201D01*
X583309Y721057D01*
X581656Y721500D01*
D02*
G37*
G36*
X556256D02*
X554544D01*
X552891Y721057D01*
X551409Y720201D01*
X550199Y718991D01*
X549343Y717509D01*
X548900Y715856D01*
Y714144D01*
X549343Y712491D01*
X550199Y711009D01*
X551409Y709799D01*
X552891Y708943D01*
X554544Y708500D01*
X556256D01*
X557909Y708943D01*
X559391Y709799D01*
X560601Y711009D01*
X561457Y712491D01*
X561900Y714144D01*
Y715856D01*
X561457Y717509D01*
X560601Y718991D01*
X559391Y720201D01*
X557909Y721057D01*
X556256Y721500D01*
D02*
G37*
G36*
X488316D02*
X486604D01*
X484951Y721057D01*
X483469Y720201D01*
X482259Y718991D01*
X481403Y717509D01*
X480960Y715856D01*
Y714144D01*
X481403Y712491D01*
X482259Y711009D01*
X483469Y709799D01*
X484951Y708943D01*
X486604Y708500D01*
X488316D01*
X489969Y708943D01*
X491451Y709799D01*
X492661Y711009D01*
X493517Y712491D01*
X493960Y714144D01*
Y715856D01*
X493517Y717509D01*
X492661Y718991D01*
X491451Y720201D01*
X489969Y721057D01*
X488316Y721500D01*
D02*
G37*
G36*
X462916D02*
X461204D01*
X459551Y721057D01*
X458069Y720201D01*
X456859Y718991D01*
X456003Y717509D01*
X455560Y715856D01*
Y714144D01*
X456003Y712491D01*
X456859Y711009D01*
X458069Y709799D01*
X459551Y708943D01*
X461204Y708500D01*
X462916D01*
X464569Y708943D01*
X466051Y709799D01*
X467261Y711009D01*
X468117Y712491D01*
X468560Y714144D01*
Y715856D01*
X468117Y717509D01*
X467261Y718991D01*
X466051Y720201D01*
X464569Y721057D01*
X462916Y721500D01*
D02*
G37*
G36*
X394976D02*
X393264D01*
X391611Y721057D01*
X390129Y720201D01*
X388919Y718991D01*
X388063Y717509D01*
X387620Y715856D01*
Y714144D01*
X388063Y712491D01*
X388919Y711009D01*
X390129Y709799D01*
X391611Y708943D01*
X393264Y708500D01*
X394976D01*
X396629Y708943D01*
X398111Y709799D01*
X399321Y711009D01*
X400177Y712491D01*
X400620Y714144D01*
Y715856D01*
X400177Y717509D01*
X399321Y718991D01*
X398111Y720201D01*
X396629Y721057D01*
X394976Y721500D01*
D02*
G37*
G36*
X369576D02*
X367864D01*
X366211Y721057D01*
X364729Y720201D01*
X363519Y718991D01*
X362663Y717509D01*
X362220Y715856D01*
Y714144D01*
X362663Y712491D01*
X363519Y711009D01*
X364729Y709799D01*
X366211Y708943D01*
X367864Y708500D01*
X369576D01*
X371229Y708943D01*
X372711Y709799D01*
X373921Y711009D01*
X374777Y712491D01*
X375220Y714144D01*
Y715856D01*
X374777Y717509D01*
X373921Y718991D01*
X372711Y720201D01*
X371229Y721057D01*
X369576Y721500D01*
D02*
G37*
G36*
X301636D02*
X299924D01*
X298271Y721057D01*
X296789Y720201D01*
X295579Y718991D01*
X294723Y717509D01*
X294280Y715856D01*
Y714144D01*
X294723Y712491D01*
X295579Y711009D01*
X296789Y709799D01*
X298271Y708943D01*
X299924Y708500D01*
X301636D01*
X303289Y708943D01*
X304771Y709799D01*
X305981Y711009D01*
X306837Y712491D01*
X307280Y714144D01*
Y715856D01*
X306837Y717509D01*
X305981Y718991D01*
X304771Y720201D01*
X303289Y721057D01*
X301636Y721500D01*
D02*
G37*
G36*
X276236D02*
X274524D01*
X272871Y721057D01*
X271389Y720201D01*
X270179Y718991D01*
X269323Y717509D01*
X268880Y715856D01*
Y714144D01*
X269323Y712491D01*
X270179Y711009D01*
X271389Y709799D01*
X272871Y708943D01*
X274524Y708500D01*
X276236D01*
X277889Y708943D01*
X279371Y709799D01*
X280581Y711009D01*
X281437Y712491D01*
X281880Y714144D01*
Y715856D01*
X281437Y717509D01*
X280581Y718991D01*
X279371Y720201D01*
X277889Y721057D01*
X276236Y721500D01*
D02*
G37*
G36*
X208296D02*
X206584D01*
X204931Y721057D01*
X203449Y720201D01*
X202239Y718991D01*
X201383Y717509D01*
X200940Y715856D01*
Y714144D01*
X201383Y712491D01*
X202239Y711009D01*
X203449Y709799D01*
X204931Y708943D01*
X206584Y708500D01*
X208296D01*
X209949Y708943D01*
X211431Y709799D01*
X212641Y711009D01*
X213497Y712491D01*
X213940Y714144D01*
Y715856D01*
X213497Y717509D01*
X212641Y718991D01*
X211431Y720201D01*
X209949Y721057D01*
X208296Y721500D01*
D02*
G37*
G36*
X182896D02*
X181184D01*
X179531Y721057D01*
X178049Y720201D01*
X176839Y718991D01*
X175983Y717509D01*
X175540Y715856D01*
Y714144D01*
X175983Y712491D01*
X176839Y711009D01*
X178049Y709799D01*
X179531Y708943D01*
X181184Y708500D01*
X182896D01*
X184549Y708943D01*
X186031Y709799D01*
X187241Y711009D01*
X188097Y712491D01*
X188540Y714144D01*
Y715856D01*
X188097Y717509D01*
X187241Y718991D01*
X186031Y720201D01*
X184549Y721057D01*
X182896Y721500D01*
D02*
G37*
G36*
X114956D02*
X113244D01*
X111591Y721057D01*
X110109Y720201D01*
X108899Y718991D01*
X108043Y717509D01*
X107600Y715856D01*
Y714144D01*
X108043Y712491D01*
X108899Y711009D01*
X110109Y709799D01*
X111591Y708943D01*
X113244Y708500D01*
X114956D01*
X116609Y708943D01*
X118091Y709799D01*
X119301Y711009D01*
X120157Y712491D01*
X120600Y714144D01*
Y715856D01*
X120157Y717509D01*
X119301Y718991D01*
X118091Y720201D01*
X116609Y721057D01*
X114956Y721500D01*
D02*
G37*
G36*
X89556D02*
X87844D01*
X86191Y721057D01*
X84709Y720201D01*
X83499Y718991D01*
X82643Y717509D01*
X82200Y715856D01*
Y714144D01*
X82643Y712491D01*
X83499Y711009D01*
X84709Y709799D01*
X86191Y708943D01*
X87844Y708500D01*
X89556D01*
X91209Y708943D01*
X92691Y709799D01*
X93901Y711009D01*
X94757Y712491D01*
X95200Y714144D01*
Y715856D01*
X94757Y717509D01*
X93901Y718991D01*
X92691Y720201D01*
X91209Y721057D01*
X89556Y721500D01*
D02*
G37*
G36*
X568956Y708800D02*
X567244D01*
X565591Y708357D01*
X564109Y707501D01*
X562899Y706291D01*
X562043Y704809D01*
X561600Y703156D01*
Y701444D01*
X562043Y699791D01*
X562899Y698309D01*
X564109Y697099D01*
X565591Y696243D01*
X567244Y695800D01*
X568956D01*
X570609Y696243D01*
X572091Y697099D01*
X573301Y698309D01*
X574157Y699791D01*
X574600Y701444D01*
Y703156D01*
X574157Y704809D01*
X573301Y706291D01*
X572091Y707501D01*
X570609Y708357D01*
X568956Y708800D01*
D02*
G37*
G36*
X475616D02*
X473904D01*
X472251Y708357D01*
X470769Y707501D01*
X469559Y706291D01*
X468703Y704809D01*
X468260Y703156D01*
Y701444D01*
X468703Y699791D01*
X469559Y698309D01*
X470769Y697099D01*
X472251Y696243D01*
X473904Y695800D01*
X475616D01*
X477269Y696243D01*
X478751Y697099D01*
X479961Y698309D01*
X480817Y699791D01*
X481260Y701444D01*
Y703156D01*
X480817Y704809D01*
X479961Y706291D01*
X478751Y707501D01*
X477269Y708357D01*
X475616Y708800D01*
D02*
G37*
G36*
X382276D02*
X380564D01*
X378911Y708357D01*
X377429Y707501D01*
X376219Y706291D01*
X375363Y704809D01*
X374920Y703156D01*
Y701444D01*
X375363Y699791D01*
X376219Y698309D01*
X377429Y697099D01*
X378911Y696243D01*
X380564Y695800D01*
X382276D01*
X383929Y696243D01*
X385411Y697099D01*
X386621Y698309D01*
X387477Y699791D01*
X387920Y701444D01*
Y703156D01*
X387477Y704809D01*
X386621Y706291D01*
X385411Y707501D01*
X383929Y708357D01*
X382276Y708800D01*
D02*
G37*
G36*
X288936D02*
X287224D01*
X285571Y708357D01*
X284089Y707501D01*
X282879Y706291D01*
X282023Y704809D01*
X281580Y703156D01*
Y701444D01*
X282023Y699791D01*
X282879Y698309D01*
X284089Y697099D01*
X285571Y696243D01*
X287224Y695800D01*
X288936D01*
X290589Y696243D01*
X292071Y697099D01*
X293281Y698309D01*
X294137Y699791D01*
X294580Y701444D01*
Y703156D01*
X294137Y704809D01*
X293281Y706291D01*
X292071Y707501D01*
X290589Y708357D01*
X288936Y708800D01*
D02*
G37*
G36*
X195596D02*
X193884D01*
X192231Y708357D01*
X190749Y707501D01*
X189539Y706291D01*
X188683Y704809D01*
X188240Y703156D01*
Y701444D01*
X188683Y699791D01*
X189539Y698309D01*
X190749Y697099D01*
X192231Y696243D01*
X193884Y695800D01*
X195596D01*
X197249Y696243D01*
X198731Y697099D01*
X199941Y698309D01*
X200797Y699791D01*
X201240Y701444D01*
Y703156D01*
X200797Y704809D01*
X199941Y706291D01*
X198731Y707501D01*
X197249Y708357D01*
X195596Y708800D01*
D02*
G37*
G36*
X102256D02*
X100544D01*
X98891Y708357D01*
X97409Y707501D01*
X96199Y706291D01*
X95343Y704809D01*
X94900Y703156D01*
Y701444D01*
X95343Y699791D01*
X96199Y698309D01*
X97409Y697099D01*
X98891Y696243D01*
X100544Y695800D01*
X102256D01*
X103909Y696243D01*
X105391Y697099D01*
X106601Y698309D01*
X107457Y699791D01*
X107900Y701444D01*
Y703156D01*
X107457Y704809D01*
X106601Y706291D01*
X105391Y707501D01*
X103909Y708357D01*
X102256Y708800D01*
D02*
G37*
G36*
X689191Y700483D02*
X687798D01*
X686512Y699950D01*
X685527Y698966D01*
X684994Y697679D01*
Y696287D01*
X685527Y695001D01*
X686512Y694016D01*
X687798Y693483D01*
X689191D01*
X690477Y694016D01*
X691461Y695001D01*
X691994Y696287D01*
Y697679D01*
X691461Y698966D01*
X690477Y699950D01*
X689191Y700483D01*
D02*
G37*
G36*
X676256Y694758D02*
X674863D01*
X673577Y694225D01*
X672592Y693241D01*
X672059Y691954D01*
Y690562D01*
X672592Y689275D01*
X673577Y688291D01*
X674863Y687758D01*
X676256D01*
X677542Y688291D01*
X678527Y689275D01*
X679059Y690562D01*
Y691954D01*
X678527Y693241D01*
X677542Y694225D01*
X676256Y694758D01*
D02*
G37*
G36*
X755076Y694480D02*
X753684D01*
X752397Y693947D01*
X751413Y692963D01*
X750880Y691676D01*
Y690284D01*
X751413Y688998D01*
X752397Y688013D01*
X753684Y687480D01*
X755076D01*
X756363Y688013D01*
X757347Y688998D01*
X757880Y690284D01*
Y691676D01*
X757347Y692963D01*
X756363Y693947D01*
X755076Y694480D01*
D02*
G37*
G36*
X776666Y668980D02*
X775274D01*
X773987Y668447D01*
X773003Y667463D01*
X772470Y666176D01*
Y664784D01*
X773003Y663497D01*
X773987Y662513D01*
X775274Y661980D01*
X776666D01*
X777953Y662513D01*
X778937Y663497D01*
X779470Y664784D01*
Y666176D01*
X778937Y667463D01*
X777953Y668447D01*
X776666Y668980D01*
D02*
G37*
G36*
X715211Y662869D02*
X713819D01*
X712532Y662337D01*
X711548Y661352D01*
X711015Y660066D01*
Y658673D01*
X711548Y657387D01*
X712532Y656402D01*
X713819Y655870D01*
X715211D01*
X716498Y656402D01*
X717482Y657387D01*
X718015Y658673D01*
Y660066D01*
X717482Y661352D01*
X716498Y662337D01*
X715211Y662869D01*
D02*
G37*
G36*
X702211D02*
X700819D01*
X699532Y662337D01*
X698548Y661352D01*
X698015Y660066D01*
Y658673D01*
X698548Y657387D01*
X699532Y656402D01*
X700819Y655870D01*
X702211D01*
X703498Y656402D01*
X704482Y657387D01*
X705015Y658673D01*
Y660066D01*
X704482Y661352D01*
X703498Y662337D01*
X702211Y662869D01*
D02*
G37*
G36*
X784286Y656980D02*
X782894D01*
X781607Y656447D01*
X780623Y655463D01*
X780090Y654176D01*
Y652784D01*
X780623Y651498D01*
X781607Y650513D01*
X782894Y649980D01*
X784286D01*
X785573Y650513D01*
X786557Y651498D01*
X787090Y652784D01*
Y654176D01*
X786557Y655463D01*
X785573Y656447D01*
X784286Y656980D01*
D02*
G37*
G36*
X568956Y662200D02*
X567244D01*
X565591Y661757D01*
X564109Y660901D01*
X562899Y659691D01*
X562043Y658209D01*
X561600Y656556D01*
Y654844D01*
X562043Y653191D01*
X562899Y651709D01*
X564109Y650499D01*
X565591Y649643D01*
X567244Y649200D01*
X568956D01*
X570609Y649643D01*
X572091Y650499D01*
X573301Y651709D01*
X574157Y653191D01*
X574600Y654844D01*
Y656556D01*
X574157Y658209D01*
X573301Y659691D01*
X572091Y660901D01*
X570609Y661757D01*
X568956Y662200D01*
D02*
G37*
G36*
X475616D02*
X473904D01*
X472251Y661757D01*
X470769Y660901D01*
X469559Y659691D01*
X468703Y658209D01*
X468260Y656556D01*
Y654844D01*
X468703Y653191D01*
X469559Y651709D01*
X470769Y650499D01*
X472251Y649643D01*
X473904Y649200D01*
X475616D01*
X477269Y649643D01*
X478751Y650499D01*
X479961Y651709D01*
X480817Y653191D01*
X481260Y654844D01*
Y656556D01*
X480817Y658209D01*
X479961Y659691D01*
X478751Y660901D01*
X477269Y661757D01*
X475616Y662200D01*
D02*
G37*
G36*
X382276D02*
X380564D01*
X378911Y661757D01*
X377429Y660901D01*
X376219Y659691D01*
X375363Y658209D01*
X374920Y656556D01*
Y654844D01*
X375363Y653191D01*
X376219Y651709D01*
X377429Y650499D01*
X378911Y649643D01*
X380564Y649200D01*
X382276D01*
X383929Y649643D01*
X385411Y650499D01*
X386621Y651709D01*
X387477Y653191D01*
X387920Y654844D01*
Y656556D01*
X387477Y658209D01*
X386621Y659691D01*
X385411Y660901D01*
X383929Y661757D01*
X382276Y662200D01*
D02*
G37*
G36*
X288936D02*
X287224D01*
X285571Y661757D01*
X284089Y660901D01*
X282879Y659691D01*
X282023Y658209D01*
X281580Y656556D01*
Y654844D01*
X282023Y653191D01*
X282879Y651709D01*
X284089Y650499D01*
X285571Y649643D01*
X287224Y649200D01*
X288936D01*
X290589Y649643D01*
X292071Y650499D01*
X293281Y651709D01*
X294137Y653191D01*
X294580Y654844D01*
Y656556D01*
X294137Y658209D01*
X293281Y659691D01*
X292071Y660901D01*
X290589Y661757D01*
X288936Y662200D01*
D02*
G37*
G36*
X195596D02*
X193884D01*
X192231Y661757D01*
X190749Y660901D01*
X189539Y659691D01*
X188683Y658209D01*
X188240Y656556D01*
Y654844D01*
X188683Y653191D01*
X189539Y651709D01*
X190749Y650499D01*
X192231Y649643D01*
X193884Y649200D01*
X195596D01*
X197249Y649643D01*
X198731Y650499D01*
X199941Y651709D01*
X200797Y653191D01*
X201240Y654844D01*
Y656556D01*
X200797Y658209D01*
X199941Y659691D01*
X198731Y660901D01*
X197249Y661757D01*
X195596Y662200D01*
D02*
G37*
G36*
X102256D02*
X100544D01*
X98891Y661757D01*
X97409Y660901D01*
X96199Y659691D01*
X95343Y658209D01*
X94900Y656556D01*
Y654844D01*
X95343Y653191D01*
X96199Y651709D01*
X97409Y650499D01*
X98891Y649643D01*
X100544Y649200D01*
X102256D01*
X103909Y649643D01*
X105391Y650499D01*
X106601Y651709D01*
X107457Y653191D01*
X107900Y654844D01*
Y656556D01*
X107457Y658209D01*
X106601Y659691D01*
X105391Y660901D01*
X103909Y661757D01*
X102256Y662200D01*
D02*
G37*
G36*
X581656Y649500D02*
X579944D01*
X578291Y649057D01*
X576809Y648201D01*
X575599Y646991D01*
X574743Y645509D01*
X574300Y643856D01*
Y642144D01*
X574743Y640491D01*
X575599Y639009D01*
X576809Y637799D01*
X578291Y636943D01*
X579944Y636500D01*
X581656D01*
X583309Y636943D01*
X584791Y637799D01*
X586001Y639009D01*
X586857Y640491D01*
X587300Y642144D01*
Y643856D01*
X586857Y645509D01*
X586001Y646991D01*
X584791Y648201D01*
X583309Y649057D01*
X581656Y649500D01*
D02*
G37*
G36*
X556256D02*
X554544D01*
X552891Y649057D01*
X551409Y648201D01*
X550199Y646991D01*
X549343Y645509D01*
X548900Y643856D01*
Y642144D01*
X549343Y640491D01*
X550199Y639009D01*
X551409Y637799D01*
X552891Y636943D01*
X554544Y636500D01*
X556256D01*
X557909Y636943D01*
X559391Y637799D01*
X560601Y639009D01*
X561457Y640491D01*
X561900Y642144D01*
Y643856D01*
X561457Y645509D01*
X560601Y646991D01*
X559391Y648201D01*
X557909Y649057D01*
X556256Y649500D01*
D02*
G37*
G36*
X488316D02*
X486604D01*
X484951Y649057D01*
X483469Y648201D01*
X482259Y646991D01*
X481403Y645509D01*
X480960Y643856D01*
Y642144D01*
X481403Y640491D01*
X482259Y639009D01*
X483469Y637799D01*
X484951Y636943D01*
X486604Y636500D01*
X488316D01*
X489969Y636943D01*
X491451Y637799D01*
X492661Y639009D01*
X493517Y640491D01*
X493960Y642144D01*
Y643856D01*
X493517Y645509D01*
X492661Y646991D01*
X491451Y648201D01*
X489969Y649057D01*
X488316Y649500D01*
D02*
G37*
G36*
X462916D02*
X461204D01*
X459551Y649057D01*
X458069Y648201D01*
X456859Y646991D01*
X456003Y645509D01*
X455560Y643856D01*
Y642144D01*
X456003Y640491D01*
X456859Y639009D01*
X458069Y637799D01*
X459551Y636943D01*
X461204Y636500D01*
X462916D01*
X464569Y636943D01*
X466051Y637799D01*
X467261Y639009D01*
X468117Y640491D01*
X468560Y642144D01*
Y643856D01*
X468117Y645509D01*
X467261Y646991D01*
X466051Y648201D01*
X464569Y649057D01*
X462916Y649500D01*
D02*
G37*
G36*
X394976D02*
X393264D01*
X391611Y649057D01*
X390129Y648201D01*
X388919Y646991D01*
X388063Y645509D01*
X387620Y643856D01*
Y642144D01*
X388063Y640491D01*
X388919Y639009D01*
X390129Y637799D01*
X391611Y636943D01*
X393264Y636500D01*
X394976D01*
X396629Y636943D01*
X398111Y637799D01*
X399321Y639009D01*
X400177Y640491D01*
X400620Y642144D01*
Y643856D01*
X400177Y645509D01*
X399321Y646991D01*
X398111Y648201D01*
X396629Y649057D01*
X394976Y649500D01*
D02*
G37*
G36*
X369576D02*
X367864D01*
X366211Y649057D01*
X364729Y648201D01*
X363519Y646991D01*
X362663Y645509D01*
X362220Y643856D01*
Y642144D01*
X362663Y640491D01*
X363519Y639009D01*
X364729Y637799D01*
X366211Y636943D01*
X367864Y636500D01*
X369576D01*
X371229Y636943D01*
X372711Y637799D01*
X373921Y639009D01*
X374777Y640491D01*
X375220Y642144D01*
Y643856D01*
X374777Y645509D01*
X373921Y646991D01*
X372711Y648201D01*
X371229Y649057D01*
X369576Y649500D01*
D02*
G37*
G36*
X301636D02*
X299924D01*
X298271Y649057D01*
X296789Y648201D01*
X295579Y646991D01*
X294723Y645509D01*
X294280Y643856D01*
Y642144D01*
X294723Y640491D01*
X295579Y639009D01*
X296789Y637799D01*
X298271Y636943D01*
X299924Y636500D01*
X301636D01*
X303289Y636943D01*
X304771Y637799D01*
X305981Y639009D01*
X306837Y640491D01*
X307280Y642144D01*
Y643856D01*
X306837Y645509D01*
X305981Y646991D01*
X304771Y648201D01*
X303289Y649057D01*
X301636Y649500D01*
D02*
G37*
G36*
X276236D02*
X274524D01*
X272871Y649057D01*
X271389Y648201D01*
X270179Y646991D01*
X269323Y645509D01*
X268880Y643856D01*
Y642144D01*
X269323Y640491D01*
X270179Y639009D01*
X271389Y637799D01*
X272871Y636943D01*
X274524Y636500D01*
X276236D01*
X277889Y636943D01*
X279371Y637799D01*
X280581Y639009D01*
X281437Y640491D01*
X281880Y642144D01*
Y643856D01*
X281437Y645509D01*
X280581Y646991D01*
X279371Y648201D01*
X277889Y649057D01*
X276236Y649500D01*
D02*
G37*
G36*
X208296D02*
X206584D01*
X204931Y649057D01*
X203449Y648201D01*
X202239Y646991D01*
X201383Y645509D01*
X200940Y643856D01*
Y642144D01*
X201383Y640491D01*
X202239Y639009D01*
X203449Y637799D01*
X204931Y636943D01*
X206584Y636500D01*
X208296D01*
X209949Y636943D01*
X211431Y637799D01*
X212641Y639009D01*
X213497Y640491D01*
X213940Y642144D01*
Y643856D01*
X213497Y645509D01*
X212641Y646991D01*
X211431Y648201D01*
X209949Y649057D01*
X208296Y649500D01*
D02*
G37*
G36*
X182896D02*
X181184D01*
X179531Y649057D01*
X178049Y648201D01*
X176839Y646991D01*
X175983Y645509D01*
X175540Y643856D01*
Y642144D01*
X175983Y640491D01*
X176839Y639009D01*
X178049Y637799D01*
X179531Y636943D01*
X181184Y636500D01*
X182896D01*
X184549Y636943D01*
X186031Y637799D01*
X187241Y639009D01*
X188097Y640491D01*
X188540Y642144D01*
Y643856D01*
X188097Y645509D01*
X187241Y646991D01*
X186031Y648201D01*
X184549Y649057D01*
X182896Y649500D01*
D02*
G37*
G36*
X114956D02*
X113244D01*
X111591Y649057D01*
X110109Y648201D01*
X108899Y646991D01*
X108043Y645509D01*
X107600Y643856D01*
Y642144D01*
X108043Y640491D01*
X108899Y639009D01*
X110109Y637799D01*
X111591Y636943D01*
X113244Y636500D01*
X114956D01*
X116609Y636943D01*
X118091Y637799D01*
X119301Y639009D01*
X120157Y640491D01*
X120600Y642144D01*
Y643856D01*
X120157Y645509D01*
X119301Y646991D01*
X118091Y648201D01*
X116609Y649057D01*
X114956Y649500D01*
D02*
G37*
G36*
X89556D02*
X87844D01*
X86191Y649057D01*
X84709Y648201D01*
X83499Y646991D01*
X82643Y645509D01*
X82200Y643856D01*
Y642144D01*
X82643Y640491D01*
X83499Y639009D01*
X84709Y637799D01*
X86191Y636943D01*
X87844Y636500D01*
X89556D01*
X91209Y636943D01*
X92691Y637799D01*
X93901Y639009D01*
X94757Y640491D01*
X95200Y642144D01*
Y643856D01*
X94757Y645509D01*
X93901Y646991D01*
X92691Y648201D01*
X91209Y649057D01*
X89556Y649500D01*
D02*
G37*
G36*
X715211Y638500D02*
X713819D01*
X712532Y637967D01*
X711548Y636983D01*
X711015Y635696D01*
Y634304D01*
X711548Y633017D01*
X712532Y632033D01*
X713819Y631500D01*
X715211D01*
X716498Y632033D01*
X717482Y633017D01*
X718015Y634304D01*
Y635696D01*
X717482Y636983D01*
X716498Y637967D01*
X715211Y638500D01*
D02*
G37*
G36*
X702211Y632981D02*
X700819D01*
X699532Y632448D01*
X698548Y631464D01*
X698015Y630177D01*
Y628785D01*
X698548Y627498D01*
X699532Y626514D01*
X700819Y625981D01*
X702211D01*
X703498Y626514D01*
X704482Y627498D01*
X705015Y628785D01*
Y630177D01*
X704482Y631464D01*
X703498Y632448D01*
X702211Y632981D01*
D02*
G37*
G36*
X568956Y636800D02*
X567244D01*
X565591Y636357D01*
X564109Y635501D01*
X562899Y634291D01*
X562043Y632809D01*
X561600Y631156D01*
Y629444D01*
X562043Y627791D01*
X562899Y626309D01*
X564109Y625099D01*
X565591Y624243D01*
X567244Y623800D01*
X568956D01*
X570609Y624243D01*
X572091Y625099D01*
X573301Y626309D01*
X574157Y627791D01*
X574600Y629444D01*
Y631156D01*
X574157Y632809D01*
X573301Y634291D01*
X572091Y635501D01*
X570609Y636357D01*
X568956Y636800D01*
D02*
G37*
G36*
X475616D02*
X473904D01*
X472251Y636357D01*
X470769Y635501D01*
X469559Y634291D01*
X468703Y632809D01*
X468260Y631156D01*
Y629444D01*
X468703Y627791D01*
X469559Y626309D01*
X470769Y625099D01*
X472251Y624243D01*
X473904Y623800D01*
X475616D01*
X477269Y624243D01*
X478751Y625099D01*
X479961Y626309D01*
X480817Y627791D01*
X481260Y629444D01*
Y631156D01*
X480817Y632809D01*
X479961Y634291D01*
X478751Y635501D01*
X477269Y636357D01*
X475616Y636800D01*
D02*
G37*
G36*
X382276D02*
X380564D01*
X378911Y636357D01*
X377429Y635501D01*
X376219Y634291D01*
X375363Y632809D01*
X374920Y631156D01*
Y629444D01*
X375363Y627791D01*
X376219Y626309D01*
X377429Y625099D01*
X378911Y624243D01*
X380564Y623800D01*
X382276D01*
X383929Y624243D01*
X385411Y625099D01*
X386621Y626309D01*
X387477Y627791D01*
X387920Y629444D01*
Y631156D01*
X387477Y632809D01*
X386621Y634291D01*
X385411Y635501D01*
X383929Y636357D01*
X382276Y636800D01*
D02*
G37*
G36*
X288936D02*
X287224D01*
X285571Y636357D01*
X284089Y635501D01*
X282879Y634291D01*
X282023Y632809D01*
X281580Y631156D01*
Y629444D01*
X282023Y627791D01*
X282879Y626309D01*
X284089Y625099D01*
X285571Y624243D01*
X287224Y623800D01*
X288936D01*
X290589Y624243D01*
X292071Y625099D01*
X293281Y626309D01*
X294137Y627791D01*
X294580Y629444D01*
Y631156D01*
X294137Y632809D01*
X293281Y634291D01*
X292071Y635501D01*
X290589Y636357D01*
X288936Y636800D01*
D02*
G37*
G36*
X195596D02*
X193884D01*
X192231Y636357D01*
X190749Y635501D01*
X189539Y634291D01*
X188683Y632809D01*
X188240Y631156D01*
Y629444D01*
X188683Y627791D01*
X189539Y626309D01*
X190749Y625099D01*
X192231Y624243D01*
X193884Y623800D01*
X195596D01*
X197249Y624243D01*
X198731Y625099D01*
X199941Y626309D01*
X200797Y627791D01*
X201240Y629444D01*
Y631156D01*
X200797Y632809D01*
X199941Y634291D01*
X198731Y635501D01*
X197249Y636357D01*
X195596Y636800D01*
D02*
G37*
G36*
X102256D02*
X100544D01*
X98891Y636357D01*
X97409Y635501D01*
X96199Y634291D01*
X95343Y632809D01*
X94900Y631156D01*
Y629444D01*
X95343Y627791D01*
X96199Y626309D01*
X97409Y625099D01*
X98891Y624243D01*
X100544Y623800D01*
X102256D01*
X103909Y624243D01*
X105391Y625099D01*
X106601Y626309D01*
X107457Y627791D01*
X107900Y629444D01*
Y631156D01*
X107457Y632809D01*
X106601Y634291D01*
X105391Y635501D01*
X103909Y636357D01*
X102256Y636800D01*
D02*
G37*
G36*
X689211Y609230D02*
X687819D01*
X686532Y608697D01*
X685548Y607713D01*
X685015Y606426D01*
Y605034D01*
X685548Y603747D01*
X686532Y602763D01*
X687819Y602230D01*
X689211D01*
X690498Y602763D01*
X691482Y603747D01*
X692015Y605034D01*
Y606426D01*
X691482Y607713D01*
X690498Y608697D01*
X689211Y609230D01*
D02*
G37*
G36*
X676211Y603523D02*
X674819D01*
X673532Y602990D01*
X672548Y602006D01*
X672015Y600720D01*
Y599327D01*
X672548Y598041D01*
X673532Y597056D01*
X674819Y596523D01*
X676211D01*
X677498Y597056D01*
X678482Y598041D01*
X679015Y599327D01*
Y600720D01*
X678482Y602006D01*
X677498Y602990D01*
X676211Y603523D01*
D02*
G37*
G36*
X568956Y590200D02*
X567244D01*
X565591Y589757D01*
X564109Y588901D01*
X562899Y587691D01*
X562043Y586209D01*
X561600Y584556D01*
Y582844D01*
X562043Y581191D01*
X562899Y579709D01*
X564109Y578499D01*
X565591Y577643D01*
X567244Y577200D01*
X568956D01*
X570609Y577643D01*
X572091Y578499D01*
X573301Y579709D01*
X574157Y581191D01*
X574600Y582844D01*
Y584556D01*
X574157Y586209D01*
X573301Y587691D01*
X572091Y588901D01*
X570609Y589757D01*
X568956Y590200D01*
D02*
G37*
G36*
X475616D02*
X473904D01*
X472251Y589757D01*
X470769Y588901D01*
X469559Y587691D01*
X468703Y586209D01*
X468260Y584556D01*
Y582844D01*
X468703Y581191D01*
X469559Y579709D01*
X470769Y578499D01*
X472251Y577643D01*
X473904Y577200D01*
X475616D01*
X477269Y577643D01*
X478751Y578499D01*
X479961Y579709D01*
X480817Y581191D01*
X481260Y582844D01*
Y584556D01*
X480817Y586209D01*
X479961Y587691D01*
X478751Y588901D01*
X477269Y589757D01*
X475616Y590200D01*
D02*
G37*
G36*
X382276D02*
X380564D01*
X378911Y589757D01*
X377429Y588901D01*
X376219Y587691D01*
X375363Y586209D01*
X374920Y584556D01*
Y582844D01*
X375363Y581191D01*
X376219Y579709D01*
X377429Y578499D01*
X378911Y577643D01*
X380564Y577200D01*
X382276D01*
X383929Y577643D01*
X385411Y578499D01*
X386621Y579709D01*
X387477Y581191D01*
X387920Y582844D01*
Y584556D01*
X387477Y586209D01*
X386621Y587691D01*
X385411Y588901D01*
X383929Y589757D01*
X382276Y590200D01*
D02*
G37*
G36*
X288936D02*
X287224D01*
X285571Y589757D01*
X284089Y588901D01*
X282879Y587691D01*
X282023Y586209D01*
X281580Y584556D01*
Y582844D01*
X282023Y581191D01*
X282879Y579709D01*
X284089Y578499D01*
X285571Y577643D01*
X287224Y577200D01*
X288936D01*
X290589Y577643D01*
X292071Y578499D01*
X293281Y579709D01*
X294137Y581191D01*
X294580Y582844D01*
Y584556D01*
X294137Y586209D01*
X293281Y587691D01*
X292071Y588901D01*
X290589Y589757D01*
X288936Y590200D01*
D02*
G37*
G36*
X195596D02*
X193884D01*
X192231Y589757D01*
X190749Y588901D01*
X189539Y587691D01*
X188683Y586209D01*
X188240Y584556D01*
Y582844D01*
X188683Y581191D01*
X189539Y579709D01*
X190749Y578499D01*
X192231Y577643D01*
X193884Y577200D01*
X195596D01*
X197249Y577643D01*
X198731Y578499D01*
X199941Y579709D01*
X200797Y581191D01*
X201240Y582844D01*
Y584556D01*
X200797Y586209D01*
X199941Y587691D01*
X198731Y588901D01*
X197249Y589757D01*
X195596Y590200D01*
D02*
G37*
G36*
X102256D02*
X100544D01*
X98891Y589757D01*
X97409Y588901D01*
X96199Y587691D01*
X95343Y586209D01*
X94900Y584556D01*
Y582844D01*
X95343Y581191D01*
X96199Y579709D01*
X97409Y578499D01*
X98891Y577643D01*
X100544Y577200D01*
X102256D01*
X103909Y577643D01*
X105391Y578499D01*
X106601Y579709D01*
X107457Y581191D01*
X107900Y582844D01*
Y584556D01*
X107457Y586209D01*
X106601Y587691D01*
X105391Y588901D01*
X103909Y589757D01*
X102256Y590200D01*
D02*
G37*
G36*
X715211Y577540D02*
X713819D01*
X712532Y577007D01*
X711548Y576023D01*
X711015Y574736D01*
Y573344D01*
X711548Y572057D01*
X712532Y571073D01*
X713819Y570540D01*
X715211D01*
X716498Y571073D01*
X717482Y572057D01*
X718015Y573344D01*
Y574736D01*
X717482Y576023D01*
X716498Y577007D01*
X715211Y577540D01*
D02*
G37*
G36*
X702211D02*
X700819D01*
X699532Y577007D01*
X698548Y576023D01*
X698015Y574736D01*
Y573344D01*
X698548Y572057D01*
X699532Y571073D01*
X700819Y570540D01*
X702211D01*
X703498Y571073D01*
X704482Y572057D01*
X705015Y573344D01*
Y574736D01*
X704482Y576023D01*
X703498Y577007D01*
X702211Y577540D01*
D02*
G37*
G36*
X581656Y577500D02*
X579944D01*
X578291Y577057D01*
X576809Y576201D01*
X575599Y574991D01*
X574743Y573509D01*
X574300Y571856D01*
Y570144D01*
X574743Y568491D01*
X575599Y567009D01*
X576809Y565799D01*
X578291Y564943D01*
X579944Y564500D01*
X581656D01*
X583309Y564943D01*
X584791Y565799D01*
X586001Y567009D01*
X586857Y568491D01*
X587300Y570144D01*
Y571856D01*
X586857Y573509D01*
X586001Y574991D01*
X584791Y576201D01*
X583309Y577057D01*
X581656Y577500D01*
D02*
G37*
G36*
X556256D02*
X554544D01*
X552891Y577057D01*
X551409Y576201D01*
X550199Y574991D01*
X549343Y573509D01*
X548900Y571856D01*
Y570144D01*
X549343Y568491D01*
X550199Y567009D01*
X551409Y565799D01*
X552891Y564943D01*
X554544Y564500D01*
X556256D01*
X557909Y564943D01*
X559391Y565799D01*
X560601Y567009D01*
X561457Y568491D01*
X561900Y570144D01*
Y571856D01*
X561457Y573509D01*
X560601Y574991D01*
X559391Y576201D01*
X557909Y577057D01*
X556256Y577500D01*
D02*
G37*
G36*
X488316D02*
X486604D01*
X484951Y577057D01*
X483469Y576201D01*
X482259Y574991D01*
X481403Y573509D01*
X480960Y571856D01*
Y570144D01*
X481403Y568491D01*
X482259Y567009D01*
X483469Y565799D01*
X484951Y564943D01*
X486604Y564500D01*
X488316D01*
X489969Y564943D01*
X491451Y565799D01*
X492661Y567009D01*
X493517Y568491D01*
X493960Y570144D01*
Y571856D01*
X493517Y573509D01*
X492661Y574991D01*
X491451Y576201D01*
X489969Y577057D01*
X488316Y577500D01*
D02*
G37*
G36*
X462916D02*
X461204D01*
X459551Y577057D01*
X458069Y576201D01*
X456859Y574991D01*
X456003Y573509D01*
X455560Y571856D01*
Y570144D01*
X456003Y568491D01*
X456859Y567009D01*
X458069Y565799D01*
X459551Y564943D01*
X461204Y564500D01*
X462916D01*
X464569Y564943D01*
X466051Y565799D01*
X467261Y567009D01*
X468117Y568491D01*
X468560Y570144D01*
Y571856D01*
X468117Y573509D01*
X467261Y574991D01*
X466051Y576201D01*
X464569Y577057D01*
X462916Y577500D01*
D02*
G37*
G36*
X394976D02*
X393264D01*
X391611Y577057D01*
X390129Y576201D01*
X388919Y574991D01*
X388063Y573509D01*
X387620Y571856D01*
Y570144D01*
X388063Y568491D01*
X388919Y567009D01*
X390129Y565799D01*
X391611Y564943D01*
X393264Y564500D01*
X394976D01*
X396629Y564943D01*
X398111Y565799D01*
X399321Y567009D01*
X400177Y568491D01*
X400620Y570144D01*
Y571856D01*
X400177Y573509D01*
X399321Y574991D01*
X398111Y576201D01*
X396629Y577057D01*
X394976Y577500D01*
D02*
G37*
G36*
X369576D02*
X367864D01*
X366211Y577057D01*
X364729Y576201D01*
X363519Y574991D01*
X362663Y573509D01*
X362220Y571856D01*
Y570144D01*
X362663Y568491D01*
X363519Y567009D01*
X364729Y565799D01*
X366211Y564943D01*
X367864Y564500D01*
X369576D01*
X371229Y564943D01*
X372711Y565799D01*
X373921Y567009D01*
X374777Y568491D01*
X375220Y570144D01*
Y571856D01*
X374777Y573509D01*
X373921Y574991D01*
X372711Y576201D01*
X371229Y577057D01*
X369576Y577500D01*
D02*
G37*
G36*
X301636D02*
X299924D01*
X298271Y577057D01*
X296789Y576201D01*
X295579Y574991D01*
X294723Y573509D01*
X294280Y571856D01*
Y570144D01*
X294723Y568491D01*
X295579Y567009D01*
X296789Y565799D01*
X298271Y564943D01*
X299924Y564500D01*
X301636D01*
X303289Y564943D01*
X304771Y565799D01*
X305981Y567009D01*
X306837Y568491D01*
X307280Y570144D01*
Y571856D01*
X306837Y573509D01*
X305981Y574991D01*
X304771Y576201D01*
X303289Y577057D01*
X301636Y577500D01*
D02*
G37*
G36*
X276236D02*
X274524D01*
X272871Y577057D01*
X271389Y576201D01*
X270179Y574991D01*
X269323Y573509D01*
X268880Y571856D01*
Y570144D01*
X269323Y568491D01*
X270179Y567009D01*
X271389Y565799D01*
X272871Y564943D01*
X274524Y564500D01*
X276236D01*
X277889Y564943D01*
X279371Y565799D01*
X280581Y567009D01*
X281437Y568491D01*
X281880Y570144D01*
Y571856D01*
X281437Y573509D01*
X280581Y574991D01*
X279371Y576201D01*
X277889Y577057D01*
X276236Y577500D01*
D02*
G37*
G36*
X208296D02*
X206584D01*
X204931Y577057D01*
X203449Y576201D01*
X202239Y574991D01*
X201383Y573509D01*
X200940Y571856D01*
Y570144D01*
X201383Y568491D01*
X202239Y567009D01*
X203449Y565799D01*
X204931Y564943D01*
X206584Y564500D01*
X208296D01*
X209949Y564943D01*
X211431Y565799D01*
X212641Y567009D01*
X213497Y568491D01*
X213940Y570144D01*
Y571856D01*
X213497Y573509D01*
X212641Y574991D01*
X211431Y576201D01*
X209949Y577057D01*
X208296Y577500D01*
D02*
G37*
G36*
X182896D02*
X181184D01*
X179531Y577057D01*
X178049Y576201D01*
X176839Y574991D01*
X175983Y573509D01*
X175540Y571856D01*
Y570144D01*
X175983Y568491D01*
X176839Y567009D01*
X178049Y565799D01*
X179531Y564943D01*
X181184Y564500D01*
X182896D01*
X184549Y564943D01*
X186031Y565799D01*
X187241Y567009D01*
X188097Y568491D01*
X188540Y570144D01*
Y571856D01*
X188097Y573509D01*
X187241Y574991D01*
X186031Y576201D01*
X184549Y577057D01*
X182896Y577500D01*
D02*
G37*
G36*
X114956D02*
X113244D01*
X111591Y577057D01*
X110109Y576201D01*
X108899Y574991D01*
X108043Y573509D01*
X107600Y571856D01*
Y570144D01*
X108043Y568491D01*
X108899Y567009D01*
X110109Y565799D01*
X111591Y564943D01*
X113244Y564500D01*
X114956D01*
X116609Y564943D01*
X118091Y565799D01*
X119301Y567009D01*
X120157Y568491D01*
X120600Y570144D01*
Y571856D01*
X120157Y573509D01*
X119301Y574991D01*
X118091Y576201D01*
X116609Y577057D01*
X114956Y577500D01*
D02*
G37*
G36*
X89556D02*
X87844D01*
X86191Y577057D01*
X84709Y576201D01*
X83499Y574991D01*
X82643Y573509D01*
X82200Y571856D01*
Y570144D01*
X82643Y568491D01*
X83499Y567009D01*
X84709Y565799D01*
X86191Y564943D01*
X87844Y564500D01*
X89556D01*
X91209Y564943D01*
X92691Y565799D01*
X93901Y567009D01*
X94757Y568491D01*
X95200Y570144D01*
Y571856D01*
X94757Y573509D01*
X93901Y574991D01*
X92691Y576201D01*
X91209Y577057D01*
X89556Y577500D01*
D02*
G37*
G36*
X568956Y564800D02*
X567244D01*
X565591Y564357D01*
X564109Y563501D01*
X562899Y562291D01*
X562043Y560809D01*
X561600Y559156D01*
Y557444D01*
X562043Y555791D01*
X562899Y554309D01*
X564109Y553099D01*
X565591Y552243D01*
X567244Y551800D01*
X568956D01*
X570609Y552243D01*
X572091Y553099D01*
X573301Y554309D01*
X574157Y555791D01*
X574600Y557444D01*
Y559156D01*
X574157Y560809D01*
X573301Y562291D01*
X572091Y563501D01*
X570609Y564357D01*
X568956Y564800D01*
D02*
G37*
G36*
X475616D02*
X473904D01*
X472251Y564357D01*
X470769Y563501D01*
X469559Y562291D01*
X468703Y560809D01*
X468260Y559156D01*
Y557444D01*
X468703Y555791D01*
X469559Y554309D01*
X470769Y553099D01*
X472251Y552243D01*
X473904Y551800D01*
X475616D01*
X477269Y552243D01*
X478751Y553099D01*
X479961Y554309D01*
X480817Y555791D01*
X481260Y557444D01*
Y559156D01*
X480817Y560809D01*
X479961Y562291D01*
X478751Y563501D01*
X477269Y564357D01*
X475616Y564800D01*
D02*
G37*
G36*
X382276D02*
X380564D01*
X378911Y564357D01*
X377429Y563501D01*
X376219Y562291D01*
X375363Y560809D01*
X374920Y559156D01*
Y557444D01*
X375363Y555791D01*
X376219Y554309D01*
X377429Y553099D01*
X378911Y552243D01*
X380564Y551800D01*
X382276D01*
X383929Y552243D01*
X385411Y553099D01*
X386621Y554309D01*
X387477Y555791D01*
X387920Y557444D01*
Y559156D01*
X387477Y560809D01*
X386621Y562291D01*
X385411Y563501D01*
X383929Y564357D01*
X382276Y564800D01*
D02*
G37*
G36*
X288936D02*
X287224D01*
X285571Y564357D01*
X284089Y563501D01*
X282879Y562291D01*
X282023Y560809D01*
X281580Y559156D01*
Y557444D01*
X282023Y555791D01*
X282879Y554309D01*
X284089Y553099D01*
X285571Y552243D01*
X287224Y551800D01*
X288936D01*
X290589Y552243D01*
X292071Y553099D01*
X293281Y554309D01*
X294137Y555791D01*
X294580Y557444D01*
Y559156D01*
X294137Y560809D01*
X293281Y562291D01*
X292071Y563501D01*
X290589Y564357D01*
X288936Y564800D01*
D02*
G37*
G36*
X195596D02*
X193884D01*
X192231Y564357D01*
X190749Y563501D01*
X189539Y562291D01*
X188683Y560809D01*
X188240Y559156D01*
Y557444D01*
X188683Y555791D01*
X189539Y554309D01*
X190749Y553099D01*
X192231Y552243D01*
X193884Y551800D01*
X195596D01*
X197249Y552243D01*
X198731Y553099D01*
X199941Y554309D01*
X200797Y555791D01*
X201240Y557444D01*
Y559156D01*
X200797Y560809D01*
X199941Y562291D01*
X198731Y563501D01*
X197249Y564357D01*
X195596Y564800D01*
D02*
G37*
G36*
X102256D02*
X100544D01*
X98891Y564357D01*
X97409Y563501D01*
X96199Y562291D01*
X95343Y560809D01*
X94900Y559156D01*
Y557444D01*
X95343Y555791D01*
X96199Y554309D01*
X97409Y553099D01*
X98891Y552243D01*
X100544Y551800D01*
X102256D01*
X103909Y552243D01*
X105391Y553099D01*
X106601Y554309D01*
X107457Y555791D01*
X107900Y557444D01*
Y559156D01*
X107457Y560809D01*
X106601Y562291D01*
X105391Y563501D01*
X103909Y564357D01*
X102256Y564800D01*
D02*
G37*
G36*
X715231Y556001D02*
X713838D01*
X712552Y555468D01*
X711567Y554483D01*
X711034Y553197D01*
Y551804D01*
X711567Y550518D01*
X712552Y549533D01*
X713838Y549001D01*
X715231D01*
X716517Y549533D01*
X717502Y550518D01*
X718034Y551804D01*
Y553197D01*
X717502Y554483D01*
X716517Y555468D01*
X715231Y556001D01*
D02*
G37*
G36*
X702211Y550471D02*
X700819D01*
X699532Y549938D01*
X698548Y548954D01*
X698015Y547667D01*
Y546275D01*
X698548Y544988D01*
X699532Y544004D01*
X700819Y543471D01*
X702211D01*
X703498Y544004D01*
X704482Y544988D01*
X705015Y546275D01*
Y547667D01*
X704482Y548954D01*
X703498Y549938D01*
X702211Y550471D01*
D02*
G37*
G36*
X689211Y526457D02*
X687819D01*
X686532Y525924D01*
X685548Y524940D01*
X685015Y523653D01*
Y522261D01*
X685548Y520974D01*
X686532Y519990D01*
X687819Y519457D01*
X689211D01*
X690498Y519990D01*
X691482Y520974D01*
X692015Y522261D01*
Y523653D01*
X691482Y524940D01*
X690498Y525924D01*
X689211Y526457D01*
D02*
G37*
G36*
X676211Y520875D02*
X674819D01*
X673532Y520342D01*
X672548Y519357D01*
X672015Y518071D01*
Y516679D01*
X672548Y515392D01*
X673532Y514408D01*
X674819Y513875D01*
X676211D01*
X677498Y514408D01*
X678482Y515392D01*
X679015Y516679D01*
Y518071D01*
X678482Y519357D01*
X677498Y520342D01*
X676211Y520875D01*
D02*
G37*
G36*
X568956Y518200D02*
X567244D01*
X565591Y517757D01*
X564109Y516901D01*
X562899Y515691D01*
X562043Y514209D01*
X561600Y512556D01*
Y510844D01*
X562043Y509191D01*
X562899Y507709D01*
X564109Y506499D01*
X565591Y505643D01*
X567244Y505200D01*
X568956D01*
X570609Y505643D01*
X572091Y506499D01*
X573301Y507709D01*
X574157Y509191D01*
X574600Y510844D01*
Y512556D01*
X574157Y514209D01*
X573301Y515691D01*
X572091Y516901D01*
X570609Y517757D01*
X568956Y518200D01*
D02*
G37*
G36*
X475616D02*
X473904D01*
X472251Y517757D01*
X470769Y516901D01*
X469559Y515691D01*
X468703Y514209D01*
X468260Y512556D01*
Y510844D01*
X468703Y509191D01*
X469559Y507709D01*
X470769Y506499D01*
X472251Y505643D01*
X473904Y505200D01*
X475616D01*
X477269Y505643D01*
X478751Y506499D01*
X479961Y507709D01*
X480817Y509191D01*
X481260Y510844D01*
Y512556D01*
X480817Y514209D01*
X479961Y515691D01*
X478751Y516901D01*
X477269Y517757D01*
X475616Y518200D01*
D02*
G37*
G36*
X382276D02*
X380564D01*
X378911Y517757D01*
X377429Y516901D01*
X376219Y515691D01*
X375363Y514209D01*
X374920Y512556D01*
Y510844D01*
X375363Y509191D01*
X376219Y507709D01*
X377429Y506499D01*
X378911Y505643D01*
X380564Y505200D01*
X382276D01*
X383929Y505643D01*
X385411Y506499D01*
X386621Y507709D01*
X387477Y509191D01*
X387920Y510844D01*
Y512556D01*
X387477Y514209D01*
X386621Y515691D01*
X385411Y516901D01*
X383929Y517757D01*
X382276Y518200D01*
D02*
G37*
G36*
X288936D02*
X287224D01*
X285571Y517757D01*
X284089Y516901D01*
X282879Y515691D01*
X282023Y514209D01*
X281580Y512556D01*
Y510844D01*
X282023Y509191D01*
X282879Y507709D01*
X284089Y506499D01*
X285571Y505643D01*
X287224Y505200D01*
X288936D01*
X290589Y505643D01*
X292071Y506499D01*
X293281Y507709D01*
X294137Y509191D01*
X294580Y510844D01*
Y512556D01*
X294137Y514209D01*
X293281Y515691D01*
X292071Y516901D01*
X290589Y517757D01*
X288936Y518200D01*
D02*
G37*
G36*
X195596D02*
X193884D01*
X192231Y517757D01*
X190749Y516901D01*
X189539Y515691D01*
X188683Y514209D01*
X188240Y512556D01*
Y510844D01*
X188683Y509191D01*
X189539Y507709D01*
X190749Y506499D01*
X192231Y505643D01*
X193884Y505200D01*
X195596D01*
X197249Y505643D01*
X198731Y506499D01*
X199941Y507709D01*
X200797Y509191D01*
X201240Y510844D01*
Y512556D01*
X200797Y514209D01*
X199941Y515691D01*
X198731Y516901D01*
X197249Y517757D01*
X195596Y518200D01*
D02*
G37*
G36*
X102256D02*
X100544D01*
X98891Y517757D01*
X97409Y516901D01*
X96199Y515691D01*
X95343Y514209D01*
X94900Y512556D01*
Y510844D01*
X95343Y509191D01*
X96199Y507709D01*
X97409Y506499D01*
X98891Y505643D01*
X100544Y505200D01*
X102256D01*
X103909Y505643D01*
X105391Y506499D01*
X106601Y507709D01*
X107457Y509191D01*
X107900Y510844D01*
Y512556D01*
X107457Y514209D01*
X106601Y515691D01*
X105391Y516901D01*
X103909Y517757D01*
X102256Y518200D01*
D02*
G37*
G36*
X581656Y505500D02*
X579944D01*
X578291Y505057D01*
X576809Y504201D01*
X575599Y502991D01*
X574743Y501509D01*
X574300Y499856D01*
Y498144D01*
X574743Y496491D01*
X575599Y495009D01*
X576809Y493799D01*
X578291Y492943D01*
X579944Y492500D01*
X581656D01*
X583309Y492943D01*
X584791Y493799D01*
X586001Y495009D01*
X586857Y496491D01*
X587300Y498144D01*
Y499856D01*
X586857Y501509D01*
X586001Y502991D01*
X584791Y504201D01*
X583309Y505057D01*
X581656Y505500D01*
D02*
G37*
G36*
X556256D02*
X554544D01*
X552891Y505057D01*
X551409Y504201D01*
X550199Y502991D01*
X549343Y501509D01*
X548900Y499856D01*
Y498144D01*
X549343Y496491D01*
X550199Y495009D01*
X551409Y493799D01*
X552891Y492943D01*
X554544Y492500D01*
X556256D01*
X557909Y492943D01*
X559391Y493799D01*
X560601Y495009D01*
X561457Y496491D01*
X561900Y498144D01*
Y499856D01*
X561457Y501509D01*
X560601Y502991D01*
X559391Y504201D01*
X557909Y505057D01*
X556256Y505500D01*
D02*
G37*
G36*
X488316D02*
X486604D01*
X484951Y505057D01*
X483469Y504201D01*
X482259Y502991D01*
X481403Y501509D01*
X480960Y499856D01*
Y498144D01*
X481403Y496491D01*
X482259Y495009D01*
X483469Y493799D01*
X484951Y492943D01*
X486604Y492500D01*
X488316D01*
X489969Y492943D01*
X491451Y493799D01*
X492661Y495009D01*
X493517Y496491D01*
X493960Y498144D01*
Y499856D01*
X493517Y501509D01*
X492661Y502991D01*
X491451Y504201D01*
X489969Y505057D01*
X488316Y505500D01*
D02*
G37*
G36*
X462916D02*
X461204D01*
X459551Y505057D01*
X458069Y504201D01*
X456859Y502991D01*
X456003Y501509D01*
X455560Y499856D01*
Y498144D01*
X456003Y496491D01*
X456859Y495009D01*
X458069Y493799D01*
X459551Y492943D01*
X461204Y492500D01*
X462916D01*
X464569Y492943D01*
X466051Y493799D01*
X467261Y495009D01*
X468117Y496491D01*
X468560Y498144D01*
Y499856D01*
X468117Y501509D01*
X467261Y502991D01*
X466051Y504201D01*
X464569Y505057D01*
X462916Y505500D01*
D02*
G37*
G36*
X394976D02*
X393264D01*
X391611Y505057D01*
X390129Y504201D01*
X388919Y502991D01*
X388063Y501509D01*
X387620Y499856D01*
Y498144D01*
X388063Y496491D01*
X388919Y495009D01*
X390129Y493799D01*
X391611Y492943D01*
X393264Y492500D01*
X394976D01*
X396629Y492943D01*
X398111Y493799D01*
X399321Y495009D01*
X400177Y496491D01*
X400620Y498144D01*
Y499856D01*
X400177Y501509D01*
X399321Y502991D01*
X398111Y504201D01*
X396629Y505057D01*
X394976Y505500D01*
D02*
G37*
G36*
X369576D02*
X367864D01*
X366211Y505057D01*
X364729Y504201D01*
X363519Y502991D01*
X362663Y501509D01*
X362220Y499856D01*
Y498144D01*
X362663Y496491D01*
X363519Y495009D01*
X364729Y493799D01*
X366211Y492943D01*
X367864Y492500D01*
X369576D01*
X371229Y492943D01*
X372711Y493799D01*
X373921Y495009D01*
X374777Y496491D01*
X375220Y498144D01*
Y499856D01*
X374777Y501509D01*
X373921Y502991D01*
X372711Y504201D01*
X371229Y505057D01*
X369576Y505500D01*
D02*
G37*
G36*
X301636D02*
X299924D01*
X298271Y505057D01*
X296789Y504201D01*
X295579Y502991D01*
X294723Y501509D01*
X294280Y499856D01*
Y498144D01*
X294723Y496491D01*
X295579Y495009D01*
X296789Y493799D01*
X298271Y492943D01*
X299924Y492500D01*
X301636D01*
X303289Y492943D01*
X304771Y493799D01*
X305981Y495009D01*
X306837Y496491D01*
X307280Y498144D01*
Y499856D01*
X306837Y501509D01*
X305981Y502991D01*
X304771Y504201D01*
X303289Y505057D01*
X301636Y505500D01*
D02*
G37*
G36*
X276236D02*
X274524D01*
X272871Y505057D01*
X271389Y504201D01*
X270179Y502991D01*
X269323Y501509D01*
X268880Y499856D01*
Y498144D01*
X269323Y496491D01*
X270179Y495009D01*
X271389Y493799D01*
X272871Y492943D01*
X274524Y492500D01*
X276236D01*
X277889Y492943D01*
X279371Y493799D01*
X280581Y495009D01*
X281437Y496491D01*
X281880Y498144D01*
Y499856D01*
X281437Y501509D01*
X280581Y502991D01*
X279371Y504201D01*
X277889Y505057D01*
X276236Y505500D01*
D02*
G37*
G36*
X208296D02*
X206584D01*
X204931Y505057D01*
X203449Y504201D01*
X202239Y502991D01*
X201383Y501509D01*
X200940Y499856D01*
Y498144D01*
X201383Y496491D01*
X202239Y495009D01*
X203449Y493799D01*
X204931Y492943D01*
X206584Y492500D01*
X208296D01*
X209949Y492943D01*
X211431Y493799D01*
X212641Y495009D01*
X213497Y496491D01*
X213940Y498144D01*
Y499856D01*
X213497Y501509D01*
X212641Y502991D01*
X211431Y504201D01*
X209949Y505057D01*
X208296Y505500D01*
D02*
G37*
G36*
X182896D02*
X181184D01*
X179531Y505057D01*
X178049Y504201D01*
X176839Y502991D01*
X175983Y501509D01*
X175540Y499856D01*
Y498144D01*
X175983Y496491D01*
X176839Y495009D01*
X178049Y493799D01*
X179531Y492943D01*
X181184Y492500D01*
X182896D01*
X184549Y492943D01*
X186031Y493799D01*
X187241Y495009D01*
X188097Y496491D01*
X188540Y498144D01*
Y499856D01*
X188097Y501509D01*
X187241Y502991D01*
X186031Y504201D01*
X184549Y505057D01*
X182896Y505500D01*
D02*
G37*
G36*
X114956D02*
X113244D01*
X111591Y505057D01*
X110109Y504201D01*
X108899Y502991D01*
X108043Y501509D01*
X107600Y499856D01*
Y498144D01*
X108043Y496491D01*
X108899Y495009D01*
X110109Y493799D01*
X111591Y492943D01*
X113244Y492500D01*
X114956D01*
X116609Y492943D01*
X118091Y493799D01*
X119301Y495009D01*
X120157Y496491D01*
X120600Y498144D01*
Y499856D01*
X120157Y501509D01*
X119301Y502991D01*
X118091Y504201D01*
X116609Y505057D01*
X114956Y505500D01*
D02*
G37*
G36*
X89556D02*
X87844D01*
X86191Y505057D01*
X84709Y504201D01*
X83499Y502991D01*
X82643Y501509D01*
X82200Y499856D01*
Y498144D01*
X82643Y496491D01*
X83499Y495009D01*
X84709Y493799D01*
X86191Y492943D01*
X87844Y492500D01*
X89556D01*
X91209Y492943D01*
X92691Y493799D01*
X93901Y495009D01*
X94757Y496491D01*
X95200Y498144D01*
Y499856D01*
X94757Y501509D01*
X93901Y502991D01*
X92691Y504201D01*
X91209Y505057D01*
X89556Y505500D01*
D02*
G37*
G36*
X715211Y494426D02*
X713819D01*
X712532Y493894D01*
X711548Y492909D01*
X711015Y491623D01*
Y490230D01*
X711548Y488944D01*
X712532Y487959D01*
X713819Y487426D01*
X715211D01*
X716498Y487959D01*
X717482Y488944D01*
X718015Y490230D01*
Y491623D01*
X717482Y492909D01*
X716498Y493894D01*
X715211Y494426D01*
D02*
G37*
G36*
X702210D02*
X700817D01*
X699531Y493894D01*
X698547Y492909D01*
X698014Y491623D01*
Y490230D01*
X698547Y488944D01*
X699531Y487959D01*
X700817Y487426D01*
X702210D01*
X703496Y487959D01*
X704481Y488944D01*
X705014Y490230D01*
Y491623D01*
X704481Y492909D01*
X703496Y493894D01*
X702210Y494426D01*
D02*
G37*
G36*
X568956Y492800D02*
X567244D01*
X565591Y492357D01*
X564109Y491501D01*
X562899Y490291D01*
X562043Y488809D01*
X561600Y487156D01*
Y485444D01*
X562043Y483791D01*
X562899Y482309D01*
X564109Y481099D01*
X565591Y480243D01*
X567244Y479800D01*
X568956D01*
X570609Y480243D01*
X572091Y481099D01*
X573301Y482309D01*
X574157Y483791D01*
X574600Y485444D01*
Y487156D01*
X574157Y488809D01*
X573301Y490291D01*
X572091Y491501D01*
X570609Y492357D01*
X568956Y492800D01*
D02*
G37*
G36*
X475616D02*
X473904D01*
X472251Y492357D01*
X470769Y491501D01*
X469559Y490291D01*
X468703Y488809D01*
X468260Y487156D01*
Y485444D01*
X468703Y483791D01*
X469559Y482309D01*
X470769Y481099D01*
X472251Y480243D01*
X473904Y479800D01*
X475616D01*
X477269Y480243D01*
X478751Y481099D01*
X479961Y482309D01*
X480817Y483791D01*
X481260Y485444D01*
Y487156D01*
X480817Y488809D01*
X479961Y490291D01*
X478751Y491501D01*
X477269Y492357D01*
X475616Y492800D01*
D02*
G37*
G36*
X382276D02*
X380564D01*
X378911Y492357D01*
X377429Y491501D01*
X376219Y490291D01*
X375363Y488809D01*
X374920Y487156D01*
Y485444D01*
X375363Y483791D01*
X376219Y482309D01*
X377429Y481099D01*
X378911Y480243D01*
X380564Y479800D01*
X382276D01*
X383929Y480243D01*
X385411Y481099D01*
X386621Y482309D01*
X387477Y483791D01*
X387920Y485444D01*
Y487156D01*
X387477Y488809D01*
X386621Y490291D01*
X385411Y491501D01*
X383929Y492357D01*
X382276Y492800D01*
D02*
G37*
G36*
X288936D02*
X287224D01*
X285571Y492357D01*
X284089Y491501D01*
X282879Y490291D01*
X282023Y488809D01*
X281580Y487156D01*
Y485444D01*
X282023Y483791D01*
X282879Y482309D01*
X284089Y481099D01*
X285571Y480243D01*
X287224Y479800D01*
X288936D01*
X290589Y480243D01*
X292071Y481099D01*
X293281Y482309D01*
X294137Y483791D01*
X294580Y485444D01*
Y487156D01*
X294137Y488809D01*
X293281Y490291D01*
X292071Y491501D01*
X290589Y492357D01*
X288936Y492800D01*
D02*
G37*
G36*
X195596D02*
X193884D01*
X192231Y492357D01*
X190749Y491501D01*
X189539Y490291D01*
X188683Y488809D01*
X188240Y487156D01*
Y485444D01*
X188683Y483791D01*
X189539Y482309D01*
X190749Y481099D01*
X192231Y480243D01*
X193884Y479800D01*
X195596D01*
X197249Y480243D01*
X198731Y481099D01*
X199941Y482309D01*
X200797Y483791D01*
X201240Y485444D01*
Y487156D01*
X200797Y488809D01*
X199941Y490291D01*
X198731Y491501D01*
X197249Y492357D01*
X195596Y492800D01*
D02*
G37*
G36*
X102256D02*
X100544D01*
X98891Y492357D01*
X97409Y491501D01*
X96199Y490291D01*
X95343Y488809D01*
X94900Y487156D01*
Y485444D01*
X95343Y483791D01*
X96199Y482309D01*
X97409Y481099D01*
X98891Y480243D01*
X100544Y479800D01*
X102256D01*
X103909Y480243D01*
X105391Y481099D01*
X106601Y482309D01*
X107457Y483791D01*
X107900Y485444D01*
Y487156D01*
X107457Y488809D01*
X106601Y490291D01*
X105391Y491501D01*
X103909Y492357D01*
X102256Y492800D01*
D02*
G37*
G36*
X758886Y485863D02*
X757494D01*
X756207Y485331D01*
X755223Y484346D01*
X754690Y483060D01*
Y481667D01*
X755223Y480381D01*
X756207Y479396D01*
X757494Y478863D01*
X758886D01*
X760173Y479396D01*
X761157Y480381D01*
X761690Y481667D01*
Y483060D01*
X761157Y484346D01*
X760173Y485331D01*
X758886Y485863D01*
D02*
G37*
G36*
X715216Y474226D02*
X713824D01*
X712537Y473693D01*
X711553Y472708D01*
X711020Y471422D01*
Y470029D01*
X711553Y468743D01*
X712537Y467758D01*
X713824Y467225D01*
X715216D01*
X716502Y467758D01*
X717487Y468743D01*
X718020Y470029D01*
Y471422D01*
X717487Y472708D01*
X716502Y473693D01*
X715216Y474226D01*
D02*
G37*
G36*
X702228Y467527D02*
X700836D01*
X699550Y466994D01*
X698565Y466010D01*
X698032Y464723D01*
Y463331D01*
X698565Y462044D01*
X699550Y461060D01*
X700836Y460527D01*
X702228D01*
X703515Y461060D01*
X704499Y462044D01*
X705032Y463331D01*
Y464723D01*
X704499Y466010D01*
X703515Y466994D01*
X702228Y467527D01*
D02*
G37*
G36*
X758886Y466863D02*
X757494D01*
X756207Y466330D01*
X755223Y465346D01*
X754690Y464059D01*
Y462667D01*
X755223Y461381D01*
X756207Y460396D01*
X757494Y459863D01*
X758886D01*
X760173Y460396D01*
X761157Y461381D01*
X761690Y462667D01*
Y464059D01*
X761157Y465346D01*
X760173Y466330D01*
X758886Y466863D01*
D02*
G37*
G36*
X767976Y454350D02*
X766584D01*
X765297Y453817D01*
X764313Y452833D01*
X763780Y451546D01*
Y450154D01*
X764313Y448867D01*
X765297Y447883D01*
X766584Y447350D01*
X767976D01*
X769263Y447883D01*
X770247Y448867D01*
X770780Y450154D01*
Y451546D01*
X770247Y452833D01*
X769263Y453817D01*
X767976Y454350D01*
D02*
G37*
G36*
X689211Y443185D02*
X687819D01*
X686532Y442652D01*
X685548Y441667D01*
X685015Y440381D01*
Y438989D01*
X685548Y437702D01*
X686532Y436718D01*
X687819Y436185D01*
X689211D01*
X690498Y436718D01*
X691482Y437702D01*
X692015Y438989D01*
Y440381D01*
X691482Y441667D01*
X690498Y442652D01*
X689211Y443185D01*
D02*
G37*
G36*
X568956Y446200D02*
X567244D01*
X565591Y445757D01*
X564109Y444901D01*
X562899Y443691D01*
X562043Y442209D01*
X561600Y440556D01*
Y438844D01*
X562043Y437191D01*
X562899Y435709D01*
X564109Y434499D01*
X565591Y433643D01*
X567244Y433200D01*
X568956D01*
X570609Y433643D01*
X572091Y434499D01*
X573301Y435709D01*
X574157Y437191D01*
X574600Y438844D01*
Y440556D01*
X574157Y442209D01*
X573301Y443691D01*
X572091Y444901D01*
X570609Y445757D01*
X568956Y446200D01*
D02*
G37*
G36*
X475616D02*
X473904D01*
X472251Y445757D01*
X470769Y444901D01*
X469559Y443691D01*
X468703Y442209D01*
X468260Y440556D01*
Y438844D01*
X468703Y437191D01*
X469559Y435709D01*
X470769Y434499D01*
X472251Y433643D01*
X473904Y433200D01*
X475616D01*
X477269Y433643D01*
X478751Y434499D01*
X479961Y435709D01*
X480817Y437191D01*
X481260Y438844D01*
Y440556D01*
X480817Y442209D01*
X479961Y443691D01*
X478751Y444901D01*
X477269Y445757D01*
X475616Y446200D01*
D02*
G37*
G36*
X382276D02*
X380564D01*
X378911Y445757D01*
X377429Y444901D01*
X376219Y443691D01*
X375363Y442209D01*
X374920Y440556D01*
Y438844D01*
X375363Y437191D01*
X376219Y435709D01*
X377429Y434499D01*
X378911Y433643D01*
X380564Y433200D01*
X382276D01*
X383929Y433643D01*
X385411Y434499D01*
X386621Y435709D01*
X387477Y437191D01*
X387920Y438844D01*
Y440556D01*
X387477Y442209D01*
X386621Y443691D01*
X385411Y444901D01*
X383929Y445757D01*
X382276Y446200D01*
D02*
G37*
G36*
X288936D02*
X287224D01*
X285571Y445757D01*
X284089Y444901D01*
X282879Y443691D01*
X282023Y442209D01*
X281580Y440556D01*
Y438844D01*
X282023Y437191D01*
X282879Y435709D01*
X284089Y434499D01*
X285571Y433643D01*
X287224Y433200D01*
X288936D01*
X290589Y433643D01*
X292071Y434499D01*
X293281Y435709D01*
X294137Y437191D01*
X294580Y438844D01*
Y440556D01*
X294137Y442209D01*
X293281Y443691D01*
X292071Y444901D01*
X290589Y445757D01*
X288936Y446200D01*
D02*
G37*
G36*
X195596D02*
X193884D01*
X192231Y445757D01*
X190749Y444901D01*
X189539Y443691D01*
X188683Y442209D01*
X188240Y440556D01*
Y438844D01*
X188683Y437191D01*
X189539Y435709D01*
X190749Y434499D01*
X192231Y433643D01*
X193884Y433200D01*
X195596D01*
X197249Y433643D01*
X198731Y434499D01*
X199941Y435709D01*
X200797Y437191D01*
X201240Y438844D01*
Y440556D01*
X200797Y442209D01*
X199941Y443691D01*
X198731Y444901D01*
X197249Y445757D01*
X195596Y446200D01*
D02*
G37*
G36*
X102256D02*
X100544D01*
X98891Y445757D01*
X97409Y444901D01*
X96199Y443691D01*
X95343Y442209D01*
X94900Y440556D01*
Y438844D01*
X95343Y437191D01*
X96199Y435709D01*
X97409Y434499D01*
X98891Y433643D01*
X100544Y433200D01*
X102256D01*
X103909Y433643D01*
X105391Y434499D01*
X106601Y435709D01*
X107457Y437191D01*
X107900Y438844D01*
Y440556D01*
X107457Y442209D01*
X106601Y443691D01*
X105391Y444901D01*
X103909Y445757D01*
X102256Y446200D01*
D02*
G37*
G36*
X676225Y437625D02*
X674833D01*
X673546Y437093D01*
X672562Y436108D01*
X672029Y434822D01*
Y433429D01*
X672562Y432143D01*
X673546Y431158D01*
X674833Y430625D01*
X676225D01*
X677511Y431158D01*
X678496Y432143D01*
X679029Y433429D01*
Y434822D01*
X678496Y436108D01*
X677511Y437093D01*
X676225Y437625D01*
D02*
G37*
G36*
X581656Y433500D02*
X579944D01*
X578291Y433057D01*
X576809Y432201D01*
X575599Y430991D01*
X574743Y429509D01*
X574300Y427856D01*
Y426144D01*
X574743Y424491D01*
X575599Y423009D01*
X576809Y421799D01*
X578291Y420943D01*
X579944Y420500D01*
X581656D01*
X583309Y420943D01*
X584791Y421799D01*
X586001Y423009D01*
X586857Y424491D01*
X587300Y426144D01*
Y427856D01*
X586857Y429509D01*
X586001Y430991D01*
X584791Y432201D01*
X583309Y433057D01*
X581656Y433500D01*
D02*
G37*
G36*
X556256D02*
X554544D01*
X552891Y433057D01*
X551409Y432201D01*
X550199Y430991D01*
X549343Y429509D01*
X548900Y427856D01*
Y426144D01*
X549343Y424491D01*
X550199Y423009D01*
X551409Y421799D01*
X552891Y420943D01*
X554544Y420500D01*
X556256D01*
X557909Y420943D01*
X559391Y421799D01*
X560601Y423009D01*
X561457Y424491D01*
X561900Y426144D01*
Y427856D01*
X561457Y429509D01*
X560601Y430991D01*
X559391Y432201D01*
X557909Y433057D01*
X556256Y433500D01*
D02*
G37*
G36*
X488316D02*
X486604D01*
X484951Y433057D01*
X483469Y432201D01*
X482259Y430991D01*
X481403Y429509D01*
X480960Y427856D01*
Y426144D01*
X481403Y424491D01*
X482259Y423009D01*
X483469Y421799D01*
X484951Y420943D01*
X486604Y420500D01*
X488316D01*
X489969Y420943D01*
X491451Y421799D01*
X492661Y423009D01*
X493517Y424491D01*
X493960Y426144D01*
Y427856D01*
X493517Y429509D01*
X492661Y430991D01*
X491451Y432201D01*
X489969Y433057D01*
X488316Y433500D01*
D02*
G37*
G36*
X462916D02*
X461204D01*
X459551Y433057D01*
X458069Y432201D01*
X456859Y430991D01*
X456003Y429509D01*
X455560Y427856D01*
Y426144D01*
X456003Y424491D01*
X456859Y423009D01*
X458069Y421799D01*
X459551Y420943D01*
X461204Y420500D01*
X462916D01*
X464569Y420943D01*
X466051Y421799D01*
X467261Y423009D01*
X468117Y424491D01*
X468560Y426144D01*
Y427856D01*
X468117Y429509D01*
X467261Y430991D01*
X466051Y432201D01*
X464569Y433057D01*
X462916Y433500D01*
D02*
G37*
G36*
X394976D02*
X393264D01*
X391611Y433057D01*
X390129Y432201D01*
X388919Y430991D01*
X388063Y429509D01*
X387620Y427856D01*
Y426144D01*
X388063Y424491D01*
X388919Y423009D01*
X390129Y421799D01*
X391611Y420943D01*
X393264Y420500D01*
X394976D01*
X396629Y420943D01*
X398111Y421799D01*
X399321Y423009D01*
X400177Y424491D01*
X400620Y426144D01*
Y427856D01*
X400177Y429509D01*
X399321Y430991D01*
X398111Y432201D01*
X396629Y433057D01*
X394976Y433500D01*
D02*
G37*
G36*
X369576D02*
X367864D01*
X366211Y433057D01*
X364729Y432201D01*
X363519Y430991D01*
X362663Y429509D01*
X362220Y427856D01*
Y426144D01*
X362663Y424491D01*
X363519Y423009D01*
X364729Y421799D01*
X366211Y420943D01*
X367864Y420500D01*
X369576D01*
X371229Y420943D01*
X372711Y421799D01*
X373921Y423009D01*
X374777Y424491D01*
X375220Y426144D01*
Y427856D01*
X374777Y429509D01*
X373921Y430991D01*
X372711Y432201D01*
X371229Y433057D01*
X369576Y433500D01*
D02*
G37*
G36*
X301636D02*
X299924D01*
X298271Y433057D01*
X296789Y432201D01*
X295579Y430991D01*
X294723Y429509D01*
X294280Y427856D01*
Y426144D01*
X294723Y424491D01*
X295579Y423009D01*
X296789Y421799D01*
X298271Y420943D01*
X299924Y420500D01*
X301636D01*
X303289Y420943D01*
X304771Y421799D01*
X305981Y423009D01*
X306837Y424491D01*
X307280Y426144D01*
Y427856D01*
X306837Y429509D01*
X305981Y430991D01*
X304771Y432201D01*
X303289Y433057D01*
X301636Y433500D01*
D02*
G37*
G36*
X276236D02*
X274524D01*
X272871Y433057D01*
X271389Y432201D01*
X270179Y430991D01*
X269323Y429509D01*
X268880Y427856D01*
Y426144D01*
X269323Y424491D01*
X270179Y423009D01*
X271389Y421799D01*
X272871Y420943D01*
X274524Y420500D01*
X276236D01*
X277889Y420943D01*
X279371Y421799D01*
X280581Y423009D01*
X281437Y424491D01*
X281880Y426144D01*
Y427856D01*
X281437Y429509D01*
X280581Y430991D01*
X279371Y432201D01*
X277889Y433057D01*
X276236Y433500D01*
D02*
G37*
G36*
X208296D02*
X206584D01*
X204931Y433057D01*
X203449Y432201D01*
X202239Y430991D01*
X201383Y429509D01*
X200940Y427856D01*
Y426144D01*
X201383Y424491D01*
X202239Y423009D01*
X203449Y421799D01*
X204931Y420943D01*
X206584Y420500D01*
X208296D01*
X209949Y420943D01*
X211431Y421799D01*
X212641Y423009D01*
X213497Y424491D01*
X213940Y426144D01*
Y427856D01*
X213497Y429509D01*
X212641Y430991D01*
X211431Y432201D01*
X209949Y433057D01*
X208296Y433500D01*
D02*
G37*
G36*
X182896D02*
X181184D01*
X179531Y433057D01*
X178049Y432201D01*
X176839Y430991D01*
X175983Y429509D01*
X175540Y427856D01*
Y426144D01*
X175983Y424491D01*
X176839Y423009D01*
X178049Y421799D01*
X179531Y420943D01*
X181184Y420500D01*
X182896D01*
X184549Y420943D01*
X186031Y421799D01*
X187241Y423009D01*
X188097Y424491D01*
X188540Y426144D01*
Y427856D01*
X188097Y429509D01*
X187241Y430991D01*
X186031Y432201D01*
X184549Y433057D01*
X182896Y433500D01*
D02*
G37*
G36*
X114956D02*
X113244D01*
X111591Y433057D01*
X110109Y432201D01*
X108899Y430991D01*
X108043Y429509D01*
X107600Y427856D01*
Y426144D01*
X108043Y424491D01*
X108899Y423009D01*
X110109Y421799D01*
X111591Y420943D01*
X113244Y420500D01*
X114956D01*
X116609Y420943D01*
X118091Y421799D01*
X119301Y423009D01*
X120157Y424491D01*
X120600Y426144D01*
Y427856D01*
X120157Y429509D01*
X119301Y430991D01*
X118091Y432201D01*
X116609Y433057D01*
X114956Y433500D01*
D02*
G37*
G36*
X89556D02*
X87844D01*
X86191Y433057D01*
X84709Y432201D01*
X83499Y430991D01*
X82643Y429509D01*
X82200Y427856D01*
Y426144D01*
X82643Y424491D01*
X83499Y423009D01*
X84709Y421799D01*
X86191Y420943D01*
X87844Y420500D01*
X89556D01*
X91209Y420943D01*
X92691Y421799D01*
X93901Y423009D01*
X94757Y424491D01*
X95200Y426144D01*
Y427856D01*
X94757Y429509D01*
X93901Y430991D01*
X92691Y432201D01*
X91209Y433057D01*
X89556Y433500D01*
D02*
G37*
G36*
X715319Y416849D02*
X713927D01*
X712640Y416316D01*
X711656Y415331D01*
X711123Y414045D01*
Y412652D01*
X711656Y411366D01*
X712640Y410381D01*
X713927Y409849D01*
X715319D01*
X716605Y410381D01*
X717590Y411366D01*
X718123Y412652D01*
Y414045D01*
X717590Y415331D01*
X716605Y416316D01*
X715319Y416849D01*
D02*
G37*
G36*
X568956Y420800D02*
X567244D01*
X565591Y420357D01*
X564109Y419501D01*
X562899Y418291D01*
X562043Y416809D01*
X561600Y415156D01*
Y413444D01*
X562043Y411791D01*
X562899Y410309D01*
X564109Y409099D01*
X565591Y408243D01*
X567244Y407800D01*
X568956D01*
X570609Y408243D01*
X572091Y409099D01*
X573301Y410309D01*
X574157Y411791D01*
X574600Y413444D01*
Y415156D01*
X574157Y416809D01*
X573301Y418291D01*
X572091Y419501D01*
X570609Y420357D01*
X568956Y420800D01*
D02*
G37*
G36*
X475616D02*
X473904D01*
X472251Y420357D01*
X470769Y419501D01*
X469559Y418291D01*
X468703Y416809D01*
X468260Y415156D01*
Y413444D01*
X468703Y411791D01*
X469559Y410309D01*
X470769Y409099D01*
X472251Y408243D01*
X473904Y407800D01*
X475616D01*
X477269Y408243D01*
X478751Y409099D01*
X479961Y410309D01*
X480817Y411791D01*
X481260Y413444D01*
Y415156D01*
X480817Y416809D01*
X479961Y418291D01*
X478751Y419501D01*
X477269Y420357D01*
X475616Y420800D01*
D02*
G37*
G36*
X382276D02*
X380564D01*
X378911Y420357D01*
X377429Y419501D01*
X376219Y418291D01*
X375363Y416809D01*
X374920Y415156D01*
Y413444D01*
X375363Y411791D01*
X376219Y410309D01*
X377429Y409099D01*
X378911Y408243D01*
X380564Y407800D01*
X382276D01*
X383929Y408243D01*
X385411Y409099D01*
X386621Y410309D01*
X387477Y411791D01*
X387920Y413444D01*
Y415156D01*
X387477Y416809D01*
X386621Y418291D01*
X385411Y419501D01*
X383929Y420357D01*
X382276Y420800D01*
D02*
G37*
G36*
X288936D02*
X287224D01*
X285571Y420357D01*
X284089Y419501D01*
X282879Y418291D01*
X282023Y416809D01*
X281580Y415156D01*
Y413444D01*
X282023Y411791D01*
X282879Y410309D01*
X284089Y409099D01*
X285571Y408243D01*
X287224Y407800D01*
X288936D01*
X290589Y408243D01*
X292071Y409099D01*
X293281Y410309D01*
X294137Y411791D01*
X294580Y413444D01*
Y415156D01*
X294137Y416809D01*
X293281Y418291D01*
X292071Y419501D01*
X290589Y420357D01*
X288936Y420800D01*
D02*
G37*
G36*
X195596D02*
X193884D01*
X192231Y420357D01*
X190749Y419501D01*
X189539Y418291D01*
X188683Y416809D01*
X188240Y415156D01*
Y413444D01*
X188683Y411791D01*
X189539Y410309D01*
X190749Y409099D01*
X192231Y408243D01*
X193884Y407800D01*
X195596D01*
X197249Y408243D01*
X198731Y409099D01*
X199941Y410309D01*
X200797Y411791D01*
X201240Y413444D01*
Y415156D01*
X200797Y416809D01*
X199941Y418291D01*
X198731Y419501D01*
X197249Y420357D01*
X195596Y420800D01*
D02*
G37*
G36*
X102256D02*
X100544D01*
X98891Y420357D01*
X97409Y419501D01*
X96199Y418291D01*
X95343Y416809D01*
X94900Y415156D01*
Y413444D01*
X95343Y411791D01*
X96199Y410309D01*
X97409Y409099D01*
X98891Y408243D01*
X100544Y407800D01*
X102256D01*
X103909Y408243D01*
X105391Y409099D01*
X106601Y410309D01*
X107457Y411791D01*
X107900Y413444D01*
Y415156D01*
X107457Y416809D01*
X106601Y418291D01*
X105391Y419501D01*
X103909Y420357D01*
X102256Y420800D01*
D02*
G37*
G36*
X702233Y411309D02*
X700840D01*
X699554Y410776D01*
X698569Y409791D01*
X698036Y408505D01*
Y407113D01*
X698569Y405826D01*
X699554Y404842D01*
X700840Y404309D01*
X702233D01*
X703519Y404842D01*
X704504Y405826D01*
X705036Y407113D01*
Y408505D01*
X704504Y409791D01*
X703519Y410776D01*
X702233Y411309D01*
D02*
G37*
G36*
X715211Y390665D02*
X713819D01*
X712532Y390133D01*
X711548Y389148D01*
X711015Y387862D01*
Y386469D01*
X711548Y385183D01*
X712532Y384198D01*
X713819Y383666D01*
X715211D01*
X716498Y384198D01*
X717482Y385183D01*
X718015Y386469D01*
Y387862D01*
X717482Y389148D01*
X716498Y390133D01*
X715211Y390665D01*
D02*
G37*
G36*
X702255Y384823D02*
X700863D01*
X699576Y384290D01*
X698592Y383305D01*
X698059Y382019D01*
Y380627D01*
X698592Y379340D01*
X699576Y378356D01*
X700863Y377823D01*
X702255D01*
X703542Y378356D01*
X704526Y379340D01*
X705059Y380627D01*
Y382019D01*
X704526Y383305D01*
X703542Y384290D01*
X702255Y384823D01*
D02*
G37*
G36*
X568956Y374200D02*
X567244D01*
X565591Y373757D01*
X564109Y372901D01*
X562899Y371691D01*
X562043Y370209D01*
X561600Y368556D01*
Y366844D01*
X562043Y365191D01*
X562899Y363709D01*
X564109Y362499D01*
X565591Y361643D01*
X567244Y361200D01*
X568956D01*
X570609Y361643D01*
X572091Y362499D01*
X573301Y363709D01*
X574157Y365191D01*
X574600Y366844D01*
Y368556D01*
X574157Y370209D01*
X573301Y371691D01*
X572091Y372901D01*
X570609Y373757D01*
X568956Y374200D01*
D02*
G37*
G36*
X475616D02*
X473904D01*
X472251Y373757D01*
X470769Y372901D01*
X469559Y371691D01*
X468703Y370209D01*
X468260Y368556D01*
Y366844D01*
X468703Y365191D01*
X469559Y363709D01*
X470769Y362499D01*
X472251Y361643D01*
X473904Y361200D01*
X475616D01*
X477269Y361643D01*
X478751Y362499D01*
X479961Y363709D01*
X480817Y365191D01*
X481260Y366844D01*
Y368556D01*
X480817Y370209D01*
X479961Y371691D01*
X478751Y372901D01*
X477269Y373757D01*
X475616Y374200D01*
D02*
G37*
G36*
X382276D02*
X380564D01*
X378911Y373757D01*
X377429Y372901D01*
X376219Y371691D01*
X375363Y370209D01*
X374920Y368556D01*
Y366844D01*
X375363Y365191D01*
X376219Y363709D01*
X377429Y362499D01*
X378911Y361643D01*
X380564Y361200D01*
X382276D01*
X383929Y361643D01*
X385411Y362499D01*
X386621Y363709D01*
X387477Y365191D01*
X387920Y366844D01*
Y368556D01*
X387477Y370209D01*
X386621Y371691D01*
X385411Y372901D01*
X383929Y373757D01*
X382276Y374200D01*
D02*
G37*
G36*
X288936D02*
X287224D01*
X285571Y373757D01*
X284089Y372901D01*
X282879Y371691D01*
X282023Y370209D01*
X281580Y368556D01*
Y366844D01*
X282023Y365191D01*
X282879Y363709D01*
X284089Y362499D01*
X285571Y361643D01*
X287224Y361200D01*
X288936D01*
X290589Y361643D01*
X292071Y362499D01*
X293281Y363709D01*
X294137Y365191D01*
X294580Y366844D01*
Y368556D01*
X294137Y370209D01*
X293281Y371691D01*
X292071Y372901D01*
X290589Y373757D01*
X288936Y374200D01*
D02*
G37*
G36*
X195596D02*
X193884D01*
X192231Y373757D01*
X190749Y372901D01*
X189539Y371691D01*
X188683Y370209D01*
X188240Y368556D01*
Y366844D01*
X188683Y365191D01*
X189539Y363709D01*
X190749Y362499D01*
X192231Y361643D01*
X193884Y361200D01*
X195596D01*
X197249Y361643D01*
X198731Y362499D01*
X199941Y363709D01*
X200797Y365191D01*
X201240Y366844D01*
Y368556D01*
X200797Y370209D01*
X199941Y371691D01*
X198731Y372901D01*
X197249Y373757D01*
X195596Y374200D01*
D02*
G37*
G36*
X102256D02*
X100544D01*
X98891Y373757D01*
X97409Y372901D01*
X96199Y371691D01*
X95343Y370209D01*
X94900Y368556D01*
Y366844D01*
X95343Y365191D01*
X96199Y363709D01*
X97409Y362499D01*
X98891Y361643D01*
X100544Y361200D01*
X102256D01*
X103909Y361643D01*
X105391Y362499D01*
X106601Y363709D01*
X107457Y365191D01*
X107900Y366844D01*
Y368556D01*
X107457Y370209D01*
X106601Y371691D01*
X105391Y372901D01*
X103909Y373757D01*
X102256Y374200D01*
D02*
G37*
G36*
X689229Y360078D02*
X687837D01*
X686551Y359545D01*
X685566Y358560D01*
X685033Y357274D01*
Y355881D01*
X685566Y354595D01*
X686551Y353610D01*
X687837Y353078D01*
X689229D01*
X690516Y353610D01*
X691500Y354595D01*
X692033Y355881D01*
Y357274D01*
X691500Y358560D01*
X690516Y359545D01*
X689229Y360078D01*
D02*
G37*
G36*
X581656Y361500D02*
X579944D01*
X578291Y361057D01*
X576809Y360201D01*
X575599Y358991D01*
X574743Y357509D01*
X574300Y355856D01*
Y354144D01*
X574743Y352491D01*
X575599Y351009D01*
X576809Y349799D01*
X578291Y348943D01*
X579944Y348500D01*
X581656D01*
X583309Y348943D01*
X584791Y349799D01*
X586001Y351009D01*
X586857Y352491D01*
X587300Y354144D01*
Y355856D01*
X586857Y357509D01*
X586001Y358991D01*
X584791Y360201D01*
X583309Y361057D01*
X581656Y361500D01*
D02*
G37*
G36*
X556256D02*
X554544D01*
X552891Y361057D01*
X551409Y360201D01*
X550199Y358991D01*
X549343Y357509D01*
X548900Y355856D01*
Y354144D01*
X549343Y352491D01*
X550199Y351009D01*
X551409Y349799D01*
X552891Y348943D01*
X554544Y348500D01*
X556256D01*
X557909Y348943D01*
X559391Y349799D01*
X560601Y351009D01*
X561457Y352491D01*
X561900Y354144D01*
Y355856D01*
X561457Y357509D01*
X560601Y358991D01*
X559391Y360201D01*
X557909Y361057D01*
X556256Y361500D01*
D02*
G37*
G36*
X488316D02*
X486604D01*
X484951Y361057D01*
X483469Y360201D01*
X482259Y358991D01*
X481403Y357509D01*
X480960Y355856D01*
Y354144D01*
X481403Y352491D01*
X482259Y351009D01*
X483469Y349799D01*
X484951Y348943D01*
X486604Y348500D01*
X488316D01*
X489969Y348943D01*
X491451Y349799D01*
X492661Y351009D01*
X493517Y352491D01*
X493960Y354144D01*
Y355856D01*
X493517Y357509D01*
X492661Y358991D01*
X491451Y360201D01*
X489969Y361057D01*
X488316Y361500D01*
D02*
G37*
G36*
X462916D02*
X461204D01*
X459551Y361057D01*
X458069Y360201D01*
X456859Y358991D01*
X456003Y357509D01*
X455560Y355856D01*
Y354144D01*
X456003Y352491D01*
X456859Y351009D01*
X458069Y349799D01*
X459551Y348943D01*
X461204Y348500D01*
X462916D01*
X464569Y348943D01*
X466051Y349799D01*
X467261Y351009D01*
X468117Y352491D01*
X468560Y354144D01*
Y355856D01*
X468117Y357509D01*
X467261Y358991D01*
X466051Y360201D01*
X464569Y361057D01*
X462916Y361500D01*
D02*
G37*
G36*
X394976D02*
X393264D01*
X391611Y361057D01*
X390129Y360201D01*
X388919Y358991D01*
X388063Y357509D01*
X387620Y355856D01*
Y354144D01*
X388063Y352491D01*
X388919Y351009D01*
X390129Y349799D01*
X391611Y348943D01*
X393264Y348500D01*
X394976D01*
X396629Y348943D01*
X398111Y349799D01*
X399321Y351009D01*
X400177Y352491D01*
X400620Y354144D01*
Y355856D01*
X400177Y357509D01*
X399321Y358991D01*
X398111Y360201D01*
X396629Y361057D01*
X394976Y361500D01*
D02*
G37*
G36*
X369576D02*
X367864D01*
X366211Y361057D01*
X364729Y360201D01*
X363519Y358991D01*
X362663Y357509D01*
X362220Y355856D01*
Y354144D01*
X362663Y352491D01*
X363519Y351009D01*
X364729Y349799D01*
X366211Y348943D01*
X367864Y348500D01*
X369576D01*
X371229Y348943D01*
X372711Y349799D01*
X373921Y351009D01*
X374777Y352491D01*
X375220Y354144D01*
Y355856D01*
X374777Y357509D01*
X373921Y358991D01*
X372711Y360201D01*
X371229Y361057D01*
X369576Y361500D01*
D02*
G37*
G36*
X301636D02*
X299924D01*
X298271Y361057D01*
X296789Y360201D01*
X295579Y358991D01*
X294723Y357509D01*
X294280Y355856D01*
Y354144D01*
X294723Y352491D01*
X295579Y351009D01*
X296789Y349799D01*
X298271Y348943D01*
X299924Y348500D01*
X301636D01*
X303289Y348943D01*
X304771Y349799D01*
X305981Y351009D01*
X306837Y352491D01*
X307280Y354144D01*
Y355856D01*
X306837Y357509D01*
X305981Y358991D01*
X304771Y360201D01*
X303289Y361057D01*
X301636Y361500D01*
D02*
G37*
G36*
X276236D02*
X274524D01*
X272871Y361057D01*
X271389Y360201D01*
X270179Y358991D01*
X269323Y357509D01*
X268880Y355856D01*
Y354144D01*
X269323Y352491D01*
X270179Y351009D01*
X271389Y349799D01*
X272871Y348943D01*
X274524Y348500D01*
X276236D01*
X277889Y348943D01*
X279371Y349799D01*
X280581Y351009D01*
X281437Y352491D01*
X281880Y354144D01*
Y355856D01*
X281437Y357509D01*
X280581Y358991D01*
X279371Y360201D01*
X277889Y361057D01*
X276236Y361500D01*
D02*
G37*
G36*
X208296D02*
X206584D01*
X204931Y361057D01*
X203449Y360201D01*
X202239Y358991D01*
X201383Y357509D01*
X200940Y355856D01*
Y354144D01*
X201383Y352491D01*
X202239Y351009D01*
X203449Y349799D01*
X204931Y348943D01*
X206584Y348500D01*
X208296D01*
X209949Y348943D01*
X211431Y349799D01*
X212641Y351009D01*
X213497Y352491D01*
X213940Y354144D01*
Y355856D01*
X213497Y357509D01*
X212641Y358991D01*
X211431Y360201D01*
X209949Y361057D01*
X208296Y361500D01*
D02*
G37*
G36*
X182896D02*
X181184D01*
X179531Y361057D01*
X178049Y360201D01*
X176839Y358991D01*
X175983Y357509D01*
X175540Y355856D01*
Y354144D01*
X175983Y352491D01*
X176839Y351009D01*
X178049Y349799D01*
X179531Y348943D01*
X181184Y348500D01*
X182896D01*
X184549Y348943D01*
X186031Y349799D01*
X187241Y351009D01*
X188097Y352491D01*
X188540Y354144D01*
Y355856D01*
X188097Y357509D01*
X187241Y358991D01*
X186031Y360201D01*
X184549Y361057D01*
X182896Y361500D01*
D02*
G37*
G36*
X114956D02*
X113244D01*
X111591Y361057D01*
X110109Y360201D01*
X108899Y358991D01*
X108043Y357509D01*
X107600Y355856D01*
Y354144D01*
X108043Y352491D01*
X108899Y351009D01*
X110109Y349799D01*
X111591Y348943D01*
X113244Y348500D01*
X114956D01*
X116609Y348943D01*
X118091Y349799D01*
X119301Y351009D01*
X120157Y352491D01*
X120600Y354144D01*
Y355856D01*
X120157Y357509D01*
X119301Y358991D01*
X118091Y360201D01*
X116609Y361057D01*
X114956Y361500D01*
D02*
G37*
G36*
X89556D02*
X87844D01*
X86191Y361057D01*
X84709Y360201D01*
X83499Y358991D01*
X82643Y357509D01*
X82200Y355856D01*
Y354144D01*
X82643Y352491D01*
X83499Y351009D01*
X84709Y349799D01*
X86191Y348943D01*
X87844Y348500D01*
X89556D01*
X91209Y348943D01*
X92691Y349799D01*
X93901Y351009D01*
X94757Y352491D01*
X95200Y354144D01*
Y355856D01*
X94757Y357509D01*
X93901Y358991D01*
X92691Y360201D01*
X91209Y361057D01*
X89556Y361500D01*
D02*
G37*
G36*
X676124Y354565D02*
X674732D01*
X673445Y354032D01*
X672461Y353047D01*
X671928Y351761D01*
Y350368D01*
X672461Y349082D01*
X673445Y348097D01*
X674732Y347565D01*
X676124D01*
X677411Y348097D01*
X678395Y349082D01*
X678928Y350368D01*
Y351761D01*
X678395Y353047D01*
X677411Y354032D01*
X676124Y354565D01*
D02*
G37*
G36*
X568956Y348800D02*
X567244D01*
X565591Y348357D01*
X564109Y347501D01*
X562899Y346291D01*
X562043Y344809D01*
X561600Y343156D01*
Y341444D01*
X562043Y339791D01*
X562899Y338309D01*
X564109Y337099D01*
X565591Y336243D01*
X567244Y335800D01*
X568956D01*
X570609Y336243D01*
X572091Y337099D01*
X573301Y338309D01*
X574157Y339791D01*
X574600Y341444D01*
Y343156D01*
X574157Y344809D01*
X573301Y346291D01*
X572091Y347501D01*
X570609Y348357D01*
X568956Y348800D01*
D02*
G37*
G36*
X475616D02*
X473904D01*
X472251Y348357D01*
X470769Y347501D01*
X469559Y346291D01*
X468703Y344809D01*
X468260Y343156D01*
Y341444D01*
X468703Y339791D01*
X469559Y338309D01*
X470769Y337099D01*
X472251Y336243D01*
X473904Y335800D01*
X475616D01*
X477269Y336243D01*
X478751Y337099D01*
X479961Y338309D01*
X480817Y339791D01*
X481260Y341444D01*
Y343156D01*
X480817Y344809D01*
X479961Y346291D01*
X478751Y347501D01*
X477269Y348357D01*
X475616Y348800D01*
D02*
G37*
G36*
X382276D02*
X380564D01*
X378911Y348357D01*
X377429Y347501D01*
X376219Y346291D01*
X375363Y344809D01*
X374920Y343156D01*
Y341444D01*
X375363Y339791D01*
X376219Y338309D01*
X377429Y337099D01*
X378911Y336243D01*
X380564Y335800D01*
X382276D01*
X383929Y336243D01*
X385411Y337099D01*
X386621Y338309D01*
X387477Y339791D01*
X387920Y341444D01*
Y343156D01*
X387477Y344809D01*
X386621Y346291D01*
X385411Y347501D01*
X383929Y348357D01*
X382276Y348800D01*
D02*
G37*
G36*
X288936D02*
X287224D01*
X285571Y348357D01*
X284089Y347501D01*
X282879Y346291D01*
X282023Y344809D01*
X281580Y343156D01*
Y341444D01*
X282023Y339791D01*
X282879Y338309D01*
X284089Y337099D01*
X285571Y336243D01*
X287224Y335800D01*
X288936D01*
X290589Y336243D01*
X292071Y337099D01*
X293281Y338309D01*
X294137Y339791D01*
X294580Y341444D01*
Y343156D01*
X294137Y344809D01*
X293281Y346291D01*
X292071Y347501D01*
X290589Y348357D01*
X288936Y348800D01*
D02*
G37*
G36*
X102256D02*
X100544D01*
X98891Y348357D01*
X97409Y347501D01*
X96199Y346291D01*
X95343Y344809D01*
X94900Y343156D01*
Y341444D01*
X95343Y339791D01*
X96199Y338309D01*
X97409Y337099D01*
X98891Y336243D01*
X100544Y335800D01*
X102256D01*
X103909Y336243D01*
X105391Y337099D01*
X106601Y338309D01*
X107457Y339791D01*
X107900Y341444D01*
Y343156D01*
X107457Y344809D01*
X106601Y346291D01*
X105391Y347501D01*
X103909Y348357D01*
X102256Y348800D01*
D02*
G37*
G36*
X715211Y329890D02*
X713819D01*
X712532Y329357D01*
X711548Y328373D01*
X711015Y327086D01*
Y325694D01*
X711548Y324407D01*
X712532Y323423D01*
X713819Y322890D01*
X715211D01*
X716498Y323423D01*
X717482Y324407D01*
X718015Y325694D01*
Y327086D01*
X717482Y328373D01*
X716498Y329357D01*
X715211Y329890D01*
D02*
G37*
G36*
X702252D02*
X700860D01*
X699573Y329357D01*
X698589Y328373D01*
X698056Y327086D01*
Y325694D01*
X698589Y324407D01*
X699573Y323423D01*
X700860Y322890D01*
X702252D01*
X703538Y323423D01*
X704523Y324407D01*
X705056Y325694D01*
Y327086D01*
X704523Y328373D01*
X703538Y329357D01*
X702252Y329890D01*
D02*
G37*
G36*
X643890Y792115D02*
X643545Y792046D01*
X643194D01*
X642869Y791911D01*
X642524Y791843D01*
X642232Y791648D01*
X641907Y791513D01*
X641659Y791265D01*
X641367Y791069D01*
X641171Y790777D01*
X640923Y790529D01*
X640788Y790204D01*
X640593Y789912D01*
X640525Y789567D01*
X640390Y789242D01*
Y788891D01*
X640321Y788546D01*
Y705564D01*
Y622581D01*
Y539750D01*
Y453390D01*
Y373634D01*
Y319390D01*
X640390Y319045D01*
Y318694D01*
X640525Y318369D01*
X640593Y318024D01*
X640788Y317732D01*
X640923Y317407D01*
X641171Y317159D01*
X641367Y316867D01*
X641659Y316671D01*
X641907Y316423D01*
X642232Y316288D01*
X642524Y316093D01*
X642869Y316024D01*
X643194Y315890D01*
X643545D01*
X643890Y315821D01*
X644235Y315890D01*
X644586D01*
X644676Y315927D01*
X645357Y315645D01*
X645786Y315280D01*
X645946Y315034D01*
Y309880D01*
X646015Y309535D01*
Y309184D01*
X646150Y308859D01*
X646218Y308514D01*
X646413Y308222D01*
X646548Y307897D01*
X646796Y307649D01*
X646992Y307357D01*
X647284Y307161D01*
X647532Y306913D01*
X647857Y306778D01*
X648149Y306583D01*
X648479Y306518D01*
X648494Y306514D01*
X648494Y306514D01*
X648819Y306380D01*
X648834Y306338D01*
X647941Y305068D01*
X646660D01*
X637808Y313920D01*
Y319390D01*
Y363870D01*
Y446852D01*
Y485355D01*
Y529835D01*
Y568337D01*
Y612817D01*
Y651320D01*
Y756542D01*
X637498Y758103D01*
X636614Y759426D01*
X635291Y760310D01*
X633730Y760620D01*
X632169Y760310D01*
X630846Y759426D01*
X629962Y758103D01*
X629652Y756542D01*
Y677072D01*
X628382Y676393D01*
X627671Y676868D01*
X626110Y677178D01*
X624549Y676868D01*
X623226Y675984D01*
X622342Y674661D01*
X622032Y673100D01*
X622032Y342049D01*
X609181Y329198D01*
X335200D01*
X333639Y328888D01*
X332316Y328004D01*
X287546Y283234D01*
X286662Y281911D01*
X286352Y280350D01*
X286662Y278790D01*
X287546Y277467D01*
X288869Y276583D01*
X290430Y276272D01*
X291991Y276583D01*
X293314Y277467D01*
X296221Y280373D01*
X296273Y280372D01*
X297156Y280106D01*
X297490Y279847D01*
Y279654D01*
X297625Y279330D01*
X297693Y278985D01*
X297889Y278693D01*
X298023Y278368D01*
X298272Y278119D01*
X298467Y277827D01*
X298759Y277632D01*
X299008Y277383D01*
X299332Y277249D01*
X299625Y277054D01*
X299969Y276985D01*
X300294Y276850D01*
X300645D01*
X300990Y276782D01*
X301335Y276850D01*
X301686D01*
X302011Y276985D01*
X302356Y277054D01*
X302648Y277249D01*
X302973Y277383D01*
X303221Y277632D01*
X303514Y277827D01*
X315273Y289587D01*
X319554D01*
X319899Y289655D01*
X320250D01*
X320575Y289790D01*
X320920Y289859D01*
X321212Y290054D01*
X321537Y290188D01*
X321785Y290437D01*
X322077Y290632D01*
X322273Y290924D01*
X322521Y291173D01*
X322656Y291498D01*
X322851Y291790D01*
X322920Y292135D01*
X323054Y292459D01*
Y292811D01*
X323123Y293155D01*
X323054Y293500D01*
Y293852D01*
X322920Y294176D01*
X322851Y294521D01*
X322656Y294813D01*
X322521Y295138D01*
X322273Y295387D01*
X322077Y295679D01*
X321785Y295874D01*
X321537Y296123D01*
X321212Y296257D01*
X320920Y296452D01*
X320575Y296521D01*
X320250Y296656D01*
X319899D01*
X319554Y296724D01*
X314368D01*
X313841Y297994D01*
X336889Y321042D01*
X610870D01*
X610870Y321042D01*
X612431Y321352D01*
X613754Y322236D01*
X628382Y336864D01*
X629652Y336338D01*
Y319390D01*
Y316498D01*
X506198D01*
X506198Y316498D01*
X504637Y316188D01*
X503314Y315304D01*
X502430Y313981D01*
X502119Y312420D01*
X502430Y310859D01*
X503314Y309536D01*
X504637Y308652D01*
X506198Y308342D01*
X631851D01*
X642087Y298106D01*
X643410Y297222D01*
X644971Y296912D01*
X644971Y296912D01*
X720090D01*
X720090Y296912D01*
X721651Y297222D01*
X722974Y298106D01*
X740720Y315852D01*
X740865Y315847D01*
X741990Y315450D01*
Y315417D01*
X742523Y314130D01*
X743507Y313146D01*
X744794Y312613D01*
X746186D01*
X747473Y313146D01*
X748457Y314130D01*
X748990Y315417D01*
Y316809D01*
X748457Y318096D01*
X747473Y319080D01*
X746186Y319613D01*
X744794D01*
X743507Y319080D01*
X743218Y318791D01*
X741948Y319317D01*
Y395891D01*
X743218Y396417D01*
X743507Y396128D01*
X744794Y395595D01*
X746186D01*
X747473Y396128D01*
X748457Y397113D01*
X748990Y398399D01*
Y399792D01*
X748457Y401078D01*
X747473Y402062D01*
X746186Y402595D01*
X744794D01*
X743507Y402062D01*
X743218Y401773D01*
X741948Y402300D01*
Y478874D01*
X743218Y479400D01*
X743507Y479111D01*
X744794Y478578D01*
X746186D01*
X747473Y479111D01*
X748457Y480095D01*
X748990Y481382D01*
Y482774D01*
X748457Y484060D01*
X747473Y485045D01*
X746186Y485578D01*
X744794D01*
X743507Y485045D01*
X743218Y484756D01*
X741948Y485282D01*
Y512051D01*
X767080D01*
X767425Y512120D01*
X767776D01*
X768101Y512254D01*
X768446Y512323D01*
X768738Y512518D01*
X769063Y512653D01*
X769311Y512901D01*
X769603Y513097D01*
X769799Y513389D01*
X770047Y513637D01*
X770182Y513962D01*
X770377Y514254D01*
X770445Y514599D01*
X770580Y514924D01*
Y515275D01*
X770649Y515620D01*
X770580Y515965D01*
Y516316D01*
X770445Y516641D01*
X770377Y516986D01*
X770182Y517278D01*
X770047Y517603D01*
X769799Y517851D01*
X769603Y518143D01*
X769311Y518339D01*
X769063Y518587D01*
X768738Y518722D01*
X768446Y518917D01*
X768101Y518985D01*
X767776Y519120D01*
X767425D01*
X767080Y519189D01*
X741948D01*
Y644496D01*
X743218Y645022D01*
X743507Y644733D01*
X744794Y644200D01*
X746186D01*
X747473Y644733D01*
X748457Y645717D01*
X748990Y647004D01*
Y648396D01*
X748457Y649683D01*
X747473Y650667D01*
X746186Y651200D01*
X744794D01*
X743507Y650667D01*
X743218Y650378D01*
X741948Y650904D01*
Y663903D01*
X752447Y674402D01*
X754380D01*
X755941Y674712D01*
X757264Y675596D01*
X758148Y676919D01*
X758458Y678480D01*
X758148Y680041D01*
X757264Y681364D01*
X755941Y682248D01*
X754380Y682559D01*
X750758D01*
X750758Y682559D01*
X749197Y682248D01*
X747874Y681364D01*
X747874Y681364D01*
X734986Y668476D01*
X734102Y667153D01*
X733792Y665592D01*
X733792Y665592D01*
Y516111D01*
Y320459D01*
X718401Y305068D01*
X651089D01*
X650196Y306338D01*
X650211Y306380D01*
X650536Y306514D01*
X650536Y306514D01*
X650551Y306518D01*
X650881Y306583D01*
X651173Y306778D01*
X651498Y306913D01*
X651746Y307161D01*
X652038Y307357D01*
X652234Y307649D01*
X652482Y307897D01*
X652617Y308222D01*
X652812Y308514D01*
X652880Y308859D01*
X653015Y309184D01*
Y309535D01*
X653084Y309880D01*
Y558800D01*
Y641350D01*
Y725170D01*
X653015Y725515D01*
Y725866D01*
X652880Y726191D01*
X652812Y726536D01*
X652617Y726828D01*
X652482Y727153D01*
X652234Y727401D01*
X652038Y727693D01*
X651746Y727889D01*
X651498Y728137D01*
X651173Y728272D01*
X650881Y728467D01*
X650536Y728536D01*
X650211Y728670D01*
X649860D01*
X649515Y728739D01*
X649170Y728670D01*
X648819D01*
X648729Y728633D01*
X648048Y728915D01*
X647619Y729280D01*
X647459Y729526D01*
Y788546D01*
X647390Y788891D01*
Y789242D01*
X647255Y789567D01*
X647187Y789912D01*
X646992Y790204D01*
X646857Y790529D01*
X646609Y790777D01*
X646413Y791069D01*
X646121Y791265D01*
X645873Y791513D01*
X645548Y791648D01*
X645256Y791843D01*
X644911Y791911D01*
X644586Y792046D01*
X644235D01*
X643890Y792115D01*
D02*
G37*
G36*
X746186Y310840D02*
X744794D01*
X743507Y310307D01*
X742523Y309323D01*
X741990Y308036D01*
Y306644D01*
X742523Y305357D01*
X743507Y304373D01*
X744794Y303840D01*
X746186D01*
X747473Y304373D01*
X748457Y305357D01*
X748990Y306644D01*
Y308036D01*
X748457Y309323D01*
X747473Y310307D01*
X746186Y310840D01*
D02*
G37*
G36*
X449966Y285440D02*
X448574D01*
X447287Y284907D01*
X446303Y283923D01*
X445770Y282636D01*
Y281244D01*
X446303Y279957D01*
X447287Y278973D01*
X448574Y278440D01*
X449966D01*
X451253Y278973D01*
X452237Y279957D01*
X452770Y281244D01*
Y282636D01*
X452237Y283923D01*
X451253Y284907D01*
X449966Y285440D01*
D02*
G37*
G36*
X680146Y275280D02*
X678754D01*
X677467Y274747D01*
X676483Y273763D01*
X675950Y272476D01*
Y271084D01*
X676483Y269797D01*
X677467Y268813D01*
X678754Y268280D01*
X680146D01*
X681433Y268813D01*
X682417Y269797D01*
X682950Y271084D01*
Y272476D01*
X682417Y273763D01*
X681433Y274747D01*
X680146Y275280D01*
D02*
G37*
G36*
X322006Y253370D02*
X320614D01*
X319328Y252838D01*
X318343Y251853D01*
X317810Y250567D01*
Y249174D01*
X318343Y247888D01*
X319328Y246903D01*
X320614Y246371D01*
X322006D01*
X323293Y246903D01*
X324277Y247888D01*
X324810Y249174D01*
Y250567D01*
X324277Y251853D01*
X323293Y252838D01*
X322006Y253370D01*
D02*
G37*
G36*
X738551Y224900D02*
X736049D01*
X733633Y224253D01*
X731467Y223002D01*
X729698Y221233D01*
X728447Y219067D01*
X727800Y216651D01*
Y214149D01*
X728447Y211733D01*
X729698Y209567D01*
X731467Y207798D01*
X733633Y206547D01*
X736049Y205900D01*
X738551D01*
X740967Y206547D01*
X743133Y207798D01*
X744902Y209567D01*
X746153Y211733D01*
X746800Y214149D01*
Y216651D01*
X746153Y219067D01*
X744902Y221233D01*
X743133Y223002D01*
X740967Y224253D01*
X738551Y224900D01*
D02*
G37*
G36*
X424876Y206700D02*
X423484D01*
X422197Y206167D01*
X421213Y205183D01*
X420904Y204437D01*
X419529D01*
X419221Y205183D01*
X418236Y206167D01*
X416950Y206700D01*
X415557D01*
X414271Y206167D01*
X413286Y205183D01*
X412753Y203896D01*
Y202504D01*
X413286Y201217D01*
X414271Y200233D01*
X415557Y199700D01*
X416950D01*
X418236Y200233D01*
X419221Y201217D01*
X419529Y201963D01*
X420904D01*
X421213Y201217D01*
X422197Y200233D01*
X423484Y199700D01*
X424876D01*
X426163Y200233D01*
X427147Y201217D01*
X427680Y202504D01*
Y203896D01*
X427147Y205183D01*
X426163Y206167D01*
X424876Y206700D01*
D02*
G37*
G36*
X763951Y199500D02*
X761449D01*
X759033Y198853D01*
X756867Y197602D01*
X755098Y195833D01*
X753847Y193667D01*
X753200Y191251D01*
Y188749D01*
X753847Y186333D01*
X755098Y184167D01*
X756867Y182398D01*
X759033Y181147D01*
X761449Y180500D01*
X763951D01*
X766367Y181147D01*
X768533Y182398D01*
X770302Y184167D01*
X771553Y186333D01*
X772200Y188749D01*
Y191251D01*
X771553Y193667D01*
X770302Y195833D01*
X768533Y197602D01*
X766367Y198853D01*
X763951Y199500D01*
D02*
G37*
G36*
Y174100D02*
X761449D01*
X759033Y173453D01*
X756867Y172202D01*
X755098Y170433D01*
X753847Y168267D01*
X753200Y165851D01*
Y163349D01*
X753847Y160933D01*
X755098Y158767D01*
X756867Y156998D01*
X759033Y155747D01*
X761449Y155100D01*
X763951D01*
X766367Y155747D01*
X768533Y156998D01*
X770302Y158767D01*
X771553Y160933D01*
X772200Y163349D01*
Y165851D01*
X771553Y168267D01*
X770302Y170433D01*
X768533Y172202D01*
X766367Y173453D01*
X763951Y174100D01*
D02*
G37*
G36*
X764088Y149740D02*
X763970D01*
Y140470D01*
X773240D01*
Y140588D01*
X772522Y143268D01*
X771134Y145672D01*
X769172Y147634D01*
X766768Y149022D01*
X764088Y149740D01*
D02*
G37*
G36*
X761430D02*
X761312D01*
X758632Y149022D01*
X756228Y147634D01*
X754266Y145672D01*
X752878Y143268D01*
X752160Y140588D01*
Y140470D01*
X761430D01*
Y149740D01*
D02*
G37*
G36*
X738551Y148700D02*
X736049D01*
X733633Y148053D01*
X731467Y146802D01*
X729698Y145033D01*
X728447Y142867D01*
X727800Y140451D01*
Y137949D01*
X728447Y135533D01*
X729698Y133367D01*
X731467Y131598D01*
X733633Y130347D01*
X736049Y129700D01*
X738551D01*
X740967Y130347D01*
X743133Y131598D01*
X744902Y133367D01*
X746153Y135533D01*
X746800Y137949D01*
Y140451D01*
X746153Y142867D01*
X744902Y145033D01*
X743133Y146802D01*
X740967Y148053D01*
X738551Y148700D01*
D02*
G37*
G36*
X773240Y137930D02*
X763970D01*
Y128660D01*
X764088D01*
X766768Y129378D01*
X769172Y130766D01*
X771134Y132728D01*
X772522Y135132D01*
X773240Y137812D01*
Y137930D01*
D02*
G37*
G36*
X761430D02*
X752160D01*
Y137812D01*
X752878Y135132D01*
X754266Y132728D01*
X756228Y130766D01*
X758632Y129378D01*
X761312Y128660D01*
X761430D01*
Y137930D01*
D02*
G37*
G36*
X764088Y124340D02*
X763970D01*
Y115070D01*
X773240D01*
Y115188D01*
X772522Y117868D01*
X771134Y120272D01*
X769172Y122234D01*
X766768Y123622D01*
X764088Y124340D01*
D02*
G37*
G36*
X761430D02*
X761312D01*
X758632Y123622D01*
X756228Y122234D01*
X754266Y120272D01*
X752878Y117868D01*
X752160Y115188D01*
Y115070D01*
X761430D01*
Y124340D01*
D02*
G37*
G36*
X746800Y123300D02*
X727800D01*
Y104300D01*
X746800D01*
Y123300D01*
D02*
G37*
G36*
X773240Y112530D02*
X763970D01*
Y103260D01*
X764088D01*
X766768Y103978D01*
X769172Y105366D01*
X771134Y107328D01*
X772522Y109732D01*
X773240Y112412D01*
Y112530D01*
D02*
G37*
G36*
X761430D02*
X752160D01*
Y112412D01*
X752878Y109732D01*
X754266Y107328D01*
X756228Y105366D01*
X758632Y103978D01*
X761312Y103260D01*
X761430D01*
Y112530D01*
D02*
G37*
G36*
X347406Y83190D02*
X346014D01*
X344728Y82658D01*
X343743Y81673D01*
X343210Y80387D01*
Y78994D01*
X343743Y77708D01*
X344728Y76723D01*
X346014Y76191D01*
X347406D01*
X348693Y76723D01*
X349677Y77708D01*
X350210Y78994D01*
Y80387D01*
X349677Y81673D01*
X348693Y82658D01*
X347406Y83190D01*
D02*
G37*
G36*
X374650Y132429D02*
X372894Y132079D01*
X371406Y131085D01*
X370411Y129596D01*
X370062Y127840D01*
X370411Y126085D01*
X371406Y124596D01*
X401456Y94546D01*
X402945Y93551D01*
X404701Y93202D01*
X442838D01*
X460544Y75496D01*
X462032Y74501D01*
X463788Y74152D01*
X469900D01*
X471656Y74501D01*
X473144Y75496D01*
X474139Y76984D01*
X474488Y78740D01*
X474139Y80496D01*
X473144Y81984D01*
X471656Y82979D01*
X469900Y83328D01*
X465689D01*
X447982Y101034D01*
X446494Y102029D01*
X444738Y102378D01*
X406601D01*
X377894Y131085D01*
X376406Y132079D01*
X374650Y132429D01*
D02*
G37*
G36*
X195596Y348800D02*
X193884D01*
X192231Y348357D01*
X190749Y347501D01*
X189539Y346291D01*
X188683Y344809D01*
X188240Y343156D01*
Y341444D01*
X188683Y339791D01*
X189539Y338309D01*
X190749Y337099D01*
X192231Y336243D01*
X193884Y335800D01*
X194751D01*
X204962Y325589D01*
Y92710D01*
X205311Y90954D01*
X206306Y89466D01*
X216785Y78986D01*
X218274Y77992D01*
X220030Y77642D01*
X259758D01*
Y73341D01*
X260107Y71585D01*
X261102Y70096D01*
X262590Y69102D01*
X264346Y68752D01*
X266102Y69102D01*
X267591Y70096D01*
X268585Y71585D01*
X268934Y73341D01*
Y82231D01*
X268585Y83986D01*
X267591Y85475D01*
X266102Y86469D01*
X264346Y86819D01*
X221930D01*
X214138Y94611D01*
Y327490D01*
X213789Y329246D01*
X212794Y330734D01*
X201240Y342289D01*
Y343156D01*
X200797Y344809D01*
X199941Y346291D01*
X198731Y347501D01*
X197249Y348357D01*
X195596Y348800D01*
D02*
G37*
G36*
X300991Y107390D02*
X300647Y107322D01*
X300295D01*
X299970Y107187D01*
X299626Y107119D01*
X299333Y106923D01*
X299009Y106789D01*
X298760Y106540D01*
X298468Y106345D01*
X298273Y106053D01*
X298024Y105804D01*
X297890Y105479D01*
X297694Y105187D01*
X297626Y104843D01*
X297491Y104518D01*
Y104166D01*
X297423Y103822D01*
Y46860D01*
X297694Y45495D01*
X298468Y44337D01*
X316731Y26074D01*
X316731Y26074D01*
X317023Y25879D01*
X317272Y25630D01*
X317596Y25496D01*
X317889Y25301D01*
X318233Y25232D01*
X318558Y25097D01*
X318909D01*
X319254Y25029D01*
X319599Y25097D01*
X319951D01*
X320275Y25232D01*
X320620Y25301D01*
X320912Y25496D01*
X321237Y25630D01*
X321485Y25879D01*
X321778Y26074D01*
X321973Y26366D01*
X322221Y26615D01*
X322356Y26940D01*
X322551Y27232D01*
X322620Y27577D01*
X322754Y27901D01*
Y28253D01*
X322823Y28598D01*
X322754Y28942D01*
Y29294D01*
X322620Y29618D01*
X322551Y29963D01*
X322356Y30255D01*
X322221Y30580D01*
X321973Y30829D01*
X321778Y31121D01*
X304560Y48339D01*
Y103822D01*
X304491Y104166D01*
Y104518D01*
X304357Y104843D01*
X304288Y105187D01*
X304093Y105479D01*
X303958Y105804D01*
X303710Y106053D01*
X303515Y106345D01*
X303223Y106540D01*
X302974Y106789D01*
X302649Y106923D01*
X302357Y107119D01*
X302012Y107187D01*
X301688Y107322D01*
X301336D01*
X300991Y107390D01*
D02*
G37*
G36*
X760464Y37184D02*
X572008D01*
X570860Y36708D01*
X570384Y35560D01*
Y19050D01*
X570860Y17902D01*
X572008Y17426D01*
X760464D01*
X761612Y17902D01*
X762088Y19050D01*
Y35560D01*
X761612Y36708D01*
X760464Y37184D01*
D02*
G37*
%LPD*%
D11*
X493024Y160284D02*
X575310Y242570D01*
X250190Y131383D02*
X279092Y160284D01*
X493024D01*
X737870Y516111D02*
X738361Y515620D01*
X767080D01*
X643890Y319390D02*
Y373634D01*
Y705564D02*
Y788546D01*
Y622581D02*
Y705564D01*
Y539750D02*
Y622581D01*
Y453390D02*
Y539750D01*
Y373634D02*
Y453390D01*
X649515Y641350D02*
Y725170D01*
Y558800D02*
Y641350D01*
Y309880D02*
Y558800D01*
X300990Y280350D02*
X313795Y293155D01*
X319554D01*
X300991Y46860D02*
X319254Y28598D01*
Y28598D02*
Y28598D01*
X300991Y46860D02*
Y103822D01*
X626110Y207010D02*
Y236220D01*
X643120Y190000D02*
X737300D01*
X626110Y207010D02*
X643120Y190000D01*
X589280Y190500D02*
Y236220D01*
X615180Y164600D02*
X737300D01*
X589280Y190500D02*
X615180Y164600D01*
X566720Y261620D02*
X616320D01*
X517040Y248770D02*
X553870D01*
X735530Y242570D02*
X737300Y240800D01*
X575310Y242570D02*
X735530D01*
X553870Y248770D02*
X566720Y261620D01*
D14*
X5040Y786130D02*
X5705Y783650D01*
X7520Y781834D01*
X10000Y781170D01*
X10000Y397390D02*
X12612Y397618D01*
X15144Y398297D01*
X17520Y399405D01*
X19668Y400909D01*
X21521Y402762D01*
X23025Y404910D01*
X24133Y407286D01*
X24812Y409818D01*
X25040Y412430D01*
X844960Y838000D02*
X844430Y840664D01*
X842922Y842922D01*
X840664Y844430D01*
X838000Y844960D01*
X11992D02*
X9331Y844428D01*
X7076Y842919D01*
X5569Y840662D01*
X5040Y838000D01*
Y11989D02*
X5572Y9331D01*
X7080Y7078D01*
X9334Y5571D01*
X11992Y5040D01*
X506260Y836000D02*
X506423Y833515D01*
X506909Y831072D01*
X507709Y828714D01*
X508811Y826480D01*
X510195Y824409D01*
X511837Y822537D01*
X513709Y820895D01*
X515780Y819511D01*
X518014Y818409D01*
X520372Y817609D01*
X522815Y817123D01*
X525300Y816960D01*
X88960Y836000D02*
X89123Y833515D01*
X89609Y831072D01*
X90409Y828714D01*
X91511Y826480D01*
X92895Y824409D01*
X94537Y822537D01*
X96409Y820895D01*
X98480Y819511D01*
X100714Y818409D01*
X103072Y817609D01*
X105515Y817123D01*
X108000Y816960D01*
X506260Y836009D02*
X505953Y838326D01*
X505057Y840485D01*
X503633Y842339D01*
X501777Y843761D01*
X499618Y844655D01*
X497300Y844960D01*
X839967Y775040D02*
X837364Y774807D01*
X834841Y774127D01*
X832474Y773021D01*
X830334Y771522D01*
X828485Y769674D01*
X826985Y767535D01*
X825877Y765168D01*
X825195Y762646D01*
X824961Y760043D01*
X88960Y836009D02*
X88653Y838324D01*
X87759Y840482D01*
X86337Y842335D01*
X84484Y843757D01*
X82327Y844653D01*
X80011Y844960D01*
X25040Y766130D02*
X24812Y768742D01*
X24133Y771274D01*
X23025Y773650D01*
X21521Y775798D01*
X19668Y777651D01*
X17520Y779155D01*
X15144Y780263D01*
X12612Y780941D01*
X10000Y781170D01*
X405300Y816960D02*
X407785Y817123D01*
X410228Y817609D01*
X412586Y818409D01*
X414820Y819511D01*
X416891Y820895D01*
X418763Y822537D01*
X420405Y824409D01*
X421789Y826480D01*
X422891Y828714D01*
X423691Y831072D01*
X424177Y833515D01*
X424340Y836000D01*
X433300Y844960D02*
X430982Y844655D01*
X428823Y843761D01*
X426967Y842339D01*
X425543Y840485D01*
X424647Y838326D01*
X424340Y836009D01*
X844960Y400000D02*
X844296Y402480D01*
X842480Y404296D01*
X840000Y404960D01*
X824960Y420000D02*
X825189Y417388D01*
X825867Y414856D01*
X826975Y412480D01*
X828479Y410332D01*
X830332Y408479D01*
X832480Y406975D01*
X834856Y405867D01*
X837388Y405188D01*
X840000Y404960D01*
X10000Y397390D02*
X7522Y396727D01*
X5707Y394914D01*
X5040Y392436D01*
X742000Y816960D02*
X744485Y817123D01*
X746928Y817609D01*
X749286Y818409D01*
X751520Y819511D01*
X753591Y820895D01*
X755463Y822537D01*
X757105Y824409D01*
X758489Y826480D01*
X759591Y828714D01*
X760391Y831072D01*
X760877Y833515D01*
X761040Y836000D01*
X770000Y844960D02*
X767682Y844655D01*
X765523Y843761D01*
X763667Y842339D01*
X762243Y840485D01*
X761347Y838326D01*
X761040Y836009D01*
X838011Y5040D02*
X840669Y5572D01*
X842923Y7080D01*
X844429Y9334D01*
X844960Y11992D01*
X840010Y775040D02*
X842476Y775702D01*
X844286Y777503D01*
X844961Y779965D01*
X108000Y816960D02*
X405300D01*
X770000Y844960D02*
X838000D01*
X824960Y420000D02*
Y759903D01*
X5040Y786130D02*
Y838000D01*
X25040Y412430D02*
Y766130D01*
X12016Y5040D02*
X837988Y5040D01*
X12004Y844960D02*
X79977Y844960D01*
X525300Y816960D02*
X742000D01*
X844960Y780099D02*
Y838000D01*
X5040Y12012D02*
X5040Y392427D01*
X844960Y12016D02*
X844960Y400000D01*
X433300Y844960D02*
X497300D01*
D28*
X642620Y280670D02*
X742523D01*
X633730Y271780D02*
X642620Y280670D01*
X750296Y227804D02*
Y272897D01*
X742523Y280670D02*
X750296Y272897D01*
Y227804D02*
X762700Y215400D01*
D29*
X404701Y97790D02*
X444738D01*
X374650Y127840D02*
X404701Y97790D01*
X444738D02*
X463788Y78740D01*
X469900D01*
X194740Y342300D02*
X209550Y327490D01*
Y92710D02*
Y327490D01*
Y92710D02*
X220030Y82231D01*
X264346D01*
Y73341D02*
Y82231D01*
D34*
X443698Y845000D02*
D03*
X457698D02*
D03*
X471698D02*
D03*
X485698D02*
D03*
X499694Y844649D02*
D03*
X506867Y832626D02*
D03*
X514549Y820922D02*
D03*
X527989Y817000D02*
D03*
X541989D02*
D03*
X555989D02*
D03*
X569989D02*
D03*
X583989D02*
D03*
X597989D02*
D03*
X611989D02*
D03*
X625989D02*
D03*
X639989D02*
D03*
X653989D02*
D03*
X667989D02*
D03*
X681989D02*
D03*
X695989D02*
D03*
X709989D02*
D03*
X723989D02*
D03*
X737989D02*
D03*
X751625Y820170D02*
D03*
X760086Y831324D02*
D03*
X765980Y844023D02*
D03*
X779946Y845000D02*
D03*
X793945D02*
D03*
X807945D02*
D03*
X821945D02*
D03*
X835945D02*
D03*
X845000Y834322D02*
D03*
Y820322D02*
D03*
Y806322D02*
D03*
Y792322D02*
D03*
X844688Y778326D02*
D03*
X832680Y771128D02*
D03*
X825438Y759147D02*
D03*
X825000Y745153D02*
D03*
Y731153D02*
D03*
Y717153D02*
D03*
Y703154D02*
D03*
Y689154D02*
D03*
Y675154D02*
D03*
Y661153D02*
D03*
Y647153D02*
D03*
Y633153D02*
D03*
Y619154D02*
D03*
Y605154D02*
D03*
Y591153D02*
D03*
Y577154D02*
D03*
Y563153D02*
D03*
Y549154D02*
D03*
Y535154D02*
D03*
Y521153D02*
D03*
Y507154D02*
D03*
Y493153D02*
D03*
Y479154D02*
D03*
Y465154D02*
D03*
Y451153D02*
D03*
Y437154D02*
D03*
X825135Y423154D02*
D03*
X830854Y410376D02*
D03*
X843212Y403795D02*
D03*
X845000Y389910D02*
D03*
Y375910D02*
D03*
Y361910D02*
D03*
Y347910D02*
D03*
Y333910D02*
D03*
Y319910D02*
D03*
Y305910D02*
D03*
Y291910D02*
D03*
Y277910D02*
D03*
X845000Y263910D02*
D03*
Y249910D02*
D03*
Y235910D02*
D03*
Y221910D02*
D03*
Y207910D02*
D03*
Y193910D02*
D03*
Y179910D02*
D03*
Y165910D02*
D03*
Y151910D02*
D03*
X845000Y137910D02*
D03*
Y123910D02*
D03*
Y109910D02*
D03*
Y95910D02*
D03*
Y81910D02*
D03*
Y67910D02*
D03*
Y53910D02*
D03*
Y39910D02*
D03*
Y25910D02*
D03*
X844996Y11910D02*
D03*
X832820Y5000D02*
D03*
X818820D02*
D03*
X804820D02*
D03*
X790820D02*
D03*
X776820D02*
D03*
X762820D02*
D03*
X748820D02*
D03*
X734820D02*
D03*
X720820D02*
D03*
X706820D02*
D03*
X692820D02*
D03*
X678820D02*
D03*
X664820D02*
D03*
X650820D02*
D03*
X636820D02*
D03*
X622820D02*
D03*
X608820D02*
D03*
X594820D02*
D03*
X580820D02*
D03*
X566820D02*
D03*
X552820Y5000D02*
D03*
X538820D02*
D03*
X524820D02*
D03*
X510820D02*
D03*
X496820D02*
D03*
X482820D02*
D03*
X468820D02*
D03*
X454820D02*
D03*
X398820D02*
D03*
X384820D02*
D03*
X370820D02*
D03*
X356820D02*
D03*
X342820D02*
D03*
X328820D02*
D03*
X314820D02*
D03*
X300820D02*
D03*
X286820D02*
D03*
X272820Y5000D02*
D03*
X258820D02*
D03*
X244820D02*
D03*
X230820D02*
D03*
X216820D02*
D03*
X202820D02*
D03*
X188820D02*
D03*
X174820D02*
D03*
X160820D02*
D03*
X146820D02*
D03*
X132820D02*
D03*
X118820D02*
D03*
X104820D02*
D03*
X90820D02*
D03*
X76820D02*
D03*
X62820D02*
D03*
X48820D02*
D03*
X34820D02*
D03*
X20820D02*
D03*
X6982Y7125D02*
D03*
X5000Y20984D02*
D03*
Y34984D02*
D03*
Y48984D02*
D03*
Y62984D02*
D03*
Y76984D02*
D03*
Y90984D02*
D03*
Y104984D02*
D03*
Y118984D02*
D03*
Y132984D02*
D03*
Y146984D02*
D03*
Y160984D02*
D03*
Y174984D02*
D03*
Y188984D02*
D03*
Y202984D02*
D03*
Y216984D02*
D03*
Y230984D02*
D03*
Y244984D02*
D03*
Y258984D02*
D03*
Y272984D02*
D03*
Y286984D02*
D03*
Y300984D02*
D03*
Y314984D02*
D03*
Y328984D02*
D03*
Y342984D02*
D03*
Y356984D02*
D03*
Y370984D02*
D03*
Y384984D02*
D03*
X10583Y397822D02*
D03*
X21777Y406231D02*
D03*
X25000Y419855D02*
D03*
Y433855D02*
D03*
Y447855D02*
D03*
Y461855D02*
D03*
Y475855D02*
D03*
Y489855D02*
D03*
Y503855D02*
D03*
Y517855D02*
D03*
Y531855D02*
D03*
Y545855D02*
D03*
Y559855D02*
D03*
Y573855D02*
D03*
Y587855D02*
D03*
Y601855D02*
D03*
Y615855D02*
D03*
Y629855D02*
D03*
Y643855D02*
D03*
Y657855D02*
D03*
Y671855D02*
D03*
Y685855D02*
D03*
Y699855D02*
D03*
Y713855D02*
D03*
Y727855D02*
D03*
Y741855D02*
D03*
Y755855D02*
D03*
X23223Y769742D02*
D03*
X13392Y779709D02*
D03*
X5000Y790915D02*
D03*
Y804915D02*
D03*
Y818915D02*
D03*
Y832915D02*
D03*
X12067Y845000D02*
D03*
X26067D02*
D03*
X40067Y845000D02*
D03*
X54067D02*
D03*
X68067Y845000D02*
D03*
X82065Y844748D02*
D03*
X89513Y832894D02*
D03*
X97029Y821082D02*
D03*
X110421Y817000D02*
D03*
X124420D02*
D03*
X138420D02*
D03*
X152421D02*
D03*
X166420D02*
D03*
X180420D02*
D03*
X194421D02*
D03*
X208421D02*
D03*
X222421D02*
D03*
X236420D02*
D03*
X250420D02*
D03*
X264421D02*
D03*
X278421D02*
D03*
X292421D02*
D03*
X306420D02*
D03*
X320420D02*
D03*
X334421D02*
D03*
X348420D02*
D03*
X362421D02*
D03*
X376421D02*
D03*
X390420D02*
D03*
X404421Y817014D02*
D03*
X417475Y822071D02*
D03*
X424061Y834425D02*
D03*
X433227Y845007D02*
D03*
D35*
X425000Y21000D02*
D03*
D36*
X481465Y807835D02*
D03*
X449136D02*
D03*
Y840164D02*
D03*
X481465D02*
D03*
X488160Y824000D02*
D03*
X465300Y801140D02*
D03*
X442440Y824000D02*
D03*
X465300Y846860D02*
D03*
D37*
Y824000D02*
D03*
D38*
X52165Y19835D02*
D03*
X19835D02*
D03*
Y52165D02*
D03*
X52165D02*
D03*
X58860Y36000D02*
D03*
X36000Y13140D02*
D03*
X13140Y36000D02*
D03*
X36000Y58860D02*
D03*
X830164Y239835D02*
D03*
X797835D02*
D03*
Y272164D02*
D03*
X830164D02*
D03*
X836860Y256000D02*
D03*
X814000Y233140D02*
D03*
X791140Y256000D02*
D03*
X814000Y278860D02*
D03*
X36000Y836860D02*
D03*
X13140Y814000D02*
D03*
X36000Y791140D02*
D03*
X58860Y814000D02*
D03*
X52165Y830164D02*
D03*
X19835D02*
D03*
Y797835D02*
D03*
X52165D02*
D03*
X36000Y278860D02*
D03*
X13140Y256000D02*
D03*
X36000Y233140D02*
D03*
X58860Y256000D02*
D03*
X52165Y272164D02*
D03*
X19835D02*
D03*
Y239835D02*
D03*
X52165D02*
D03*
Y347836D02*
D03*
X19835D02*
D03*
Y380164D02*
D03*
X52165D02*
D03*
X58860Y364000D02*
D03*
X36000Y341140D02*
D03*
X13140Y364000D02*
D03*
X36000Y386860D02*
D03*
X830164Y797835D02*
D03*
X797835D02*
D03*
Y830164D02*
D03*
X830164D02*
D03*
X836860Y814000D02*
D03*
X814000Y791140D02*
D03*
X791140Y814000D02*
D03*
X814000Y836860D02*
D03*
Y386860D02*
D03*
X791140Y364000D02*
D03*
X814000Y341140D02*
D03*
X836860Y364000D02*
D03*
X830164Y380164D02*
D03*
X797835D02*
D03*
Y347836D02*
D03*
X830164D02*
D03*
Y19835D02*
D03*
X797835D02*
D03*
Y52165D02*
D03*
X830164D02*
D03*
X836860Y36000D02*
D03*
X814000Y13140D02*
D03*
X791140Y36000D02*
D03*
X814000Y58860D02*
D03*
D39*
X36000Y36000D02*
D03*
X814000Y256000D02*
D03*
X36000Y814000D02*
D03*
Y256000D02*
D03*
Y364000D02*
D03*
X814000Y814000D02*
D03*
Y364000D02*
D03*
Y36000D02*
D03*
D40*
X555400Y427000D02*
D03*
X568100Y439700D02*
D03*
Y414300D02*
D03*
X580800Y427000D02*
D03*
X555400Y355000D02*
D03*
X568100Y367700D02*
D03*
Y342300D02*
D03*
X580800Y355000D02*
D03*
X462060D02*
D03*
X474760Y367700D02*
D03*
Y342300D02*
D03*
X487460Y355000D02*
D03*
X368720Y427000D02*
D03*
X381420Y439700D02*
D03*
Y414300D02*
D03*
X394120Y427000D02*
D03*
X462060D02*
D03*
X474760Y439700D02*
D03*
Y414300D02*
D03*
X487460Y427000D02*
D03*
X368720Y355000D02*
D03*
X381420Y367700D02*
D03*
Y342300D02*
D03*
X394120Y355000D02*
D03*
X275380D02*
D03*
X288080Y367700D02*
D03*
Y342300D02*
D03*
X300780Y355000D02*
D03*
X275380Y427000D02*
D03*
X288080Y439700D02*
D03*
Y414300D02*
D03*
X300780Y427000D02*
D03*
X275380Y499000D02*
D03*
X288080Y511700D02*
D03*
Y486300D02*
D03*
X300780Y499000D02*
D03*
X368720D02*
D03*
X381420Y511700D02*
D03*
Y486300D02*
D03*
X394120Y499000D02*
D03*
X462060D02*
D03*
X474760Y511700D02*
D03*
Y486300D02*
D03*
X487460Y499000D02*
D03*
X555400D02*
D03*
X568100Y511700D02*
D03*
Y486300D02*
D03*
X580800Y499000D02*
D03*
X555400Y571000D02*
D03*
X568100Y583700D02*
D03*
Y558300D02*
D03*
X580800Y571000D02*
D03*
X462060D02*
D03*
X474760Y583700D02*
D03*
Y558300D02*
D03*
X487460Y571000D02*
D03*
X368720D02*
D03*
X381420Y583700D02*
D03*
Y558300D02*
D03*
X394120Y571000D02*
D03*
X275380D02*
D03*
X288080Y583700D02*
D03*
Y558300D02*
D03*
X300780Y571000D02*
D03*
X182040D02*
D03*
X194740Y583700D02*
D03*
Y558300D02*
D03*
X207440Y571000D02*
D03*
X182040Y499000D02*
D03*
X194740Y511700D02*
D03*
Y486300D02*
D03*
X207440Y499000D02*
D03*
X182040Y427000D02*
D03*
X194740Y439700D02*
D03*
Y414300D02*
D03*
X207440Y427000D02*
D03*
X182040Y355000D02*
D03*
X194740Y367700D02*
D03*
Y342300D02*
D03*
X207440Y355000D02*
D03*
X88700D02*
D03*
X101400Y367700D02*
D03*
Y342300D02*
D03*
X114100Y355000D02*
D03*
X88700Y427000D02*
D03*
X101400Y439700D02*
D03*
Y414300D02*
D03*
X114100Y427000D02*
D03*
X88700Y499000D02*
D03*
X101400Y511700D02*
D03*
Y486300D02*
D03*
X114100Y499000D02*
D03*
X88700Y571000D02*
D03*
X101400Y583700D02*
D03*
Y558300D02*
D03*
X114100Y571000D02*
D03*
X182040Y643000D02*
D03*
X194740Y655700D02*
D03*
Y630300D02*
D03*
X207440Y643000D02*
D03*
X275380D02*
D03*
X288080Y655700D02*
D03*
Y630300D02*
D03*
X300780Y643000D02*
D03*
X368720D02*
D03*
X381420Y655700D02*
D03*
Y630300D02*
D03*
X394120Y643000D02*
D03*
X462060D02*
D03*
X474760Y655700D02*
D03*
Y630300D02*
D03*
X487460Y643000D02*
D03*
X580800D02*
D03*
X568100Y630300D02*
D03*
Y655700D02*
D03*
X555400Y643000D02*
D03*
Y715000D02*
D03*
X568100Y727700D02*
D03*
Y702300D02*
D03*
X580800Y715000D02*
D03*
X462060D02*
D03*
X474760Y727700D02*
D03*
Y702300D02*
D03*
X487460Y715000D02*
D03*
X368720D02*
D03*
X381420Y727700D02*
D03*
Y702300D02*
D03*
X394120Y715000D02*
D03*
X275380D02*
D03*
X288080Y727700D02*
D03*
Y702300D02*
D03*
X300780Y715000D02*
D03*
X182040D02*
D03*
X194740Y727700D02*
D03*
Y702300D02*
D03*
X207440Y715000D02*
D03*
X88700D02*
D03*
X101400Y727700D02*
D03*
Y702300D02*
D03*
X114100Y715000D02*
D03*
X88700Y643000D02*
D03*
X101400Y655700D02*
D03*
Y630300D02*
D03*
X114100Y643000D02*
D03*
D41*
X762700Y113800D02*
D03*
Y139200D02*
D03*
Y164600D02*
D03*
Y190000D02*
D03*
Y215400D02*
D03*
Y240800D02*
D03*
Y266200D02*
D03*
X737300Y139200D02*
D03*
Y164600D02*
D03*
Y190000D02*
D03*
Y215400D02*
D03*
Y240800D02*
D03*
Y266200D02*
D03*
D42*
Y113800D02*
D03*
D43*
X374650Y127840D02*
D03*
X469900Y78740D02*
D03*
X463788D02*
D03*
X629920Y784860D02*
D03*
X531495Y798830D02*
D03*
X549513D02*
D03*
X567531D02*
D03*
X585549D02*
D03*
X513477D02*
D03*
X603568D02*
D03*
X405368D02*
D03*
X423386D02*
D03*
X279241Y782320D02*
D03*
X261223D02*
D03*
X243205D02*
D03*
X225187D02*
D03*
X207169D02*
D03*
X189151D02*
D03*
X171133D02*
D03*
X153114D02*
D03*
X135096D02*
D03*
X117078D02*
D03*
X99060D02*
D03*
X81042D02*
D03*
X677806Y753110D02*
D03*
X692150D02*
D03*
X796178Y759666D02*
D03*
Y774010D02*
D03*
X770000Y788296D02*
D03*
Y773952D02*
D03*
Y745263D02*
D03*
Y802640D02*
D03*
X754380Y788296D02*
D03*
Y759607D02*
D03*
Y745263D02*
D03*
Y802640D02*
D03*
X796290Y637166D02*
D03*
Y622822D02*
D03*
Y651510D02*
D03*
Y708286D02*
D03*
Y693942D02*
D03*
Y679597D02*
D03*
Y665253D02*
D03*
Y722630D02*
D03*
X727710Y375546D02*
D03*
Y361202D02*
D03*
Y346857D02*
D03*
Y332513D02*
D03*
Y389890D02*
D03*
Y770142D02*
D03*
Y755797D02*
D03*
Y741453D02*
D03*
Y798830D02*
D03*
Y705153D02*
D03*
Y690809D02*
D03*
Y662121D02*
D03*
Y719498D02*
D03*
Y605696D02*
D03*
Y591352D02*
D03*
Y577008D02*
D03*
Y634385D02*
D03*
Y538156D02*
D03*
Y523812D02*
D03*
Y509468D02*
D03*
Y495124D02*
D03*
Y552501D02*
D03*
Y470725D02*
D03*
Y413349D02*
D03*
Y427693D02*
D03*
Y442037D02*
D03*
Y456381D02*
D03*
X669015Y446422D02*
D03*
X669015Y420370D02*
D03*
X669015Y363440D02*
D03*
X669015Y307340D02*
D03*
X693420Y292100D02*
D03*
X712878D02*
D03*
X690041Y232410D02*
D03*
Y212952D02*
D03*
X718820Y232410D02*
D03*
Y212952D02*
D03*
X640630Y91830D02*
D03*
X621172D02*
D03*
X474010Y256357D02*
D03*
Y275814D02*
D03*
X393700Y269240D02*
D03*
Y288698D02*
D03*
X288080Y314960D02*
D03*
X307538D02*
D03*
X521970Y373380D02*
D03*
Y353922D02*
D03*
X429260Y374650D02*
D03*
Y355192D02*
D03*
X334010Y378460D02*
D03*
Y359002D02*
D03*
X232410Y381000D02*
D03*
Y361542D02*
D03*
X148590Y382270D02*
D03*
Y362812D02*
D03*
X527050Y737870D02*
D03*
Y718412D02*
D03*
Y660040D02*
D03*
Y640582D02*
D03*
Y582209D02*
D03*
Y504379D02*
D03*
Y426549D02*
D03*
Y446006D02*
D03*
X433070Y426141D02*
D03*
Y756920D02*
D03*
Y737462D02*
D03*
Y718005D02*
D03*
Y659632D02*
D03*
Y640174D02*
D03*
Y581802D02*
D03*
Y523429D02*
D03*
Y445598D02*
D03*
Y503971D02*
D03*
X344170Y428681D02*
D03*
Y759460D02*
D03*
Y740002D02*
D03*
Y720545D02*
D03*
Y662172D02*
D03*
Y642714D02*
D03*
Y603799D02*
D03*
Y584342D02*
D03*
Y564884D02*
D03*
Y525969D02*
D03*
Y448139D02*
D03*
Y506511D02*
D03*
X154940Y426141D02*
D03*
Y756920D02*
D03*
Y737462D02*
D03*
Y718005D02*
D03*
Y679090D02*
D03*
Y659632D02*
D03*
Y640174D02*
D03*
Y601259D02*
D03*
Y581802D02*
D03*
Y523429D02*
D03*
Y445598D02*
D03*
Y465056D02*
D03*
Y503971D02*
D03*
X248920Y427411D02*
D03*
Y758190D02*
D03*
Y738732D02*
D03*
Y719275D02*
D03*
Y680360D02*
D03*
Y660902D02*
D03*
Y641444D02*
D03*
Y602529D02*
D03*
Y583072D02*
D03*
Y524699D02*
D03*
Y446869D02*
D03*
Y505241D02*
D03*
X745490Y307340D02*
D03*
Y647700D02*
D03*
X754380Y678480D02*
D03*
Y690980D02*
D03*
X745490Y482078D02*
D03*
Y399095D02*
D03*
Y316113D02*
D03*
X758190Y463363D02*
D03*
X783590Y653480D02*
D03*
X626110Y673100D02*
D03*
X643890Y319390D02*
D03*
X633730Y271780D02*
D03*
Y319390D02*
D03*
X643890Y788546D02*
D03*
Y705564D02*
D03*
Y622581D02*
D03*
Y539750D02*
D03*
Y453390D02*
D03*
Y373634D02*
D03*
X633730Y756542D02*
D03*
X633840Y682940D02*
D03*
X633730Y651320D02*
D03*
Y612817D02*
D03*
Y568337D02*
D03*
Y529835D02*
D03*
Y485355D02*
D03*
Y446852D02*
D03*
X633729Y402246D02*
D03*
X633730Y363870D02*
D03*
X714515Y326390D02*
D03*
X701556D02*
D03*
X675428Y351065D02*
D03*
X688533Y356577D02*
D03*
X701559Y381323D02*
D03*
X714515Y387165D02*
D03*
X701536Y407809D02*
D03*
X714623Y413349D02*
D03*
X688515Y439685D02*
D03*
X675529Y434125D02*
D03*
X714520Y470726D02*
D03*
X701532Y464027D02*
D03*
X714515Y490927D02*
D03*
X701514D02*
D03*
X688515Y522957D02*
D03*
X675515Y517375D02*
D03*
X701515Y546971D02*
D03*
X714534Y552501D02*
D03*
X714515Y574040D02*
D03*
X701515D02*
D03*
X675515Y600023D02*
D03*
X688515Y605730D02*
D03*
X701515Y629481D02*
D03*
X714515Y635000D02*
D03*
X701515Y659370D02*
D03*
X714515D02*
D03*
X675559Y691258D02*
D03*
X688494Y696983D02*
D03*
X701616Y713950D02*
D03*
X714602Y719585D02*
D03*
X649515Y725170D02*
D03*
X662515Y781050D02*
D03*
X675515Y768082D02*
D03*
X688515Y773648D02*
D03*
X701515Y797989D02*
D03*
X714515Y803514D02*
D03*
X701515Y740410D02*
D03*
X714515D02*
D03*
X649515Y309880D02*
D03*
X649479Y392777D02*
D03*
X649515Y475679D02*
D03*
X649515Y558800D02*
D03*
Y641350D02*
D03*
X581660Y31750D02*
D03*
X575310D02*
D03*
Y25400D02*
D03*
X588010Y31750D02*
D03*
Y25400D02*
D03*
X581660D02*
D03*
X438150Y143002D02*
D03*
X453280D02*
D03*
X280670Y139700D02*
D03*
X382270Y66013D02*
D03*
Y34192D02*
D03*
Y50103D02*
D03*
X403119Y78740D02*
D03*
X387209D02*
D03*
X231140Y26670D02*
D03*
Y44688D02*
D03*
X260350Y45639D02*
D03*
X231140Y62706D02*
D03*
X264346Y73341D02*
D03*
Y82231D02*
D03*
Y91121D02*
D03*
X231140Y98743D02*
D03*
Y116761D02*
D03*
X260350Y117711D02*
D03*
X250190Y131383D02*
D03*
X231140Y134779D02*
D03*
X374650Y28598D02*
D03*
X319254D02*
D03*
X327496Y64030D02*
D03*
X346710Y68261D02*
D03*
Y79690D02*
D03*
X300991Y103822D02*
D03*
X300990Y110170D02*
D03*
X283963Y113981D02*
D03*
X243840Y131383D02*
D03*
X231140Y152797D02*
D03*
X251460Y159462D02*
D03*
X231140Y170815D02*
D03*
X251460Y177481D02*
D03*
X231140Y188833D02*
D03*
Y206851D02*
D03*
X251460Y207802D02*
D03*
X297180Y218011D02*
D03*
X231140Y224869D02*
D03*
X251460Y225820D02*
D03*
X231140Y242887D02*
D03*
X251460Y243838D02*
D03*
X231140Y260906D02*
D03*
X251460Y261856D02*
D03*
X290430Y274000D02*
D03*
X231140Y278924D02*
D03*
X290430Y280350D02*
D03*
X231140Y296942D02*
D03*
X251460Y297892D02*
D03*
X231140Y314960D02*
D03*
X271780D02*
D03*
X374650Y145730D02*
D03*
X381000Y167211D02*
D03*
Y183121D02*
D03*
X354330Y185100D02*
D03*
X318135Y200340D02*
D03*
X389890Y205740D02*
D03*
Y219004D02*
D03*
Y232269D02*
D03*
X364490Y242250D02*
D03*
X321310Y243521D02*
D03*
Y249870D02*
D03*
X364490Y256220D02*
D03*
X315806Y279257D02*
D03*
X307848D02*
D03*
X300990Y280350D02*
D03*
X319554Y293155D02*
D03*
X374650D02*
D03*
X356870Y312420D02*
D03*
X370311D02*
D03*
X383752D02*
D03*
X397192D02*
D03*
X775970Y665480D02*
D03*
X431800Y228600D02*
D03*
X794279Y309880D02*
D03*
X821161D02*
D03*
X803910Y565150D02*
D03*
Y547132D02*
D03*
Y529114D02*
D03*
Y511096D02*
D03*
Y493078D02*
D03*
Y475059D02*
D03*
Y457041D02*
D03*
Y439023D02*
D03*
Y421005D02*
D03*
X748062Y29251D02*
D03*
X755682D02*
D03*
X387350Y798830D02*
D03*
X81042D02*
D03*
X99060D02*
D03*
X117078D02*
D03*
X135096D02*
D03*
X153114D02*
D03*
X171133D02*
D03*
X189151D02*
D03*
X207169D02*
D03*
X225187D02*
D03*
X243205D02*
D03*
X261223D02*
D03*
X279241D02*
D03*
X297259D02*
D03*
X369332D02*
D03*
X351314D02*
D03*
X333296D02*
D03*
X315278D02*
D03*
X527050Y208280D02*
D03*
Y224190D02*
D03*
X701040Y274320D02*
D03*
Y260879D02*
D03*
Y236220D02*
D03*
Y222779D02*
D03*
Y209338D02*
D03*
X700299Y153670D02*
D03*
X686858D02*
D03*
X579120Y64770D02*
D03*
Y78211D02*
D03*
Y91652D02*
D03*
X769620Y71861D02*
D03*
Y85302D02*
D03*
X687070Y105410D02*
D03*
X700511D02*
D03*
X713952D02*
D03*
X687070Y121920D02*
D03*
X700511D02*
D03*
X713952D02*
D03*
X679450Y248920D02*
D03*
Y271780D02*
D03*
X718820Y248920D02*
D03*
X633730Y262890D02*
D03*
X776388Y647700D02*
D03*
X803910Y579120D02*
D03*
X793750Y535940D02*
D03*
Y494030D02*
D03*
X792480Y450850D02*
D03*
X758190Y474980D02*
D03*
X793750Y405130D02*
D03*
X774700D02*
D03*
X516044Y268357D02*
D03*
X441960Y227330D02*
D03*
X424180Y203200D02*
D03*
X416254D02*
D03*
X676910Y106680D02*
D03*
X583346Y177941D02*
D03*
X615950Y223520D02*
D03*
X637540D02*
D03*
X662940Y262890D02*
D03*
X463788Y116840D02*
D03*
X445770D02*
D03*
Y124460D02*
D03*
X756920Y574040D02*
D03*
Y560599D02*
D03*
Y534882D02*
D03*
Y508000D02*
D03*
Y494559D02*
D03*
X760730Y297498D02*
D03*
Y310938D02*
D03*
Y324379D02*
D03*
Y337820D02*
D03*
Y405024D02*
D03*
Y391583D02*
D03*
Y378142D02*
D03*
Y364702D02*
D03*
Y351261D02*
D03*
X575733Y287620D02*
D03*
X521970Y285150D02*
D03*
X478790Y215300D02*
D03*
X435610D02*
D03*
X419030Y78740D02*
D03*
X434940D02*
D03*
X450850D02*
D03*
X556260Y146121D02*
D03*
Y130210D02*
D03*
Y114300D02*
D03*
Y177941D02*
D03*
Y162031D02*
D03*
X528320Y180269D02*
D03*
Y116628D02*
D03*
Y132539D02*
D03*
Y148449D02*
D03*
Y55668D02*
D03*
Y69109D02*
D03*
Y82550D02*
D03*
X688340Y58208D02*
D03*
Y71649D02*
D03*
Y85090D02*
D03*
X816610Y96203D02*
D03*
Y109643D02*
D03*
Y123084D02*
D03*
Y136525D02*
D03*
Y149966D02*
D03*
Y163407D02*
D03*
Y176848D02*
D03*
Y190288D02*
D03*
Y203729D02*
D03*
X791210D02*
D03*
Y190288D02*
D03*
Y176848D02*
D03*
Y163407D02*
D03*
Y149966D02*
D03*
Y136525D02*
D03*
Y123084D02*
D03*
Y109643D02*
D03*
Y96203D02*
D03*
Y82762D02*
D03*
X807720Y309880D02*
D03*
X44450Y83661D02*
D03*
Y101679D02*
D03*
Y119698D02*
D03*
Y317738D02*
D03*
Y299720D02*
D03*
Y209788D02*
D03*
Y191770D02*
D03*
Y173752D02*
D03*
Y155734D02*
D03*
Y137716D02*
D03*
X54610Y444024D02*
D03*
Y426006D02*
D03*
Y407988D02*
D03*
Y462042D02*
D03*
Y768350D02*
D03*
Y750332D02*
D03*
Y732314D02*
D03*
Y714296D02*
D03*
Y696277D02*
D03*
Y678259D02*
D03*
Y660241D02*
D03*
Y642223D02*
D03*
Y624205D02*
D03*
Y606187D02*
D03*
Y588169D02*
D03*
Y570151D02*
D03*
Y552132D02*
D03*
Y480060D02*
D03*
Y498078D02*
D03*
Y516096D02*
D03*
Y534114D02*
D03*
X181610Y80724D02*
D03*
Y62706D02*
D03*
Y44688D02*
D03*
Y26670D02*
D03*
X132080Y80724D02*
D03*
Y62706D02*
D03*
Y44688D02*
D03*
Y26670D02*
D03*
X82550D02*
D03*
Y44688D02*
D03*
Y62706D02*
D03*
Y80724D02*
D03*
X181610Y98743D02*
D03*
Y116761D02*
D03*
Y134779D02*
D03*
Y152797D02*
D03*
Y170815D02*
D03*
Y188833D02*
D03*
Y206851D02*
D03*
Y224869D02*
D03*
Y242887D02*
D03*
Y260906D02*
D03*
Y278924D02*
D03*
Y296942D02*
D03*
Y314960D02*
D03*
X132080Y98743D02*
D03*
Y116761D02*
D03*
Y134779D02*
D03*
Y152797D02*
D03*
Y170815D02*
D03*
Y188833D02*
D03*
Y206851D02*
D03*
Y224869D02*
D03*
Y242887D02*
D03*
Y260906D02*
D03*
Y278924D02*
D03*
Y296942D02*
D03*
Y314960D02*
D03*
X82550Y98743D02*
D03*
Y116761D02*
D03*
Y134779D02*
D03*
Y152797D02*
D03*
Y170815D02*
D03*
Y188833D02*
D03*
Y206851D02*
D03*
Y224869D02*
D03*
Y242887D02*
D03*
Y260906D02*
D03*
Y278924D02*
D03*
Y296942D02*
D03*
Y314960D02*
D03*
X521970Y303530D02*
D03*
X535411D02*
D03*
X562292D02*
D03*
X575733D02*
D03*
X589174D02*
D03*
X410633Y312420D02*
D03*
X424074D02*
D03*
X437515D02*
D03*
X450956D02*
D03*
X464397D02*
D03*
X477837D02*
D03*
X491278D02*
D03*
X449270Y281940D02*
D03*
X767080Y515620D02*
D03*
X506198Y312420D02*
D03*
X556260Y207247D02*
D03*
X497840Y102870D02*
D03*
X528320Y164359D02*
D03*
X505460Y163830D02*
D03*
X481330Y194310D02*
D03*
X459740Y261770D02*
D03*
X441543Y295888D02*
D03*
X626110Y236220D02*
D03*
X589280D02*
D03*
X449270Y231195D02*
D03*
X438150Y248770D02*
D03*
X518160Y261770D02*
D03*
X767280Y450850D02*
D03*
X758190Y482363D02*
D03*
X616320Y261620D02*
D03*
X517040Y248770D02*
D03*
D45*
X780268Y266118D02*
D03*
D50*
X737870Y516111D02*
Y665592D01*
Y318770D02*
Y516111D01*
Y665592D02*
X750758Y678480D01*
X720090Y300990D02*
X737870Y318770D01*
X750758Y678480D02*
X754380D01*
X626110Y673100D02*
X626110Y340360D01*
X610870Y325120D02*
X626110Y340360D01*
X335200Y325120D02*
X610870D01*
X644971Y300990D02*
X720090D01*
X633730Y312231D02*
X644971Y300990D01*
X633730Y312231D02*
Y319390D01*
X506198Y312420D02*
X633541D01*
X633730Y312231D01*
Y363870D02*
Y446852D01*
Y319390D02*
Y363870D01*
Y651320D02*
Y756542D01*
Y612817D02*
Y651320D01*
Y568337D02*
Y612817D01*
Y529835D02*
Y568337D01*
Y485355D02*
Y529835D01*
Y446852D02*
Y485355D01*
X506198Y312420D02*
Y312420D01*
X290430Y280350D02*
X335200Y325120D01*
D51*
X599497Y271780D02*
X633730D01*
X565200Y271980D02*
X599297D01*
X599497Y271780D01*
X557211Y242250D02*
X570230Y255270D01*
X364490Y242250D02*
X364490Y242250D01*
X557211D01*
X679450Y248920D02*
X718820D01*
X572770D02*
X679450D01*
X555045Y231195D02*
X572770Y248920D01*
X518160Y261770D02*
X554990D01*
X449270Y231195D02*
X555045D01*
X570230Y255270D02*
X726370D01*
X737300Y266200D01*
X554990Y261770D02*
X565200Y271980D01*
D52*
X666236Y27305D02*
D03*
D53*
X17145Y810859D02*
D03*
D54*
X832075Y835025D02*
D03*
D55*
X831215Y18415D02*
D03*
D56*
X18691Y18670D02*
D03*
D57*
X751840Y29210D02*
D03*
M02*
