G04*
G04 #@! TF.GenerationSoftware,Altium Limited,Altium Designer,24.1.2 (44)*
G04*
G04 Layer_Color=128*
%FSLAX44Y44*%
%MOMM*%
G71*
G04*
G04 #@! TF.SameCoordinates,1AC9159D-62F3-4322-B3E1-BEE9EAD309C0*
G04*
G04*
G04 #@! TF.FilePolarity,Positive*
G04*
G01*
G75*
%ADD58R,0.4000X1.5000*%
%ADD59R,0.9000X0.9500*%
%ADD60R,0.9000X0.6000*%
%ADD61R,0.8000X0.9000*%
%ADD62R,3.1725X2.3455*%
%ADD63R,0.6325X2.3455*%
%ADD64R,0.9500X0.9000*%
%ADD65R,0.9000X0.8000*%
%ADD66C,1.5000*%
%ADD67R,0.6000X0.9000*%
%ADD68R,0.4000X1.8000*%
%ADD69R,1.2700X0.4000*%
%ADD70R,1.2700X1.5500*%
%ADD71R,2.3000X2.8000*%
%ADD72O,1.8000X0.6000*%
%ADD73R,1.4000X1.4000*%
%ADD74R,2.3000X2.2860*%
%ADD75R,3.5000X2.2098*%
%ADD76O,1.2500X0.3500*%
%ADD77R,3.3000X3.1500*%
%ADD78R,1.4000X1.3000*%
%ADD79R,2.3622X1.8796*%
%ADD80R,1.8796X2.3622*%
%ADD81R,0.9100X1.2200*%
%ADD82R,1.7018X0.8128*%
%ADD90R,1.2700X0.3810*%
D58*
X649515Y705564D02*
D03*
X656015D02*
D03*
X662515D02*
D03*
X669015D02*
D03*
X675515D02*
D03*
X682015D02*
D03*
X688515D02*
D03*
X695015D02*
D03*
X701515D02*
D03*
X708015D02*
D03*
X714515D02*
D03*
X721015D02*
D03*
Y649175D02*
D03*
X714515D02*
D03*
X708015D02*
D03*
X701515D02*
D03*
X695015D02*
D03*
X688515D02*
D03*
X682015D02*
D03*
X675515D02*
D03*
X669015D02*
D03*
X662515D02*
D03*
X656015D02*
D03*
X649515D02*
D03*
Y622581D02*
D03*
X656015D02*
D03*
X662515D02*
D03*
X669015D02*
D03*
X675515D02*
D03*
X682015D02*
D03*
X688515D02*
D03*
X695015D02*
D03*
X701515D02*
D03*
X708015D02*
D03*
X714515D02*
D03*
X721015D02*
D03*
Y566193D02*
D03*
X714515D02*
D03*
X708015D02*
D03*
X701515D02*
D03*
X695015D02*
D03*
X688515D02*
D03*
X682015D02*
D03*
X675515D02*
D03*
X669015D02*
D03*
X662515D02*
D03*
X656015D02*
D03*
X649515D02*
D03*
Y539599D02*
D03*
X656015D02*
D03*
X662515D02*
D03*
X669015D02*
D03*
X675515D02*
D03*
X682015D02*
D03*
X688515D02*
D03*
X695015D02*
D03*
X701515D02*
D03*
X708015D02*
D03*
X714515D02*
D03*
X721015D02*
D03*
Y483211D02*
D03*
X714515D02*
D03*
X708015D02*
D03*
X701515D02*
D03*
X695015D02*
D03*
X688515D02*
D03*
X682015D02*
D03*
X675515D02*
D03*
X669015D02*
D03*
X662515D02*
D03*
X656015D02*
D03*
X649515D02*
D03*
Y456616D02*
D03*
X656015D02*
D03*
X662515D02*
D03*
X669015D02*
D03*
X675515D02*
D03*
X682015D02*
D03*
X688515D02*
D03*
X695015D02*
D03*
X701515D02*
D03*
X708015D02*
D03*
X714515D02*
D03*
X721015D02*
D03*
Y400228D02*
D03*
X714515D02*
D03*
X708015D02*
D03*
X701515D02*
D03*
X695015D02*
D03*
X688515D02*
D03*
X682015D02*
D03*
X675515D02*
D03*
X669015D02*
D03*
X662515D02*
D03*
X656015D02*
D03*
X649515D02*
D03*
Y373634D02*
D03*
X656015D02*
D03*
X662515D02*
D03*
X669015D02*
D03*
X675515D02*
D03*
X682015D02*
D03*
X688515D02*
D03*
X695015D02*
D03*
X701515D02*
D03*
X708015D02*
D03*
X714515D02*
D03*
X721015D02*
D03*
Y317246D02*
D03*
X714515D02*
D03*
X708015D02*
D03*
X701515D02*
D03*
X695015D02*
D03*
X688515D02*
D03*
X682015D02*
D03*
X675515D02*
D03*
X669015D02*
D03*
X662515D02*
D03*
X656015D02*
D03*
X649515D02*
D03*
Y788546D02*
D03*
X656015D02*
D03*
X662515D02*
D03*
X669015D02*
D03*
X675515D02*
D03*
X682015D02*
D03*
X688515D02*
D03*
X695015D02*
D03*
X701515D02*
D03*
X708015D02*
D03*
X714515D02*
D03*
X721015D02*
D03*
Y732158D02*
D03*
X714515D02*
D03*
X708015D02*
D03*
X701515D02*
D03*
X695015D02*
D03*
X688515D02*
D03*
X682015D02*
D03*
X675515D02*
D03*
X669015D02*
D03*
X662515D02*
D03*
X656015D02*
D03*
X649515D02*
D03*
D59*
X672440Y271980D02*
D03*
X662940Y296980D02*
D03*
X653440Y271980D02*
D03*
X616320D02*
D03*
X606820Y296980D02*
D03*
X597320Y271980D02*
D03*
X558931Y227530D02*
D03*
X549431Y252530D02*
D03*
X539931Y227530D02*
D03*
X672440D02*
D03*
X662940Y252530D02*
D03*
X653440Y227530D02*
D03*
X539931Y271980D02*
D03*
X549431Y296980D02*
D03*
X558931Y271980D02*
D03*
D60*
X616319Y313931D02*
D03*
X616320Y332090D02*
D03*
X633730Y415072D02*
D03*
X633729Y396914D02*
D03*
Y479896D02*
D03*
X633730Y498055D02*
D03*
Y581037D02*
D03*
X633729Y562878D02*
D03*
X633730Y664020D02*
D03*
X633729Y645861D02*
D03*
X633730Y332090D02*
D03*
X633729Y313931D02*
D03*
X265430Y149541D02*
D03*
X265429Y131383D02*
D03*
X265430Y174940D02*
D03*
X265431Y193099D02*
D03*
X364498Y68261D02*
D03*
X364497Y50103D02*
D03*
X364490Y204150D02*
D03*
X364491Y222309D02*
D03*
X570229Y102491D02*
D03*
X570230Y120650D02*
D03*
X570231Y164209D02*
D03*
X570230Y146050D02*
D03*
X633729Y358411D02*
D03*
X633730Y376570D02*
D03*
X633729Y441394D02*
D03*
X633730Y459552D02*
D03*
X633729Y524376D02*
D03*
X633730Y542535D02*
D03*
X633729Y607358D02*
D03*
X633730Y625517D02*
D03*
X633729Y690341D02*
D03*
X633730Y708500D02*
D03*
X633729Y751083D02*
D03*
X633730Y769242D02*
D03*
D61*
X736470Y417095D02*
D03*
Y399095D02*
D03*
Y439749D02*
D03*
Y457749D02*
D03*
Y500078D02*
D03*
Y482078D02*
D03*
Y540732D02*
D03*
Y522732D02*
D03*
Y583060D02*
D03*
Y565060D02*
D03*
Y623714D02*
D03*
Y605714D02*
D03*
Y666043D02*
D03*
Y648043D02*
D03*
Y706696D02*
D03*
Y688697D02*
D03*
Y334113D02*
D03*
Y316113D02*
D03*
Y374767D02*
D03*
Y356767D02*
D03*
X265430Y236010D02*
D03*
Y218011D02*
D03*
X288290D02*
D03*
Y236010D02*
D03*
X364490Y88470D02*
D03*
Y106470D02*
D03*
Y145841D02*
D03*
Y127840D02*
D03*
Y185210D02*
D03*
Y167211D02*
D03*
X488188Y163940D02*
D03*
Y145940D02*
D03*
X514858D02*
D03*
Y163940D02*
D03*
X488188Y120760D02*
D03*
Y102760D02*
D03*
X541528D02*
D03*
Y120760D02*
D03*
X514858Y102760D02*
D03*
Y120760D02*
D03*
X541528Y189247D02*
D03*
Y207247D02*
D03*
X570230D02*
D03*
Y189247D02*
D03*
X541528Y145940D02*
D03*
Y163940D02*
D03*
X736470Y731025D02*
D03*
Y749025D02*
D03*
Y771679D02*
D03*
Y789679D02*
D03*
D62*
X447040Y159643D02*
D03*
D63*
X421640Y99437D02*
D03*
X434340D02*
D03*
X447040D02*
D03*
X459740D02*
D03*
X472440D02*
D03*
D64*
X289346Y51140D02*
D03*
X264346Y60641D02*
D03*
X289346Y70141D02*
D03*
X265430Y279436D02*
D03*
X290430Y288936D02*
D03*
X265430Y298436D02*
D03*
X767280Y548030D02*
D03*
X792280Y557530D02*
D03*
X767280Y567030D02*
D03*
Y505697D02*
D03*
X792280Y515197D02*
D03*
X767280Y524697D02*
D03*
Y463363D02*
D03*
X792280Y472863D02*
D03*
X767280Y482363D02*
D03*
Y421030D02*
D03*
X792280Y430530D02*
D03*
X767280Y440030D02*
D03*
D65*
X283963Y103820D02*
D03*
X265963D02*
D03*
X328398Y54290D02*
D03*
X310398D02*
D03*
X313580Y268920D02*
D03*
X331580D02*
D03*
X413910Y295888D02*
D03*
X431910D02*
D03*
Y269240D02*
D03*
X413910D02*
D03*
X413800Y191770D02*
D03*
X431800D02*
D03*
X453280D02*
D03*
X471280D02*
D03*
X622630Y102870D02*
D03*
X640630D02*
D03*
X451054Y295888D02*
D03*
X469054D02*
D03*
X488198D02*
D03*
X506198D02*
D03*
D66*
X265430Y258761D02*
D03*
X346710Y79690D02*
D03*
X364490Y242250D02*
D03*
Y267651D02*
D03*
X610870Y350520D02*
D03*
Y751840D02*
D03*
X528320D02*
D03*
X265430Y28725D02*
D03*
X610870Y717911D02*
D03*
Y469038D02*
D03*
X589280Y240030D02*
D03*
X626110D02*
D03*
X610870Y551995D02*
D03*
Y788546D02*
D03*
Y634953D02*
D03*
Y386080D02*
D03*
D67*
X328288Y79690D02*
D03*
X310129Y79692D02*
D03*
X328288Y103820D02*
D03*
X310129Y103822D02*
D03*
X312421Y218120D02*
D03*
X330580Y218119D02*
D03*
X330201Y239711D02*
D03*
X312042Y239712D02*
D03*
X447931Y214631D02*
D03*
X466090Y214630D02*
D03*
X489841Y214631D02*
D03*
X508000Y214630D02*
D03*
X489842Y191771D02*
D03*
X508001Y191770D02*
D03*
D68*
X337185Y134173D02*
D03*
X330835D02*
D03*
X324485D02*
D03*
X318135D02*
D03*
X311785D02*
D03*
X305435D02*
D03*
X299085D02*
D03*
X292735D02*
D03*
Y185228D02*
D03*
X299085D02*
D03*
X305435D02*
D03*
X311785D02*
D03*
X318135D02*
D03*
X324485D02*
D03*
X330835D02*
D03*
X337185D02*
D03*
D69*
X329049Y293155D02*
D03*
X329057Y28598D02*
D03*
D70*
X362069Y293155D02*
D03*
X362077Y28598D02*
D03*
D71*
X631630Y143510D02*
D03*
D72*
X659880Y162560D02*
D03*
Y149860D02*
D03*
Y137160D02*
D03*
Y124460D02*
D03*
X603380Y162560D02*
D03*
Y149860D02*
D03*
Y137160D02*
D03*
Y124460D02*
D03*
D73*
X751840Y40640D02*
D03*
Y57940D02*
D03*
D74*
X713170Y71700D02*
D03*
Y31060D02*
D03*
D75*
X792435Y741480D02*
D03*
Y602980D02*
D03*
D76*
X505770Y274770D02*
D03*
Y268270D02*
D03*
Y261770D02*
D03*
Y255270D02*
D03*
Y248770D02*
D03*
Y242270D02*
D03*
Y235770D02*
D03*
X449270Y274770D02*
D03*
Y268270D02*
D03*
Y261770D02*
D03*
Y255270D02*
D03*
Y248770D02*
D03*
Y242270D02*
D03*
Y235770D02*
D03*
D77*
X659130Y54610D02*
D03*
X604130D02*
D03*
D78*
X416167Y221870D02*
D03*
Y237870D02*
D03*
D79*
X392938Y98298D02*
D03*
Y143002D02*
D03*
X502920Y73152D02*
D03*
Y28448D02*
D03*
X553720Y73240D02*
D03*
Y28536D02*
D03*
D80*
X615370Y195580D02*
D03*
X660074D02*
D03*
D81*
X458410Y391840D02*
D03*
X491110D02*
D03*
X551750D02*
D03*
X584450D02*
D03*
X551750Y463840D02*
D03*
X584450D02*
D03*
X458410D02*
D03*
X491110D02*
D03*
X458410Y535840D02*
D03*
X491110D02*
D03*
X551750D02*
D03*
X584450D02*
D03*
X551750Y607840D02*
D03*
X584450D02*
D03*
X458410D02*
D03*
X491110D02*
D03*
X365070D02*
D03*
X397770D02*
D03*
X365070Y535840D02*
D03*
X397770D02*
D03*
X365070Y463840D02*
D03*
X397770D02*
D03*
X365070Y391840D02*
D03*
X397770D02*
D03*
X271730D02*
D03*
X304430D02*
D03*
X271730Y463840D02*
D03*
X304430D02*
D03*
X271730Y535840D02*
D03*
X304430D02*
D03*
X178390Y607840D02*
D03*
X211090D02*
D03*
X271730D02*
D03*
X304430D02*
D03*
X178390Y535840D02*
D03*
X211090D02*
D03*
X178390Y463840D02*
D03*
X211090D02*
D03*
X178390Y391840D02*
D03*
X211090D02*
D03*
X85050D02*
D03*
X117750D02*
D03*
X85050Y463840D02*
D03*
X117750D02*
D03*
X85050Y535840D02*
D03*
X117750D02*
D03*
X85050Y607840D02*
D03*
X117750D02*
D03*
X85050Y679840D02*
D03*
X117750D02*
D03*
X178390D02*
D03*
X211090D02*
D03*
X271730D02*
D03*
X304430D02*
D03*
X365070D02*
D03*
X397770D02*
D03*
X458410D02*
D03*
X491110D02*
D03*
X551750D02*
D03*
X584450D02*
D03*
X551750Y751840D02*
D03*
X584450D02*
D03*
X458410D02*
D03*
X491110D02*
D03*
X365070D02*
D03*
X397770D02*
D03*
X271730D02*
D03*
X304430D02*
D03*
X178390D02*
D03*
X211090D02*
D03*
X85050D02*
D03*
X117750D02*
D03*
D82*
X763435Y715980D02*
D03*
Y703480D02*
D03*
Y690980D02*
D03*
Y678480D02*
D03*
Y665980D02*
D03*
Y653480D02*
D03*
Y640980D02*
D03*
Y628480D02*
D03*
D90*
X328930Y35875D02*
D03*
Y286066D02*
D03*
Y300035D02*
D03*
Y21906D02*
D03*
M02*
