M48
;Layer_Color=9474304
;FILE_FORMAT=4:2
METRIC,TZ
;TYPE=PLATED
T01F00S00C0.20
T02F00S00C0.30
T03F00S00C0.50
T04F00S00C0.60
T05F00S00C1.10
T06F00S00C3.30
%
T01
X7481Y293
X7557
X7696Y719
Y853
X7912Y828
Y962
Y1096
Y1231
Y1365
Y1500
Y1634
Y1768
Y1903
Y2037
X8166
Y1903
Y1768
Y1634
Y1500
Y1365
Y1231
Y1096
Y962
X7140Y1054
X7005
Y1219
X7140
X7003Y1537
X7010Y2093
Y2228
Y2362
X7188Y2324
Y2489
X7010Y2609
Y2743
X7129Y2921
X7145Y3264
X7016
X7277Y3325
Y3469
Y3612
Y3755
Y3899
X7145Y3872
X7016Y3813
X7015Y4078
X7146Y4133
X7277
X7455Y3991
X7607Y4050
Y3916
Y3781
Y3647
Y3513
Y3378
Y3244
Y3109
Y2975
X7455Y3073
Y3161
X7943Y3099
X8077
X8212
X7938Y4051
X7747
X7188Y2130
X6900
Y2324
X6794Y2489
Y2718
X6629Y2629
X6337
Y2718
X6163Y2616
X6261Y2362
X6160Y2235
X6375
X5893Y2362
X5563Y2072
Y1779
Y1620
Y1461
Y1302
Y1143
X5283Y1166
Y1325
Y1484
Y1644
Y1803
X5271Y2083
Y2242
X5170Y2488
X5182Y2618
X5160Y2684
X5220Y2852
Y3035
X5354
X5623
X5757
X5892
X5757Y2876
X6337Y3194
X6439
X6495Y3099
X6690Y3073
X6934Y2921
X6885Y3566
X6754Y3511
X6690Y3634
X6439Y3736
X6337Y3639
X6337Y4022
X6495Y3928
X5220Y3734
Y3539
X5062Y3124
X4913
X4778
X4644
X4510
X4375
X4241
X4106
X3972
X3838
X3703
X3569
X3747Y2932
X3937Y2887
Y2692
X3899Y2323
Y2190
Y2057
X4163Y2032
X4242
X4356Y2153
X4318Y2286
X4420Y2273
X4493Y2312
X4381Y2488
X4597Y2618
X4740Y2564
Y2758
X4493Y2819
X4415Y2959
X4293Y3552
Y3747
X3340Y3785
Y3590
X3075Y3150
X3196Y2932
X3158Y2793
X3078
X3010Y2804
X3213Y2499
Y2435
X3645Y2423
Y2562
X3543Y1851
X3810Y1831
Y1672
X3747Y1457
X3747Y1278
X3872Y787
X4031
X4190
X4349
X4508
X4638
X4699
X4638Y1168
X4458
Y1245
X4533Y1430
X4381
X5055Y1638
X4813Y1943
X4788Y2153
X4978Y1029
X5283Y826
Y691
Y557
X5791Y648
Y782
Y917
X6212Y918
X6406
X6769Y1067
X6871Y1054
Y1219
X6869Y1537
X6883Y851
Y716
Y582
X5880Y317
X5817
X5753
Y254
X5817
X5880
X5833Y1779
X3181Y2003
X2972Y2180
X3010Y1102
X3010Y1038
X3275Y640
X3467Y683
Y797
X3823Y660
Y501
Y342
X3747Y286
X3193
X2604Y456
X2311Y447
Y267
Y627
Y987
Y1168
Y1348
X2438Y1314
X2502
X2604Y1177
X2840Y1140
X2807Y1397
X2515Y1595
Y1775
X2311Y1708
Y1528
Y1888
Y2069
Y2249
Y2429
Y2609
Y2789
Y2969
Y3150
X2515Y2979
Y2619
Y2438
Y2258
Y2078
X1816Y2069
Y1888
Y1708
Y1528
Y1348
Y1168
Y987
Y807
Y627
Y447
Y267
X1321
Y447
Y627
Y807
Y987
Y1168
Y1348
Y1528
Y1708
Y1888
Y2069
Y2249
Y2429
Y2609
Y2789
Y2969
Y3150
X1816
Y2969
Y2789
Y2609
Y2429
Y2249
X826
Y2069
Y1888
Y1708
Y1528
Y1348
Y1168
Y987
Y807
Y627
Y447
Y267
X445Y837
Y1017
Y1197
Y1377
Y1557
Y1738
Y1918
Y2098
X826Y2429
Y2609
Y2789
Y2969
Y3150
X445Y3177
Y2997
X546Y4080
X1486Y3823
Y3628
X2324Y3615
Y3810
X2718Y3150
X2881
X2904Y2804
Y2740
X2643Y911
Y822
Y733
X2489Y4274
Y4469
Y5052
Y5247
Y5831
Y6025
Y6414
Y6609
Y6804
Y7193
Y7387
Y7582
X2432Y7823
Y7988
X2252
Y7823
X2072
Y7988
X1892
Y7823
X1711
Y7988
X1531
Y7823
X1351
Y7988
X1171
Y7823
X991
Y7988
X810
Y7823
X546Y7683
Y7503
Y7323
Y7143
Y6963
Y6783
Y6602
Y6422
Y6242
Y6062
Y5882
Y5702
Y5521
Y5341
Y5161
Y4981
Y4801
Y4620
Y4440
Y4260
X1549Y4261
Y4456
Y4651
Y5040
Y5234
Y5818
Y6013
Y6402
Y6596
Y6791
Y7180
Y7375
Y7569
X2612Y7823
Y7988
X2792
Y7823
X2973Y7988
X3153
X3333
X3513
X3693
X3874
X4054
X4234
X4331Y7569
Y7375
Y7180
Y6596
Y6402
Y5818
Y5234
Y5040
Y4456
Y4261
X3442Y4287
Y4481
Y5065
Y5260
Y5649
Y5843
Y6038
Y6427
Y6622
Y7205
Y7400
Y7595
X5271Y7379
Y7184
Y6600
Y6406
Y5822
Y5044
Y4460
Y4265
X6337Y4469
X6439Y4534
X6495Y4757
X6337Y4854
Y5298
X6439Y5397
X6495Y5588
X6337Y5683
Y6128
X6439Y6226
X6495Y6414
X6337Y6513
X6261Y6731
X6338Y6829
X6439Y7056
X6495Y7252
X6337Y7565
X6299Y7849
X6439Y7885
X6625Y7811
X6755Y7681
X6778Y7531
X6921
X6885Y7736
X6885Y6970
X6756Y6913
X6755Y6000
X6885Y6057
Y5230
X6755Y5174
X6690Y4464
X6755Y4341
X6885Y4397
X6690Y4204
X6036Y7988
X5855
X5675
X5495
X5315
X5135
X7015Y7980
X7145Y8035
X7277Y7988
Y7701
Y7558
Y7415
X7145Y7404
X7015
X7016Y7139
X7146Y7196
X7277Y7195
Y7052
Y6908
X7544Y6910
Y6785
X7760Y6655
X7764Y6477
X7836Y6535
X7963Y6515
Y6653
Y6796
Y6939
Y7083
Y7226
X7962Y7597
Y7740
X7700Y7740
Y7883
Y8026
X7544
Y7883
Y7596
Y7453
X7700
X7455Y6477
X7277Y6344
X7145Y6350
X7015Y6295
Y6594
X7145
X7277Y6621
Y6057
Y5914
Y5770
X7145Y5740
X7015
Y5470
X7145Y5525
X7277
Y5382
Y5238
Y5095
Y4951
X7145Y4909
X7015
X7015Y4640
X7145Y4707
X7277Y4707
Y4564
Y4420
Y4277
X7673Y4508
X7582Y4634
Y4750
Y4824
X7455Y4821
X7569Y4946
Y5080
X7671Y5156
X7569Y5349
Y5606
Y5740
X8039Y5791
Y5651
Y5471
Y5291
X7938Y5359
X8039Y5111
Y4931
X7938Y4940
X8039Y4751
Y4570
X7925Y4508
X8039Y4390
Y4210
X7963Y6228
Y6372
T02
X70Y71
X208Y50
X348
X488
X628
X768
X908
X1048
X1188
X1328
X1468
X1608
X1748
X1888
X2028
X2168
X2308
X2448
X2588
X2728
X2868Y50
X3008
X3148
X3288
X3428
X3568
X3708
X3848
X3988
X4548
X4688
X4828
X4968
X5108
X5248
X5388
X5528
X5668Y50
X5808
X5948
X6088
X6228
X6368
X6508
X6648
X6788
X6928
X7068
X7208
X7348
X7488
X7628
X7768
X7908
X8048
X8188
X8328
X8450Y119
X8450Y259
Y399
Y539
Y679
Y819
Y959
Y1099
Y1239
Y1379
X8450Y1519
Y1659
Y1799
Y1939
Y2079
Y2219
Y2359
Y2499
Y2639
X8450Y2779
Y2919
Y3059
Y3199
Y3339
Y3479
Y3619
Y3759
Y3899
X8432Y4038
X8309Y4104
X218Y4062
X106Y3978
X50Y3850
Y3710
Y3570
Y3430
Y3290
Y3150
Y3010
Y2870
Y2730
Y2590
Y2450
Y2310
Y2170
Y2030
Y1890
Y1750
Y1610
Y1470
Y1330
Y1190
Y1050
Y910
Y770
Y630
Y490
Y350
Y210
X250Y4199
Y4339
Y4479
Y4619
Y4759
Y4899
Y5039
Y5179
Y5319
Y5459
Y5599
Y5739
Y5879
Y6019
Y6159
Y6299
Y6439
Y6579
Y6719
Y6859
Y6999
Y7139
Y7279
Y7419
Y7559
X232Y7697
X134Y7797
X50Y7909
Y8049
X8450Y8063
Y7923
X8447Y7783
X8327Y7711
X8254Y7591
X8250Y7452
Y7312
Y7172
Y7032
Y6892
Y6752
Y6612
Y6472
Y6332
Y6192
Y6052
Y5912
Y5772
Y5632
Y5492
Y5352
Y5212
Y5072
Y4932
Y4792
Y4652
Y4512
Y4372
X8251Y4232
X8450Y8203
Y8343
X8359Y8450
X8219
X8079
X7939
X7799
X7660Y8440
X7601Y8313
X7516Y8202
X7380Y8170
X7240
X7100
X6960
X6820
X6680
X6540
X6400
X6260
X6120
X5980
X5840
X5700
X5560
X5420
X5280
X5145Y8209
X5069Y8326
X4997Y8446
X4857Y8450
X4717
X4577
X4437
X4332Y8450
X4241Y8344
X4175Y8221
X4044Y8170
X3904Y8170
X3764
X3624
X3484
X3344
X3204
X3064
X2924
X2784
X2644
X2504
X2364
X2224
X2084
X1944
X1804
X1664
X1524
X1384
X1244
X1104
X970Y8211
X895Y8329
X821Y8447
X681Y8450
X541Y8450
X401
X261Y8450
X121
X50Y8329
Y8189
T03
X4491Y8078
X4653Y8011
X4815Y8078
X4882Y8240
X4815Y8402
X4653Y8469
X4491Y8402
X4424Y8240
T04
X198Y198
X360Y131
X522Y198
X7978
X8140Y131
X8302Y198
X8369Y360
X8302Y522
X8140Y589
X7978Y522
X7911Y360
X7978Y2398
X8140Y2331
X8302Y2398
X8369Y2560
X8302Y2722
X8140Y2789
X7978Y2722
X7911Y2560
X7978Y3478
X7911Y3640
X7978Y3802
X8140Y3869
X8302Y3802
X8369Y3640
X8302Y3478
X8140Y3411
X5681Y3423
X5554Y3550
X5681Y3677
X5808Y3550
X5681Y4143
X4748
Y3677
X4621Y3550
X4748Y3423
X4875Y3550
X3941
X3687
X3814Y3677
Y3423
Y4143
X3008Y3550
X2754
X2881Y3677
Y3423
Y4143
X1947
Y3677
X1820Y3550
X1947Y3423
X2074Y3550
X1141
X887
X1014Y3677
Y3423
X522Y3478
X589Y3640
X522Y3802
X360Y3869
X198Y3802
X131Y3640
X198Y3478
X360Y3411
Y2789
X522Y2722
X589Y2560
X522Y2398
X360Y2331
X198Y2398
X131Y2560
X198Y2722
Y522
X131Y360
X589
X522Y522
X360Y589
X1014Y4143
X887Y4270
X1014Y4397
X1141Y4270
X1820
X1947Y4397
X2074Y4270
X2754
X2881Y4397
Y4863
X2754Y4990
X2881Y5117
Y5583
X2754Y5710
X2881Y5837
Y6303
X2754Y6430
X2881Y6557
Y7023
X2754Y7150
X2881Y7277
X1947
X1820Y7150
X1947Y7023
X2074Y7150
X1947Y6557
X1820Y6430
X1947Y6303
X2074Y6430
X1947Y5837
X1820Y5710
X1947Y5583
X2074Y5710
X1947Y5117
X1820Y4990
X1947Y4863
X2074Y4990
X1141
X887
X1014Y5117
Y4863
Y5583
X887Y5710
X1014Y5837
X1141Y5710
X1014Y6303
X887Y6430
X1014Y6557
X1141Y6430
X1014Y7023
X887Y7150
X1014Y7277
X1141Y7150
X522Y7978
X360Y7911
X198Y7978
X131Y8140
X589
X3008Y7150
X3687
X3814Y7277
Y7023
X3941Y7150
X4621
X4748Y7277
Y7023
X4875Y7150
X5554
X5681Y7277
Y7023
X5808Y7150
Y6430
X5681Y6303
Y6557
X5554Y6430
X4875
X4621
X4748Y6557
Y6303
Y5837
X4621Y5710
X4748Y5583
X4875Y5710
X5554
X5681Y5837
Y5583
X5808Y5710
X5681Y5117
X5554Y4990
X5681Y4863
X5808Y4990
X5681Y4397
X5554Y4270
X5808
X4875
X4621
X4748Y4397
Y4863
X4621Y4990
X4748Y5117
X4875Y4990
X3941
X3687
X3814Y5117
Y4863
Y4397
X3687Y4270
X3941
X3008
Y4990
Y5710
X3687
X3814Y5837
Y5583
X3941Y5710
X3814Y6303
X3687Y6430
X3814Y6557
X3941Y6430
X3008
X7978Y7978
X8140Y7911
X8302Y7978
X8369Y8140
X7911
X7978Y8302
X8140Y8369
X8302Y8302
X522
X360Y8369
X198Y8302
T05
X7373Y1138
X7627
Y1392
Y1646
Y1900
Y2154
Y2408
Y2662
X7373
Y2408
Y2154
Y1900
Y1646
Y1392
T06
X8140Y360
Y2560
Y3640
X4250Y210
X360Y360
Y2560
Y3640
Y8140
X8140
X4653Y8240
M30
